<?xml version="1.0" encoding="utf-8"?>
<!-- Generator: Adobe Illustrator 26.2.1, SVG Export Plug-In . SVG Version: 6.00 Build 0)  -->
<svg version="1.1" id="Layer_1" xmlns="http://www.w3.org/2000/svg" xmlns:xlink="http://www.w3.org/1999/xlink" x="0px" y="0px"
	 viewBox="0 0 276.94 93.62" style="enable-background:new 0 0 276.94 93.62;" xml:space="preserve">
<style type="text/css">
	.st0{fill-rule:evenodd;clip-rule:evenodd;fill:#00704A;stroke:#FFFFFF;stroke-miterlimit:10;}
	.st1{fill-rule:evenodd;clip-rule:evenodd;fill:#FFFFFF;}
	.st2{fill-rule:evenodd;clip-rule:evenodd;fill:#CF1228;}
</style>
<g>
	<path class="st0" d="M138.7,16.64C78.36,9.53,50.18,6.54,6.78,1.41c-1.57,0-2.85-0.14-2.56,2.13
		c9.39,32.02,10.67,37.43,22.91,79.12c2.56,7.54,6.83,9.53,10.96,9.53c40.84,0,61.19,0,100.33,0c39.13,0,59.63,0,100.33,0
		c4.13,0,8.4-1.99,10.96-9.53c12.24-41.7,13.66-46.82,23.05-79.12c0.14-2.28-1.14-2.13-2.7-2.13
		C226.65,6.54,199.18,9.53,138.7,16.64L138.7,16.64z"/>
	<path class="st1" d="M138.42,21.2c54.5-6.12,86.95-10.25,125.94-14.66c1.42-0.14,2.7-1,1.99,1.28
		c-5.41,19.07-7.12,24.9-16.79,58.63c-1.85,5.98-4.7,5.41-9.11,5.41c-36.57,0-62.19,0-102.03,0c-39.85,0-65.46,0-102.04,0
		c-4.41,0-7.12,0.57-9.11-5.41C17.6,32.72,15.89,26.89,10.48,7.82C9.91,5.54,11.19,6.4,12.47,6.4
		C51.61,10.95,83.91,15.08,138.42,21.2L138.42,21.2z"/>
	<path class="st1" d="M243.01,76.84c-1.85,0-3.27,1.42-3.27,3.27c0,1.85,1.42,3.27,3.27,3.27c1.85,0,3.27-1.42,3.27-3.27
		C246.28,78.26,244.86,76.84,243.01,76.84L243.01,76.84L243.01,76.84z M243.01,77.41L243.01,77.41c1.57,0,2.7,1.14,2.7,2.7
		c0,1.57-1.14,2.7-2.7,2.7c-1.42,0-2.56-1.14-2.56-2.7C240.45,78.69,241.45,77.55,243.01,77.41L243.01,77.41L243.01,77.41z
		 M241.87,78.26v3.7h0.57V80.4h0.57l1,1.57h0.71l-1.14-1.57c0.71-0.14,1-0.43,1-1.14c0-0.71-0.43-1-1.28-1H241.87L241.87,78.26z
		 M242.44,79.83v-1.14h0.71c0.57,0,0.85,0.28,0.85,0.57c0,0.43-0.28,0.57-0.71,0.57H242.44L242.44,79.83z"/>
	<path class="st1" d="M68.54,75.98c-2.99,0-5.69,2.13-5.69,5.27c0,3.42,2.42,5.83,5.69,5.83c3.42,0,5.83-2.42,5.83-5.83
		C74.38,78.12,71.53,75.98,68.54,75.98L68.54,75.98z M68.54,78.55c1.71,0,2.99,1.42,2.99,2.7c0,1.85-1.28,3.13-2.99,3.13
		c-1.57,0-2.99-1.28-2.99-3.13C65.55,79.97,66.98,78.55,68.54,78.55L68.54,78.55z"/>
	<path class="st1" d="M95.01,76.13v5.41c0,1.28-0.14,2.85-1.85,2.85c-1.71,0-1.85-1.57-1.85-2.85v-5.41h-2.7v5.69
		c0,1.42,0,2.85,1.14,3.84c0.85,0.71,2.13,1.14,3.42,1.14c1.14,0,2.56-0.43,3.42-1.14c1-1,1.14-2.42,1.14-3.84v-5.69H95.01
		L95.01,76.13z"/>
	<path class="st1" d="M117.64,80.82v1.99h1.99c-0.14,1.42-1,1.99-2.28,1.99c-1.71,0-2.7-1.71-2.7-3.27c0-1.57,1-3.42,2.7-3.42
		c1.14,0,1.85,0.85,2.28,1.85l2.56-1.28c-0.85-1.71-2.56-2.7-4.7-2.7c-3.42,0-5.69,2.13-5.69,5.55c0,3.27,2.28,5.55,5.55,5.55
		c1.85,0,3.27-0.71,4.41-1.99c0.85-1.42,1-2.85,1-4.13L117.64,80.82L117.64,80.82z"/>
	<polygon class="st1" points="139.7,80.25 139.7,76.13 136.99,76.13 136.99,86.66 139.7,86.66 139.7,82.53 143.54,82.53 
		143.54,86.66 146.24,86.66 146.24,76.13 143.54,76.13 143.54,80.25 139.7,80.25 	"/>
	<polygon class="st1" points="161.04,86.66 163.75,86.66 163.75,80.25 163.75,80.25 168.73,86.66 171.43,86.66 171.43,76.13 
		168.73,76.13 168.73,82.67 168.73,82.67 163.75,76.13 161.04,76.13 161.04,86.66 	"/>
	<path class="st1" d="M192.49,76.13v5.55c0,1.42,0,2.7-1.85,2.7c-1.71,0-1.85-1.28-1.85-2.7v-5.55h-2.7v5.98
		c0,1.42,0.14,2.7,1.14,3.7c0.85,0.85,2.28,1.28,3.42,1.28c1.28,0,2.7-0.43,3.56-1.28c1-1,1-2.28,1-3.7v-5.98H192.49L192.49,76.13z"
		/>
	<polygon class="st1" points="214.12,78.55 217.11,78.55 217.11,76.13 208.29,76.13 208.29,78.55 211.28,78.55 211.28,86.66 
		214.12,86.66 214.12,78.55 	"/>
	<path class="st1" d="M237.03,76.7c-0.85-0.28-2.13-0.71-3.27-0.71c-1.99,0-3.56,1.42-3.56,3.56c0,1.99,1.14,2.28,2.85,2.99
		c0.57,0,1.57,0.28,1.57,1.14c0,0.57-0.57,1-1.28,1c-0.85,0-1.71-0.57-2.42-1.14l-1.14,2.28c1.14,0.57,2.42,1.28,3.7,1.28
		c1,0,2.13-0.43,2.99-1c0.71-0.85,1-1.85,1-2.99c0-1.57-1.14-2.42-2.56-2.85l-0.71-0.14c-0.43-0.14-1.14-0.43-1.14-1
		c0-0.57,0.57-1,1.14-1c0.71,0,1.28,0.43,1.85,0.85L237.03,76.7L237.03,76.7z"/>
	<path class="st2" d="M233.62,50.65c2.99,0.14,6.55-1.57,7.26-2.99c0.71-1.42,0.43-3.98-1.57-3.98
		C237.6,43.68,234.33,45.1,233.62,50.65L233.62,50.65z M245.15,55.63c-5.69,7.68-13.95,6.69-15.94-0.43
		c-1.42,2.7-3.42,5.55-7.12,5.98c-4.41,0.28-4.84-3.98-4.41-6.4c0.57-2.56,1.28-3.56,3.13-8.54c1.14-3.56-2.56-1.71-4.55,1.71
		c-1.57,4.13-4.98,13.23-4.98,13.23s-1.71-0.28-5.69-0.28c0.43-2.28,3.7-9.39,5.55-14.66c1.28-3.56-2.56-1.57-4.7,1.99l-0.14,0.28
		l-5.12,12.67h-5.98l1.85-4.84c-0.57,0.85-1.28,1.42-1.99,1.99c-7.68,5.41-11.38,1.42-12.52-2.42c-2.13,2.7-4.84,5.27-7.12,4.98
		c-4.41-0.14-3.42-6.69-2.56-8.82c1.99-5.83,4.13-7.97,0.14-8.11c-0.71,0-5.55,18.5-14.37,19.5c-8.11,0.57-4.98-5.69-3.56-9.39
		c2.13-5.98,4.41-8.97,3.27-11.1c-0.85-1.85-5.83,1.71-7.26,5.55c-1.99,4.84-5.98,14.94-5.98,14.94l-7.54,0.28
		c0,0,6.26-15.8,12.38-31.88c1.99-5.12-1.14-5.27-3.42-5.12c-1.99,0.14-1.28-1.57,0.14-1.85c7.4-0.57,9.96-0.28,10.82,0.28
		c1.57,1,1.42,2.99,1.14,3.27c-1.28,3.56-3.7,9.68-4.13,10.67c-1,3.27,1.14,0.28,1.85-0.57c0.71-0.71,5.27-5.83,6.12-7.26
		c1-1.14,5.27-5.41,7.97-5.41c2.56,0,72.44-0.14,74.29,0c3.27,0,4.7-1.57,5.41-2.13c0.57-0.43,1.28-0.43,1.28,0.28
		c-0.14,0.14-3.7,8.4-8.54,8.4c-5.41,0-73.15,0-75,0c-1.57,0-4.84,1.85-7.26,4.84c-2.28,2.7,0.57,1.71,0.57,1.71
		c4.27-0.43,8.11-1.42,1.42,13.23c-6.4,14.09,3.13,7.54,8.68-9.53c0.28-0.57-1.42-1.28-1.42-2.56c-0.14-1.57-0.57-3.13,2.13-3.13
		c2.56,0,1.71,2.56,3.84,3.13c4.41,1.42,6.83,0,4.55,5.83c-2.28,5.27-4.7,11.95-1.85,11.24c2.42-0.57,3.13-2.99,3.56-3.98
		c0-0.14,0-0.43,0-0.57c0.43-5.55,3.7-10.53,6.55-11.67c6.69-2.99,9.25,0.85,8.97,4.41c-0.28,4.27-5.12,7.26-10.67,7.4
		c-0.14-0.14-0.14,0,0,0.85c0.85,6.26,7.97,2.7,11.81-1.42l4.84-12.24l6.12-0.14l-1.42,3.7c4.55-5.41,9.39-3.98,8.97,0.85l0.14-0.28
		c5.27-6.83,11.24-4.27,9.11,1.99c-0.28,0.85-3.27,9.25-3.27,9.25s-0.85,2.85,1,2.85c1.42,0,3.56-2.85,4.55-5.41v-0.14
		c-0.28-5.55,3.13-10.25,5.83-11.67c6.69-2.85,9.53,1,9.53,4.41c0,4.27-4.84,7.26-10.39,7.4c-0.14-0.14-0.14,0,0,0.85
		c1.42,7.54,8.97,2.56,9.96,1.14C246.57,51.51,246.43,53.78,245.15,55.63L245.15,55.63z M186.94,50.65
		c2.99,0.14,6.55-1.57,7.26-2.99c0.85-1.42,0.71-3.98-1.28-3.98C191.35,43.54,188.08,45.1,186.94,50.65L186.94,50.65z M81.63,29.16
		c0-1.85,1.28-3.27,3.13-3.27c1.71,0,2.99,1.42,2.99,3.27c0,1.71-1.28,3.13-2.99,3.13C82.91,32.3,81.63,30.87,81.63,29.16
		L81.63,29.16z M119.06,67.02c1.85-1.14,3.13-2.56,4.27-4.7c-1.42,0.43-3.84,1.71-4.98,2.7C116.64,66.59,117.5,68.01,119.06,67.02
		L119.06,67.02z M109.67,58.76c4.84-1.42,8.97-7.97,9.68-9.96c1.99-4.84,3.56-8.82,3.56-8.82h5.69c0,0-4.13,9.82-5.83,15.08
		c-1.71,4.7,3.13,0.71,4.98-4.55c1.71-4.84,3.84-10.39,3.84-10.39h6.12c0,0-6.97,17.5-7.68,19.07c2.13-0.57,4.98,1,4.7,1.99
		c-1,2.85-1.57-1.57-5.69-0.28c-2.28,5.41-7.26,10.25-11.24,9.68c-5.27-0.71-2.13-7.83,6.55-10.25l0.71-2.13
		c-4.55,3.7-8.82,1.42-7.83-2.99c-3.7,4.55-8.11,5.27-10.82,4.98c-2.13,0.28-3.98-0.43-4.84-1.99c-1.42,3.7-3.42,8.68-3.42,8.68
		h-5.83l2.99-7.54c-2.42,1.42-4.84,1.57-6.83,1.57c-3.7,1-6.12-1.57-6.69-3.27c-4.27,5.69-8.97,3.56-9.68,0.14
		c-1.85,1.71-3.7,3.42-5.55,3.13c-4.41-0.14-3.27-6.69-2.56-8.82c1.99-5.83,4.13-7.97,0.14-8.11c-0.71,0-5.55,18.5-14.23,19.5
		c-8.11,0.57-4.98-5.69-3.7-9.39c2.13-5.98,4.41-8.97,3.27-11.1c-0.85-1.85-5.83,1.71-7.26,5.55c-1.99,4.84-5.98,14.94-5.98,14.94
		l-7.54,0.28c0,0,6.26-15.8,12.38-31.88c1.99-5.12-1.14-5.27-3.42-5.12c-1.99,0.14-1.28-1.57,0.28-1.85
		c7.26-0.57,9.82-0.28,10.82,0.28c1.42,1,1.42,2.99,1.14,3.27c-1.42,3.56-3.84,9.68-4.13,10.67c-1.14,3.27,1.14,0.28,1.71-0.57
		c0.71-0.71,5.27-5.83,6.26-7.26c0.85-1.14,5.12-5.41,7.97-5.41l18.93,0c-0.71,0.85-1.14,1.99-1.14,3.27c0,1.28,0.43,2.28,1.28,3.27
		c-11.81,0-21.2,0-21.77,0c-1.57,0-4.84,1.85-7.26,4.84c-2.13,2.7,0.57,1.71,0.57,1.71c4.27-0.43,8.11-1.42,1.42,13.23
		c-6.4,14.09,3.13,7.54,8.82-9.53c0.14-0.57-1.42-1.28-1.57-2.56c0-1.57-0.43-3.13,2.13-3.13c2.56,0,1.71,2.56,3.84,3.13
		c4.55,1.42,6.97,0,4.55,5.83c-2.13,5.27-4.7,11.95-1.71,11.24c1.42-0.43,2.13-1.42,2.7-2.42c3.13-8.25,5.69-14.8,5.69-14.8h5.69
		c0,0-2.13,5.41-6.26,15.8c-1.42,3.56,1.57,1.57,3.7-0.71c0.14-1.99,1.57-2.7,1.99-2.85c2.28-3.13,9.68-13.38,9.68-13.38
		s0.43,0.28,0,1.14c-0.57,0.85,0.57,5.69,1.14,7.26c0.71,2.42,1.99,8.54-1.42,11.38c-0.57,0.57-1.28,1-1.85,1.28
		c1.99-0.43,3.7-1.14,5.12-2.28l6.83-17.65h5.69c0,0-0.28,0.57-0.57,1.42c1.71-1.28,3.7-1.99,5.27-1.57c1.57,0.57,6.83,1,1,12.95
		C112.8,55.78,111.23,57.63,109.67,58.76L109.67,58.76z M85.48,52.22c2.85,1.42,1.71,5.41-0.28,5.98c-0.85,0.57,2.99,2.56,4.7-1.42
		c1.71-3.98-0.57-7.97-0.85-8.68C88.46,48.66,87.18,50.08,85.48,52.22L85.48,52.22z M106.68,45.53c-0.43,0.71-3.42,8.11-3.42,8.11
		c-0.85,2.13,0.43,3.13,1.28,3.27c1.85,0.43,3.7-1,5.83-6.26C113.51,42.4,107.68,43.54,106.68,45.53L106.68,45.53z M88.75,25.75
		c20.78,0,45.97,0,47.1,0.14c3.27,0,4.84-1.57,5.41-2.13c0.57-0.43,1.28-0.43,1.28,0.28c0,0.14-3.56,8.4-8.54,8.4
		c-2.99,0-25.62,0-45.25,0c0.71-1,1.14-1.99,1.14-3.27C89.89,27.88,89.46,26.75,88.75,25.75L88.75,25.75z"/>
	<path class="st1" d="M42.78,78.55h0.57c1.71,0,2.99,1,2.99,2.99c0,1.99-1.42,2.85-2.99,2.85h-0.57V78.55L42.78,78.55z M40.08,86.66
		h3.84c2.85,0,5.27-2.28,5.27-5.12c0-2.99-2.42-5.41-5.27-5.41h-3.84V86.66L40.08,86.66z"/>
</g>
</svg>
