<?xml version="1.0" encoding="UTF-8"?><svg id="_레이어_2" xmlns="http://www.w3.org/2000/svg" viewBox="0 0 235.22 228.41"><defs><style>.cls-1{fill:#fff;}.cls-2{fill:#00a5b9;}.cls-3{fill:#fdcd00;}</style></defs><g id="_레이어_1-2"><g><path class="cls-3" d="M232.55,190.21c-2.58-5.38-4.97-5.55-8.34-10.13-6.62-8.99-5.99-20.02-4.6-40,.86-12.29,2.14-12.7,2.44-22.63,.2-6.5,.46-17.23-2.11-30.44,0,0-3.49-17.94-11.79-33.31C194.87,29.12,156.15,0,110.75,0,49.29-.04-.54,50.77,.03,112.93c-1.83,73.06,70.52,127.27,137.49,108.02,10.53-3.13,20.63-6.13,30.91-14.28,4.84-3.85,8.05-7.51,11.04-6.42,3.86,1.41,1.94,8.76,8.04,16.95,.81,1.08,3.92,5.1,9.47,8,8.36,4.73,19.85,4.55,28.54-2.61,12.65-10.42,10.48-25.74,7.03-32.37Z"/><path class="cls-1" d="M114.76,67.83c-2.29-15.75-8.97-27.15-16.85-27.15-7.28,0-13.53,9.72-16.25,23.61,1.7-3.45,3.96-5.57,6.44-5.57,5.27,0,9.54,9.45,9.54,21.11s-4.27,21.11-9.54,21.11c-2.49,0-4.74-2.12-6.44-5.57,2.72,13.89,8.97,23.61,16.25,23.61,7.88,0,14.56-11.4,16.85-27.15-.55-3.78-.85-7.81-.85-12s.3-8.22,.85-12Z"/><path class="cls-2" d="M81.66,64.29c-1.9,3.86-3.1,9.38-3.1,15.54s1.2,11.68,3.1,15.54c-.93-4.76-1.45-10.02-1.45-15.54s.52-10.77,1.45-15.54Z"/><path class="cls-2" d="M88.11,100.94c5.27,0,9.54-9.45,9.54-21.11s-4.27-21.11-9.54-21.11c-2.49,0-4.74,2.12-6.44,5.57-.93,4.76-1.45,10.02-1.45,15.54s.52,10.77,1.45,15.54c1.7,3.45,3.96,5.57,6.44,5.57Z"/><path class="cls-1" d="M131.62,40.68c-7.88,0-14.56,11.4-16.85,27.15,.11,.74,.21,1.48,.3,2.24,1.59-6.74,4.78-11.35,8.46-11.35,5.27,0,9.54,9.45,9.54,21.11s-4.27,21.11-9.54,21.11c-3.68,0-6.86-4.61-8.46-11.35-.09,.76-.19,1.5-.3,2.24,2.29,15.75,8.97,27.15,16.85,27.15,9.78,0,17.7-17.53,17.7-39.15s-7.93-39.15-17.7-39.15Z"/><path class="cls-1" d="M113.97,79.83c0-3.52,.4-6.84,1.09-9.76-.09-.76-.19-1.5-.3-2.24-.55,3.78-.85,7.81-.85,12s.3,8.22,.85,12c.11-.74,.21-1.48,.3-2.24-.69-2.92-1.09-6.24-1.09-9.76Z"/><path class="cls-2" d="M115.06,89.59c1.59,6.74,4.78,11.35,8.46,11.35,5.27,0,9.54-9.45,9.54-21.11s-4.27-21.11-9.54-21.11c-3.68,0-6.86,4.61-8.46,11.35,.36,3.12,.55,6.39,.55,9.76s-.19,6.64-.55,9.76Z"/><path class="cls-2" d="M115.06,89.59c.36-3.12,.55-6.39,.55-9.76s-.19-6.64-.55-9.76c-.69,2.92-1.09,6.24-1.09,9.76s.4,6.84,1.09,9.76Z"/></g></g></svg>