<svg xmlns="http://www.w3.org/2000/svg" xmlns:xlink="http://www.w3.org/1999/xlink" viewBox="0 0 222.38 365.22"><defs><style>.cls-1{fill:url(#Degradado_sin_nombre_552);}.cls-2{fill:#14233f;}.cls-3,.cls-8{fill:#fff;}.cls-3,.cls-4{fill-rule:evenodd;}.cls-5{fill:#334b72;}.cls-6{fill:none;stroke:red;stroke-miterlimit:10;}.cls-7{fill:red;}</style><linearGradient id="Degradado_sin_nombre_552" x1="111.19" y1="365.22" x2="111.19" gradientUnits="userSpaceOnUse"><stop offset="0" stop-color="#f6f7eb"/><stop offset="1" stop-color="#f9f9f7"/></linearGradient></defs><g id="Layer_2" data-name="Layer 2"><g id="Objects"><polygon class="cls-1" points="218.1 0 213.82 8.55 209.55 0 205.27 8.55 200.99 0 196.72 8.55 192.44 0 188.16 8.55 183.89 0 179.61 8.55 175.34 0 171.06 8.55 166.78 0 162.51 8.55 158.23 0 153.95 8.55 149.68 0 145.4 8.55 141.12 0 136.85 8.55 132.57 0 128.29 8.55 124.02 0 119.74 8.55 115.47 0 111.19 8.55 106.91 0 102.64 8.55 98.36 0 94.08 8.55 89.81 0 85.53 8.55 81.25 0 76.98 8.55 72.7 0 68.42 8.55 64.15 0 59.87 8.55 55.59 0 51.32 8.55 47.04 0 42.77 8.55 38.49 0 34.21 8.55 29.93 0 25.66 8.55 21.38 0 17.11 8.55 12.83 0 8.55 8.55 4.28 0 0 8.55 0 356.67 4.28 365.22 8.55 356.67 12.83 365.22 17.11 356.67 21.38 365.22 25.66 356.67 29.93 365.22 34.21 356.67 38.49 365.22 42.77 356.67 47.04 365.22 51.32 356.67 55.59 365.22 59.87 356.67 64.15 365.22 68.42 356.67 72.7 365.22 76.98 356.67 81.25 365.22 85.53 356.67 89.81 365.22 94.08 356.67 98.36 365.22 102.64 356.67 106.91 365.22 111.19 356.67 115.47 365.22 119.74 356.67 124.02 365.22 128.29 356.67 132.57 365.22 136.85 356.67 141.12 365.22 145.4 356.67 149.68 365.22 153.95 356.67 158.23 365.22 162.51 356.67 166.78 365.22 171.06 356.67 175.34 365.22 179.61 356.67 183.89 365.22 188.16 356.67 192.44 365.22 196.72 356.67 200.99 365.22 205.27 356.67 209.55 365.22 213.82 356.67 218.1 365.22 222.38 356.67 222.38 8.55 218.1 0"/><path class="cls-2" d="M15.32,53a.59.59,0,0,1,.39.17.56.56,0,0,1,.14.43.61.61,0,0,1-.14.42.53.53,0,0,1-.39.15A.52.52,0,0,1,14.9,54a.87.87,0,0,1-.16-.59,2.15,2.15,0,0,1,.26-1,1.68,1.68,0,0,1,.81-.69l.09.2a1.31,1.31,0,0,0-.51.42,1.18,1.18,0,0,0-.22.57A.14.14,0,0,0,15.32,53Zm1.5,0a.64.64,0,0,1,.39.17.6.6,0,0,1,.14.43.57.57,0,0,1-.15.42.49.49,0,0,1-.38.15.54.54,0,0,1-.43-.19.92.92,0,0,1-.16-.59,2.05,2.05,0,0,1,.27-1.05,1.73,1.73,0,0,1,.81-.69l.09.2a1.18,1.18,0,0,0-.51.42,1.09,1.09,0,0,0-.22.57C16.66,53,16.71,53,16.82,53Z"/><path class="cls-2" d="M20,56.53V56h2.9c.45,0,.88,0,1.29,0s.8,0,1.16-.09c0-.44.06-.87.08-1.3s0-.84.05-1.24H20.25v-.57h5.82c0,.54,0,1.1-.06,1.69s-.09,1.18-.15,1.76-.13,1.17-.21,1.74-.16,1.12-.26,1.64h2v.55H19v-.55h5.92c.09-.49.17-1,.25-1.55s.14-1.1.2-1.67c-.38,0-.79.1-1.22.13s-.88.05-1.36.05Z"/><path class="cls-2" d="M30,56.22v2.62h1.31a16.13,16.13,0,0,0,2.19-.13,16.25,16.25,0,0,0,1.75-.36v.54a12.34,12.34,0,0,1-1.83.37,16.75,16.75,0,0,1-2.25.13H29.38V55.67H33V53.21H29.36v-.55h4.16v3.56Zm5.78,5.64v-10h.58v10Z"/><path class="cls-2" d="M38.67,59.73h8.41v.56H38.67Zm.62-2.53a5.13,5.13,0,0,0,1.53-.78,4.85,4.85,0,0,0,1.09-1.13,4.45,4.45,0,0,0,.62-1.39,5.31,5.31,0,0,0,.16-1.55h.63a7.17,7.17,0,0,1-.15,1.49A4.6,4.6,0,0,0,43.75,55a5.83,5.83,0,0,0,.83.95,5.22,5.22,0,0,0,1,.71,5.08,5.08,0,0,0,1,.47l-.32.56a5.14,5.14,0,0,1-1-.48,5.52,5.52,0,0,1-.91-.7,6,6,0,0,1-.8-.86,5.47,5.47,0,0,1-.62-1,5.22,5.22,0,0,1-1.27,1.87,6.28,6.28,0,0,1-2,1.25Z"/><path class="cls-2" d="M49.59,53.76h.58l.1,4.94h2.12l.1-4.94h.58L53,58.67c.33,0,.65-.06,1-.11a5.9,5.9,0,0,0,.92-.23v.52a6.09,6.09,0,0,1-1.38.31,13.17,13.17,0,0,1-1.55.09H48.54V58.7h1.15Zm4.33-.46H48.75v-.55h5.17Zm1.54,8.56v-10H56v10Z"/><path class="cls-2" d="M59.46,56.53V56h2.91c.45,0,.87,0,1.29,0s.79,0,1.15-.09l.09-1.3c0-.42,0-.84,0-1.24H59.7v-.57h5.82c0,.54,0,1.1-.07,1.69s-.08,1.18-.14,1.76-.13,1.17-.21,1.74-.17,1.12-.26,1.64h2v.55H58.4v-.55h5.91c.1-.49.18-1,.26-1.55s.14-1.1.19-1.67c-.38,0-.78.1-1.21.13s-.89.05-1.36.05Z"/><path class="cls-2" d="M69.42,54.9v1.67h1.29a15.76,15.76,0,0,0,2.18-.14,12.51,12.51,0,0,0,1.75-.36v.53a13,13,0,0,1-1.9.38,17.2,17.2,0,0,1-2.17.14H68.86V54.35H72.4V52.84H68.83v-.55H73V54.9Zm6.33,3.41V61.7H70.22V58.31Zm-.56,2.84V58.86h-4.4v2.29Zm0-3.5V51.86h.57v5.79Z"/><path class="cls-2" d="M78.12,59.77h8.41v.55H78.12ZM85.31,55a2.82,2.82,0,0,1-.19,1,2.32,2.32,0,0,1-.57.85,2.89,2.89,0,0,1-.93.58,3.67,3.67,0,0,1-1.29.21A3.63,3.63,0,0,1,81,57.51a2.78,2.78,0,0,1-.93-.58,2.45,2.45,0,0,1-.57-.85,3,3,0,0,1-.19-1,3,3,0,0,1,.19-1,2.49,2.49,0,0,1,.57-.86,2.7,2.7,0,0,1,.93-.57,3.42,3.42,0,0,1,1.29-.22,3.45,3.45,0,0,1,1.29.22,2.7,2.7,0,0,1,.93.57,2.35,2.35,0,0,1,.57.86A2.75,2.75,0,0,1,85.31,55Zm-.57,0a2.27,2.27,0,0,0-.13-.77,1.74,1.74,0,0,0-.41-.69,2.22,2.22,0,0,0-.75-.49,2.88,2.88,0,0,0-1.12-.19,2.8,2.8,0,0,0-1.11.19,2,2,0,0,0-.75.49,1.89,1.89,0,0,0-.42.69,2.27,2.27,0,0,0-.13.77,2.35,2.35,0,0,0,.13.77A1.95,1.95,0,0,0,81.22,57a2.8,2.8,0,0,0,1.11.19A2.88,2.88,0,0,0,83.45,57a2.08,2.08,0,0,0,.75-.49,1.77,1.77,0,0,0,.41-.68A2.35,2.35,0,0,0,84.74,55Z"/><path class="cls-2" d="M95.25,57.94H92.47v2h3.92v.55H88v-.55h3.89v-2H89.38V55h5V53.19h-5v-.57h5.53v2.91H90v1.86h5.29Z"/><path class="cls-2" d="M101.51,56.26V52.34h4.11v.55h-3.54v2.82h1.44a17,17,0,0,0,2-.11,15.46,15.46,0,0,0,1.53-.26v.53c-.22.06-.47.11-.76.16s-.59.09-.91.12-.64.06-1,.08l-1,0Zm6.79,4.94v.55h-5.71V59.3h4.94V58h-4.94v-.55h5.5v2.4h-4.94V61.2ZM109.6,54v.58h-1.51v2.24h-.56v-5h.56V54Z"/><path class="cls-2" d="M114.24,55.17h.6V56.6h4.59v.55h-8.62V56.6h3.43Zm-1.95-3H118c0,.67,0,1.31-.11,1.94s-.13,1.23-.22,1.81h-.56c0-.25.08-.52.12-.79s.06-.56.1-.83a11.91,11.91,0,0,1-1.26.13c-.44,0-.91,0-1.4,0h-2.5v-.55h2.68c.46,0,.91,0,1.34,0s.82,0,1.19-.08l0-.55c0-.18,0-.36,0-.54h-5.1ZM118,61.7h-5.7V58.34H118Zm-.56-.55V58.89h-4.58v2.26Z"/><path class="cls-2" d="M126.1,53.83h-5.34v-.55h5.34Zm-4.76,2.45a1.85,1.85,0,0,1,.13-.7,1.83,1.83,0,0,1,1-1,2.61,2.61,0,0,1,.92-.15,2.52,2.52,0,0,1,.91.15A1.69,1.69,0,0,1,125,55a1.79,1.79,0,0,1,.39.59,1.85,1.85,0,0,1,.13.7,1.89,1.89,0,0,1-.13.7,1.69,1.69,0,0,1-1,1,2.52,2.52,0,0,1-.91.15,2.61,2.61,0,0,1-.92-.15,1.79,1.79,0,0,1-.64-.4,1.67,1.67,0,0,1-.4-.59A1.89,1.89,0,0,1,121.34,56.28Zm.52,0a1.36,1.36,0,0,0,.09.48,1.22,1.22,0,0,0,.29.42,1.39,1.39,0,0,0,.49.29,2.07,2.07,0,0,0,1.39,0,1.39,1.39,0,0,0,.49-.29,1.25,1.25,0,0,0,.3-.42,1.37,1.37,0,0,0,.1-.48,1.28,1.28,0,0,0-.1-.47,1.35,1.35,0,0,0-.3-.42,1.39,1.39,0,0,0-.49-.29,2.07,2.07,0,0,0-1.39,0,1.39,1.39,0,0,0-.49.29,1.32,1.32,0,0,0-.29.42A1.27,1.27,0,0,0,121.86,56.28Zm3-3.77H122v-.58h2.83ZM128,61.1v.55h-5.44V59.19h.56V61.1Zm1.36-5.83v.58h-1.51v3.71h-.55v-7.7h.55v3.41Z"/><path class="cls-2" d="M133.48,59.21a7.17,7.17,0,0,0,1.14-1.07,6.07,6.07,0,0,0,.9-1.44,7.39,7.39,0,0,0,.56-1.86,10.46,10.46,0,0,0,.13-2.37h.6c0,.47,0,.91,0,1.32s-.09.82-.16,1.21a7.9,7.9,0,0,0,1.08,2.2,6.92,6.92,0,0,0,1.68,1.73l-.44.47a7.74,7.74,0,0,1-1.45-1.51,8.69,8.69,0,0,1-1.08-2,7.56,7.56,0,0,1-1,2.15,7,7,0,0,1-1.51,1.62Zm9-3.52v.58h-1.64v5.59h-.55v-10h.55v3.83Z"/><path class="cls-2" d="M144.69,55v1.74H146a16.59,16.59,0,0,0,2.13-.12,10.63,10.63,0,0,0,1.63-.33v.55a9.71,9.71,0,0,1-1.78.34,17.59,17.59,0,0,1-2.11.11h-1.72V54.48h3.37V52.84H144.1v-.55h4V55ZM148,61.92a5.08,5.08,0,0,1-1.23-.14,3.32,3.32,0,0,1-.91-.39,1.71,1.71,0,0,1-.57-.6,1.37,1.37,0,0,1-.2-.74,1.35,1.35,0,0,1,.2-.74,1.75,1.75,0,0,1,.57-.58,2.78,2.78,0,0,1,.92-.39A5,5,0,0,1,148,58.2a5.11,5.11,0,0,1,1.22.14,2.81,2.81,0,0,1,.91.39,1.89,1.89,0,0,1,.58.58,1.43,1.43,0,0,1,.19.74,1.46,1.46,0,0,1-.19.74,1.84,1.84,0,0,1-.58.6,3.32,3.32,0,0,1-.91.39A5.05,5.05,0,0,1,148,61.92Zm0-.55a4.34,4.34,0,0,0,1-.1,2.4,2.4,0,0,0,.72-.29,1.26,1.26,0,0,0,.44-.41.94.94,0,0,0,.15-.5,1,1,0,0,0-.15-.51,1.24,1.24,0,0,0-.43-.42,2.4,2.4,0,0,0-.72-.28,4.74,4.74,0,0,0-2,0,2.64,2.64,0,0,0-.72.28,1.33,1.33,0,0,0-.43.42,1,1,0,0,0-.14.51.93.93,0,0,0,.14.5,1.35,1.35,0,0,0,.44.41,2.52,2.52,0,0,0,.72.29A4.37,4.37,0,0,0,148,61.37Zm4.28-7.06v.57h-1.51V58h-.55v-6.1h.55v2.45Z"/><path class="cls-2" d="M153.46,56.21h8.62v.55h-8.62Zm7.32-2.56a1.41,1.41,0,0,1-.75,1.24,5.53,5.53,0,0,1-4.46,0,1.41,1.41,0,0,1-.75-1.24,1.35,1.35,0,0,1,.19-.71,1.58,1.58,0,0,1,.56-.56,3.06,3.06,0,0,1,.93-.37,5.6,5.6,0,0,1,1.3-.13,5.54,5.54,0,0,1,1.3.13,3,3,0,0,1,.93.37,1.58,1.58,0,0,1,.56.56A1.45,1.45,0,0,1,160.78,53.65Zm.11,8.16h-6V59.55h5.17V58.41h-5.17v-.55h5.73v2.2h-5.17v1.22h5.42Zm-.68-8.16a.88.88,0,0,0-.14-.45,1.13,1.13,0,0,0-.44-.39,2.89,2.89,0,0,0-.76-.28,5.94,5.94,0,0,0-2.17,0,2.81,2.81,0,0,0-.75.28,1.1,1.1,0,0,0-.43.39.86.86,0,0,0-.13.45,1,1,0,0,0,.56.83,3.84,3.84,0,0,0,1.84.33,3.89,3.89,0,0,0,1.84-.33A1,1,0,0,0,160.21,53.65Z"/><path class="cls-2" d="M168.94,59h-1.87V52.63h.57v5.78h1.44a12.83,12.83,0,0,0,1.93-.13,9.7,9.7,0,0,0,1.47-.32v.56a7.16,7.16,0,0,1-.74.19c-.28.06-.57.11-.88.15s-.63.08-1,.1S169.26,59,168.94,59Zm6.32-3.47v.58h-1.69v5.75H173v-10h.56v3.67Z"/><path class="cls-2" d="M176.49,58.15V57.6h8.41v.55h-3.85V61.8h-.58V58.15Zm7.33-2.2H178V52.11h.58v3.27h5.2Z"/><path class="cls-2" d="M186.16,59.33a7.45,7.45,0,0,0,1-1.21,7.18,7.18,0,0,0,.76-1.49,8.22,8.22,0,0,0,.44-1.82,12,12,0,0,0,.07-2.2H189c0,.4,0,.79,0,1.17s0,.76-.1,1.12a8.8,8.8,0,0,0,.76,2.2A7.15,7.15,0,0,0,191,59l-.46.4a8.68,8.68,0,0,1-1.12-1.59,8.86,8.86,0,0,1-.74-1.83,8.83,8.83,0,0,1-.79,2,7.62,7.62,0,0,1-1.28,1.72Zm5.42-4V52h.53V61.6h-.53V55.83H190v-.55ZM194,51.86v10h-.55v-10Z"/><path class="cls-2" d="M202,57.85h.56v2.09h2v.55h-8.4v-.55h2.09V57.85h.57v2.09H202ZM203.4,55a2.71,2.71,0,0,1-.2,1,2.61,2.61,0,0,1-.59.84,2.65,2.65,0,0,1-.94.55,3.64,3.64,0,0,1-1.27.2,3.53,3.53,0,0,1-1.25-.2,2.52,2.52,0,0,1-.93-.55,2.44,2.44,0,0,1-.58-.84,2.54,2.54,0,0,1-.21-1,2.58,2.58,0,0,1,.21-1,2.47,2.47,0,0,1,.58-.85,2.7,2.7,0,0,1,.93-.57,3.77,3.77,0,0,1,1.25-.2,3.89,3.89,0,0,1,1.27.2,2.85,2.85,0,0,1,.94.57,2.65,2.65,0,0,1,.59.85A2.75,2.75,0,0,1,203.4,55Zm-.57,0a2.18,2.18,0,0,0-.15-.8,2,2,0,0,0-.46-.68,2.37,2.37,0,0,0-.76-.46,3.33,3.33,0,0,0-2.1,0,2.32,2.32,0,0,0-.75.46,1.92,1.92,0,0,0-.45.68,2,2,0,0,0-.16.8,1.89,1.89,0,0,0,.16.79,1.85,1.85,0,0,0,.45.66,2,2,0,0,0,.75.46,3.33,3.33,0,0,0,2.1,0,2.06,2.06,0,0,0,.76-.46,1.88,1.88,0,0,0,.46-.66A2.06,2.06,0,0,0,202.83,55Z"/><path class="cls-2" d="M206.81,53.05a.59.59,0,0,1-.39-.17.6.6,0,0,1-.14-.43.61.61,0,0,1,.14-.42.53.53,0,0,1,.39-.15.52.52,0,0,1,.42.19.87.87,0,0,1,.16.59,2.05,2.05,0,0,1-.27,1.05,1.66,1.66,0,0,1-.8.69l-.09-.2a1.31,1.31,0,0,0,.51-.42,1.18,1.18,0,0,0,.22-.57A.14.14,0,0,0,206.81,53.05Zm1.49,0a.59.59,0,0,1-.39-.17.6.6,0,0,1-.14-.43.57.57,0,0,1,.15-.42.49.49,0,0,1,.38-.15.52.52,0,0,1,.42.19.87.87,0,0,1,.17.59,2.05,2.05,0,0,1-.27,1,1.68,1.68,0,0,1-.81.69l-.09-.2a1.24,1.24,0,0,0,.51-.42,1.09,1.09,0,0,0,.22-.57C208.46,53.12,208.41,53.06,208.3,53.06Z"/><path class="cls-2" d="M15,68.51a8.82,8.82,0,0,1,.41-1.38,9.09,9.09,0,0,1,.62-1.25,7.24,7.24,0,0,1,.75-1.07h.35a8.83,8.83,0,0,0-.68,1.2A10.66,10.66,0,0,0,16,67.29a8,8,0,0,0-.33,1.32,8.19,8.19,0,0,0,.33,4,12,12,0,0,0,.52,1.29A8.61,8.61,0,0,0,17.18,75h-.36A7.14,7.14,0,0,1,16.07,74a9.21,9.21,0,0,1-.62-1.26A8.69,8.69,0,0,1,15,71.35a6.78,6.78,0,0,1-.15-1.42A6.92,6.92,0,0,1,15,68.51Z"/><path class="cls-2" d="M18.47,71v-.55h8.41V71H23V74.8h-.57V71Zm1.44-5.79h3.82l1.31,0a.14.14,0,0,1,.14.08.18.18,0,0,1,0,.16,4.13,4.13,0,0,1-.7,1.13,6.38,6.38,0,0,1-1.13,1,11.3,11.3,0,0,0,1.48.73,10.11,10.11,0,0,0,1.55.46l-.29.57c-.26-.07-.54-.15-.82-.25s-.57-.21-.86-.33-.55-.26-.81-.41-.5-.3-.72-.45a11,11,0,0,1-1.64.85,12.82,12.82,0,0,1-1.93.63l-.24-.55a10.49,10.49,0,0,0,1.88-.56,10.86,10.86,0,0,0,1.6-.82,7.65,7.65,0,0,0,1.2-.9,2.89,2.89,0,0,0,.65-.84l-1.07,0H19.91Z"/><path class="cls-2" d="M30.56,69.93a6.78,6.78,0,0,1-.15,1.42A8.69,8.69,0,0,1,30,72.72,9.21,9.21,0,0,1,29.38,74,7.14,7.14,0,0,1,28.63,75h-.36A11.33,11.33,0,0,0,29,73.86a12,12,0,0,0,.52-1.29,7.74,7.74,0,0,0,.33-4,8,8,0,0,0-.33-1.32A10.66,10.66,0,0,0,29,66a11.64,11.64,0,0,0-.68-1.2h.35a7.24,7.24,0,0,1,.75,1.07A9.09,9.09,0,0,1,30,67.13a8.82,8.82,0,0,1,.41,1.38A6.92,6.92,0,0,1,30.56,69.93Z"/><path class="cls-2" d="M34.21,65.69v-.57h5.55v2.33h-5v1.26H40v.55h-2.7v1.23h4V71H32.7v-.55h4V69.26H34.21V66.9h5V65.69Zm-.62,8.64A6.67,6.67,0,0,0,35,73.9,4.1,4.1,0,0,0,36,73.28a2.59,2.59,0,0,0,.66-.8,2.06,2.06,0,0,0,.23-1h.6a2.39,2.39,0,0,1-.16.86,2.27,2.27,0,0,0,.53.65,4.12,4.12,0,0,0,.77.56,5.19,5.19,0,0,0,1,.44,6.24,6.24,0,0,0,1.07.29l-.3.51a5.77,5.77,0,0,1-2-.74,3.83,3.83,0,0,1-1.31-1.24,3.76,3.76,0,0,1-1.3,1.23,6.52,6.52,0,0,1-1.92.75Z"/><path class="cls-2" d="M43.55,72.23h-.92V65.75h3.11v.55H43.18v5.38h.5a9.82,9.82,0,0,0,1.64-.12,9.11,9.11,0,0,0,1.21-.28v.53a5.47,5.47,0,0,1-.63.18l-.75.13-.8.08Zm3.75-3.72V65h.54V74.6H47.3V69.06H45.24v-.55Zm2.52-3.65v10h-.55v-10Z"/><path class="cls-2" d="M57.58,66.82a2.3,2.3,0,0,0-.83-.61A2.8,2.8,0,0,0,55.57,66a3.5,3.5,0,0,0-1.27.23,2.69,2.69,0,0,0-1,.68A3.25,3.25,0,0,0,52.61,68a4.77,4.77,0,0,0-.24,1.58,5.1,5.1,0,0,0,.26,1.72,3.13,3.13,0,0,0,.71,1.15,2.65,2.65,0,0,0,1,.65,3.53,3.53,0,0,0,1.2.21,2.53,2.53,0,0,0,1-.18,2.18,2.18,0,0,0,.65-.44V70.14h-2v-.52h2.52v3.5c-.19.12-.37.23-.54.32a2.42,2.42,0,0,1-.52.23,3.56,3.56,0,0,1-.56.15,4.57,4.57,0,0,1-.67.05A3.92,3.92,0,0,1,54,73.6a3.26,3.26,0,0,1-1.17-.8,3.85,3.85,0,0,1-.77-1.33,5.47,5.47,0,0,1-.28-1.84,5.21,5.21,0,0,1,.29-1.79,3.76,3.76,0,0,1,.78-1.32,3.44,3.44,0,0,1,1.18-.82,3.72,3.72,0,0,1,1.46-.28,4.08,4.08,0,0,1,1.25.16,2.85,2.85,0,0,1,.93.52v.67s0,.07,0,.07A.06.06,0,0,1,57.58,66.82Z"/><path class="cls-2" d="M62.76,70.16h0l1.91,3.61H64L62.24,70.3H60.41v3.48h-.56V65.53h2.08a2.57,2.57,0,0,1,1.88.63,2.21,2.21,0,0,1,.64,1.68A2.43,2.43,0,0,1,64,69.27,2.28,2.28,0,0,1,62.76,70.16Zm1.13-2.31a2,2,0,0,0-.14-.81,1.46,1.46,0,0,0-.4-.56,1.82,1.82,0,0,0-.62-.32,2.68,2.68,0,0,0-.78-.1H60.39v3.71h1.45a2.2,2.2,0,0,0,1.49-.47A1.77,1.77,0,0,0,63.89,67.85Z"/><path class="cls-2" d="M66.1,73.1v-.66s0-.06,0-.07,0,0,.07,0a2.42,2.42,0,0,0,.84.67,2.73,2.73,0,0,0,1.15.25,2,2,0,0,0,1.4-.45,1.6,1.6,0,0,0,.52-1.27A1.54,1.54,0,0,0,70,71a1.5,1.5,0,0,0-.33-.46,2.33,2.33,0,0,0-.49-.37c-.19-.1-.39-.21-.61-.31l-.73-.34a6.75,6.75,0,0,1-.66-.35,2.3,2.3,0,0,1-.53-.44,1.8,1.8,0,0,1-.34-.57,2.2,2.2,0,0,1-.12-.76,2,2,0,0,1,.17-.87,1.75,1.75,0,0,1,.5-.61,2.16,2.16,0,0,1,.74-.38,3.41,3.41,0,0,1,.92-.12,3.27,3.27,0,0,1,1,.15,2.59,2.59,0,0,1,.87.46v.61a.07.07,0,0,1,0,.07s0,0-.07,0a3.34,3.34,0,0,0-.76-.53,2,2,0,0,0-.93-.22,2.41,2.41,0,0,0-.72.1,1.67,1.67,0,0,0-.57.27,1.3,1.3,0,0,0-.39.45,1.38,1.38,0,0,0-.14.62,1.31,1.31,0,0,0,.12.58,1.41,1.41,0,0,0,.33.44,2.29,2.29,0,0,0,.46.34,5.28,5.28,0,0,0,.53.27l.71.32a3.67,3.67,0,0,1,1.37,1,2,2,0,0,1,.46,1.31,2.42,2.42,0,0,1-.18,1,2.13,2.13,0,0,1-.51.74,2.24,2.24,0,0,1-.8.46,3.12,3.12,0,0,1-1,.17A3.16,3.16,0,0,1,67,73.67,2.16,2.16,0,0,1,66.1,73.1Z"/><path class="cls-2" d="M75.9,69.53V69h2.91c.44,0,.87,0,1.28,0s.8,0,1.16-.09c0-.44.06-.87.08-1.3s0-.84.06-1.24H76.14v-.57H82c0,.54,0,1.1-.06,1.69s-.09,1.18-.15,1.76-.12,1.17-.2,1.74-.17,1.12-.26,1.64h2v.55H74.83v-.55h5.92c.09-.49.18-1,.25-1.55s.14-1.1.2-1.67c-.38.05-.79.1-1.22.13s-.88,0-1.35,0Z"/><path class="cls-2" d="M85.35,69.22v2.62h1.31a16,16,0,0,0,2.19-.13,16.25,16.25,0,0,0,1.75-.36v.54a11.83,11.83,0,0,1-1.83.37,16.59,16.59,0,0,1-2.24.13H84.78V68.67h3.58V66.21h-3.6v-.55h4.17v3.56Zm5.79,5.64v-10h.58v10Z"/><path class="cls-2" d="M93.6,72.73H102v.56H93.6Zm.62-2.53a5.25,5.25,0,0,0,1.53-.78,4.85,4.85,0,0,0,1.09-1.13,4.7,4.7,0,0,0,.62-1.39,5,5,0,0,0,.15-1.55h.63a6,6,0,0,1-.15,1.49A4.63,4.63,0,0,0,98.68,68a5.78,5.78,0,0,0,.82,1,5,5,0,0,0,1,.71,4.83,4.83,0,0,0,1,.47l-.32.56a5.22,5.22,0,0,1-1-.48,6,6,0,0,1-.91-.7,6.57,6.57,0,0,1-.8-.86,5.47,5.47,0,0,1-.62-1,5.1,5.1,0,0,1-1.27,1.87,6.06,6.06,0,0,1-2,1.25Z"/><path class="cls-2" d="M104,66.76h.58l.09,4.94h2.13l.1-4.94h.57l-.1,4.91c.34,0,.66-.06,1-.11a5.9,5.9,0,0,0,.92-.23v.52a6.09,6.09,0,0,1-1.38.31,13.3,13.3,0,0,1-1.55.09H103V71.7h1.15Zm4.33-.46H103.2v-.55h5.17Zm1.53,8.56v-10h.58v10Z"/><path class="cls-2" d="M113.43,69.53V69h2.91c.44,0,.87,0,1.28,0s.8,0,1.16-.09c0-.44.06-.87.08-1.3s0-.84.06-1.24h-5.25v-.57h5.82c0,.54,0,1.1-.07,1.69s-.08,1.18-.14,1.76-.13,1.17-.21,1.74-.17,1.12-.26,1.64h2v.55h-8.4v-.55h5.91c.09-.49.18-1,.26-1.55s.14-1.1.19-1.67c-.38.05-.78.1-1.22.13s-.88,0-1.35,0Z"/><path class="cls-2" d="M122.91,67.9v1.67h1.29a15.76,15.76,0,0,0,2.18-.14,12.22,12.22,0,0,0,1.75-.36v.53a13,13,0,0,1-1.9.38,17.2,17.2,0,0,1-2.17.14h-1.71V67.35h3.54V65.84h-3.56v-.55h4.13V67.9Zm6.33,3.41V74.7h-5.53V71.31Zm-.56,2.84V71.86h-4.4v2.29Zm0-3.5V64.86h.57v5.79Z"/><path class="cls-2" d="M137.37,73.87a2.94,2.94,0,0,1-1.39-.32,2.88,2.88,0,0,1-1-.87,4.13,4.13,0,0,1-.61-1.34,6.89,6.89,0,0,1-.2-1.7,7,7,0,0,1,.2-1.7,4.07,4.07,0,0,1,.61-1.33,3,3,0,0,1,3.77-.88,2.84,2.84,0,0,1,1,.88,4.24,4.24,0,0,1,.62,1.34,7.32,7.32,0,0,1,0,3.4,4.18,4.18,0,0,1-.62,1.33,2.87,2.87,0,0,1-2.39,1.19Zm0-.55A2.24,2.24,0,0,0,138.5,73a2.41,2.41,0,0,0,.83-.76,3.41,3.41,0,0,0,.51-1.16,6,6,0,0,0,.17-1.46,6.18,6.18,0,0,0-.17-1.47,3.43,3.43,0,0,0-.51-1.18,2.35,2.35,0,0,0-.83-.77,2.46,2.46,0,0,0-2.28,0,2.29,2.29,0,0,0-.81.77,3.62,3.62,0,0,0-.5,1.18,5.7,5.7,0,0,0-.17,1.47,5.57,5.57,0,0,0,.17,1.46,3.6,3.6,0,0,0,.5,1.16,2.35,2.35,0,0,0,.81.76A2.24,2.24,0,0,0,137.36,73.32Z"/><path class="cls-2" d="M145.36,73.87a2.94,2.94,0,0,1-1.39-.32,2.88,2.88,0,0,1-1-.87,4.13,4.13,0,0,1-.61-1.34,6.89,6.89,0,0,1-.2-1.7,7,7,0,0,1,.2-1.7,4.07,4.07,0,0,1,.61-1.33,2.81,2.81,0,0,1,2.39-1.2,2.87,2.87,0,0,1,1.38.32,2.93,2.93,0,0,1,1,.88,4.24,4.24,0,0,1,.62,1.34,7.32,7.32,0,0,1,0,3.4,4.18,4.18,0,0,1-.62,1.33,2.87,2.87,0,0,1-2.39,1.19Zm0-.55a2.24,2.24,0,0,0,1.14-.28,2.41,2.41,0,0,0,.83-.76,3.61,3.61,0,0,0,.51-1.16,6,6,0,0,0,.17-1.46,6.18,6.18,0,0,0-.17-1.47,3.63,3.63,0,0,0-.51-1.18,2.35,2.35,0,0,0-.83-.77,2.24,2.24,0,0,0-1.14-.28,2.22,2.22,0,0,0-1.14.28,2.4,2.4,0,0,0-.82.77,3.61,3.61,0,0,0-.49,1.18,5.7,5.7,0,0,0-.17,1.47,5.57,5.57,0,0,0,.17,1.46,3.59,3.59,0,0,0,.49,1.16,2.47,2.47,0,0,0,.82.76A2.22,2.22,0,0,0,145.35,73.32Z"/><path class="cls-2" d="M150.5,65.33h2.83l1.15,0a4.73,4.73,0,0,1-.38,1.43,6.69,6.69,0,0,1-.77,1.28,6.74,6.74,0,0,0,1,.92,7,7,0,0,0,1.24.81l-.41.51c-.19-.11-.39-.24-.59-.38s-.39-.28-.58-.44-.36-.32-.53-.49a4.15,4.15,0,0,1-.45-.5,8.24,8.24,0,0,1-1.28,1.16,7.71,7.71,0,0,1-1.43.82l-.38-.51a7.87,7.87,0,0,0,1.49-.83,7.21,7.21,0,0,0,1.16-1,6.51,6.51,0,0,0,.8-1.1,4.07,4.07,0,0,0,.41-1.11l-1.08,0H150.5Zm6.83,5.93v3.43H151.8V71.26Zm-.56,2.88V71.81h-4.4v2.33Zm0-6.24h-1.93v-.57h1.93V64.86h.56V70.6h-.56Z"/><path class="cls-2" d="M14.59,80.13v-.44a3.24,3.24,0,0,0,.77-.5,4,4,0,0,0,.69-.68h.69v8.27h-.56V79.2h0a5.18,5.18,0,0,1-.77.6,4.41,4.41,0,0,1-.71.4C14.62,80.23,14.59,80.21,14.59,80.13Z"/><path class="cls-2" d="M22.53,78.35a2,2,0,0,1,1.77,1,6.55,6.55,0,0,1,.63,3.27,10.33,10.33,0,0,1-.16,1.91,4,4,0,0,1-.47,1.31,2,2,0,0,1-.75.76,2.13,2.13,0,0,1-1,.24,2.16,2.16,0,0,1-1-.24,2.18,2.18,0,0,1-.75-.76,4,4,0,0,1-.46-1.31,10.33,10.33,0,0,1-.16-1.91,6.55,6.55,0,0,1,.63-3.27A2,2,0,0,1,22.53,78.35Zm0,.55c-1.21,0-1.82,1.25-1.82,3.76a6.24,6.24,0,0,0,.47,2.78,1.46,1.46,0,0,0,2.69,0,6.24,6.24,0,0,0,.47-2.78C24.34,80.15,23.73,78.9,22.53,78.9Z"/><path class="cls-2" d="M30.85,79.23a2.53,2.53,0,0,0-.59-.3,2.17,2.17,0,0,0-.67-.09,1.82,1.82,0,0,0-1.05.31,2.83,2.83,0,0,0-.78.86,4.74,4.74,0,0,0-.49,1.27,6.91,6.91,0,0,0-.2,1.55h0a1.9,1.9,0,0,1,2-1.43,2,2,0,0,1,.88.2,2.37,2.37,0,0,1,.7.56,2.82,2.82,0,0,1,.46.86,3.38,3.38,0,0,1,.17,1.07,3.73,3.73,0,0,1-.17,1.16,2.41,2.41,0,0,1-.48.88,2,2,0,0,1-.74.56,2.49,2.49,0,0,1-1,.19,2,2,0,0,1-1.09-.29,2.12,2.12,0,0,1-.74-.8,3.75,3.75,0,0,1-.43-1.21A8.3,8.3,0,0,1,26.52,83a8.48,8.48,0,0,1,.17-1.65,5.41,5.41,0,0,1,.55-1.51,3.16,3.16,0,0,1,.94-1.1,2.26,2.26,0,0,1,1.4-.43,2.86,2.86,0,0,1,.75.09,3.07,3.07,0,0,1,.62.24v.52s0,.06,0,.06S30.88,79.25,30.85,79.23Zm-3.71,5a2.55,2.55,0,0,0,.13.84,2.3,2.3,0,0,0,.38.71,1.73,1.73,0,0,0,.56.48,1.58,1.58,0,0,0,.71.17,1.43,1.43,0,0,0,.79-.2,1.82,1.82,0,0,0,.56-.51,2.3,2.3,0,0,0,.32-.71,3.21,3.21,0,0,0,.1-.81,3.41,3.41,0,0,0-.1-.85,2.16,2.16,0,0,0-.32-.72,1.75,1.75,0,0,0-.55-.5,1.49,1.49,0,0,0-.75-.19,1.61,1.61,0,0,0-.78.19,1.82,1.82,0,0,0-.56.51,2.34,2.34,0,0,0-.34.73A4,4,0,0,0,27.14,84.18Z"/><path class="cls-2" d="M37.2,82.11v.55H33.06v-.55Z"/><path class="cls-2" d="M41.43,86.89a2.73,2.73,0,0,1-1-.18,2.21,2.21,0,0,1-1.28-1.19,2.39,2.39,0,0,1-.17-.89,2.49,2.49,0,0,1,.38-1.37,2.07,2.07,0,0,1,1.25-.83v0a2.16,2.16,0,0,1-1.08-.75,1.91,1.91,0,0,1-.38-1.17,2.49,2.49,0,0,1,.14-.83,1.73,1.73,0,0,1,.42-.67,2.17,2.17,0,0,1,.72-.46,3.15,3.15,0,0,1,2,0,2.17,2.17,0,0,1,.72.46,1.73,1.73,0,0,1,.42.67,2.26,2.26,0,0,1,.14.83,1.91,1.91,0,0,1-.38,1.17,2.25,2.25,0,0,1-1.08.75v0a2.07,2.07,0,0,1,1.25.83,2.41,2.41,0,0,1,.38,1.37,2.38,2.38,0,0,1-.16.89,1.93,1.93,0,0,1-.49.71,2.1,2.1,0,0,1-.77.48A2.89,2.89,0,0,1,41.43,86.89Zm0-.47a2.24,2.24,0,0,0,.73-.13,2.18,2.18,0,0,0,.61-.36,1.67,1.67,0,0,0,.42-.59,1.93,1.93,0,0,0,0-1.54,1.91,1.91,0,0,0-1-1,1.83,1.83,0,0,0-.73-.15,1.87,1.87,0,0,0-.73.15,1.91,1.91,0,0,0-1,1,1.93,1.93,0,0,0,0,1.54,1.67,1.67,0,0,0,.42.59,2.18,2.18,0,0,0,.61.36A2.29,2.29,0,0,0,41.43,86.42Zm0-4.31a1.91,1.91,0,0,0,.62-.1,1.76,1.76,0,0,0,.57-.31,1.62,1.62,0,0,0,.41-.51,1.79,1.79,0,0,0,0-1.41,1.69,1.69,0,0,0-.39-.52,1.88,1.88,0,0,0-1.22-.45,1.88,1.88,0,0,0-.66.12,1.84,1.84,0,0,0-.56.33,1.69,1.69,0,0,0-.39.52,1.75,1.75,0,0,0-.14.7,1.46,1.46,0,0,0,.16.71,1.38,1.38,0,0,0,.41.51,1.61,1.61,0,0,0,.56.31A2,2,0,0,0,41.43,82.11Z"/><path class="cls-2" d="M46.11,80.13v-.44a3.29,3.29,0,0,0,.78-.5,4.45,4.45,0,0,0,.69-.68h.68v8.27h-.55V79.2h0a5.76,5.76,0,0,1-.77.6,4.47,4.47,0,0,1-.72.4C46.14,80.23,46.11,80.21,46.11,80.13Z"/><path class="cls-2" d="M56.11,82.11v.55H52v-.55Z"/><path class="cls-2" d="M58.41,79.93a.06.06,0,0,1-.08,0,.07.07,0,0,1,0-.07v-.65a4.32,4.32,0,0,1,.89-.6,2.41,2.41,0,0,1,1.15-.27,2.32,2.32,0,0,1,1.6.52,2,2,0,0,1,.58,1.6,2.26,2.26,0,0,1-.11.69,3.31,3.31,0,0,1-.29.68,6.12,6.12,0,0,1-.47.7l-.62.83-2.27,2.83v0h3.87v.55H58v-.54l2.42-3,.68-1a6.55,6.55,0,0,0,.45-.68,2.69,2.69,0,0,0,.25-.56,2,2,0,0,0,.07-.56,1.75,1.75,0,0,0-.38-1.19,1.51,1.51,0,0,0-1.16-.42,1.92,1.92,0,0,0-1,.27A4.52,4.52,0,0,0,58.41,79.93Z"/><path class="cls-2" d="M64.49,85.4a2.73,2.73,0,0,0,2.1.95,2.12,2.12,0,0,0,.71-.12,1.74,1.74,0,0,0,.59-.35,1.72,1.72,0,0,0,.54-1.32,2,2,0,0,0-.15-.81,1.55,1.55,0,0,0-.42-.58,1.79,1.79,0,0,0-.65-.36,3,3,0,0,0-.82-.11h-.3v-.52h.16a2.82,2.82,0,0,0,.59-.07,2,2,0,0,0,.65-.26,1.67,1.67,0,0,0,.53-.53,1.64,1.64,0,0,0,.22-.88,1.51,1.51,0,0,0-.45-1.15,1.62,1.62,0,0,0-1.18-.43,2.23,2.23,0,0,0-1,.2,3.46,3.46,0,0,0-1,.69s0,0-.08,0a.07.07,0,0,1,0-.07v-.62a1.55,1.55,0,0,1,.36-.28,4.3,4.3,0,0,1,.48-.23,3.62,3.62,0,0,1,.56-.17,2.46,2.46,0,0,1,.6-.07,2.52,2.52,0,0,1,1,.16,2,2,0,0,1,.7.42,1.76,1.76,0,0,1,.43.64,2.36,2.36,0,0,1-.23,2.11,1.68,1.68,0,0,1-1.06.73v0a1.87,1.87,0,0,1,.65.23,1.82,1.82,0,0,1,.52.44,2.07,2.07,0,0,1,.35.64,2.73,2.73,0,0,1,.12.83,2.57,2.57,0,0,1-.15.87,2.25,2.25,0,0,1-.46.74,2.33,2.33,0,0,1-.77.52,2.9,2.9,0,0,1-1.06.19,3.57,3.57,0,0,1-.65-.06,3.62,3.62,0,0,1-.61-.17,3,3,0,0,1-.54-.27,1.9,1.9,0,0,1-.4-.33v-.6s0-.06,0-.07A.07.07,0,0,1,64.49,85.4Z"/><path class="cls-2" d="M73.79,78.51h.7v5.82H75.7v.49H74.49v2H74v-2H70.29v-.47ZM74,79l-.33.7-2.8,4.64v0H74V79Z"/><path class="cls-2" d="M77.31,86a2.23,2.23,0,0,0,.52.22,2.56,2.56,0,0,0,.75.11,2,2,0,0,0,1-.28,2.44,2.44,0,0,0,.8-.8A4.35,4.35,0,0,0,81,84a7.87,7.87,0,0,0,.21-1.63h0a2.52,2.52,0,0,1-.3.56,2.4,2.4,0,0,1-.45.45,2.05,2.05,0,0,1-.59.3,2.36,2.36,0,0,1-.72.11,2.06,2.06,0,0,1-.91-.2,2,2,0,0,1-.69-.57A2.62,2.62,0,0,1,77,82.2a3.71,3.71,0,0,1-.15-1.08A3.75,3.75,0,0,1,77.06,80a2.49,2.49,0,0,1,.48-.88,2.17,2.17,0,0,1,.75-.56,2.4,2.4,0,0,1,.95-.19,2.07,2.07,0,0,1,1.22.34,2.23,2.23,0,0,1,.73.9,4,4,0,0,1,.36,1.24,10.66,10.66,0,0,1,.09,1.38A8.41,8.41,0,0,1,81.47,84a5,5,0,0,1-.53,1.49,3.1,3.1,0,0,1-1,1,2.43,2.43,0,0,1-1.4.39,2.76,2.76,0,0,1-.77-.11,3.38,3.38,0,0,1-.58-.22v-.48C77.23,86,77.26,86,77.31,86ZM81,81a3,3,0,0,0-.12-.85,2.41,2.41,0,0,0-.35-.72A1.85,1.85,0,0,0,80,79a1.46,1.46,0,0,0-.73-.18,1.42,1.42,0,0,0-.78.21,1.7,1.7,0,0,0-.57.53,2.63,2.63,0,0,0-.34.74,3.37,3.37,0,0,0,0,1.67,2,2,0,0,0,.31.71,1.61,1.61,0,0,0,.55.49,1.58,1.58,0,0,0,.78.19,1.61,1.61,0,0,0,.78-.19,1.67,1.67,0,0,0,.55-.51,2.71,2.71,0,0,0,.33-.73A4.17,4.17,0,0,0,81,81Z"/><path class="cls-2" d="M85.57,86.89a2.73,2.73,0,0,1-1-.18,2.14,2.14,0,0,1-.78-.48,2.08,2.08,0,0,1-.5-.71,2.56,2.56,0,0,1,.21-2.26,2.07,2.07,0,0,1,1.25-.83v0a2.23,2.23,0,0,1-1.09-.75,1.9,1.9,0,0,1-.37-1.17,2.26,2.26,0,0,1,.14-.83,1.73,1.73,0,0,1,.42-.67,2.17,2.17,0,0,1,.72-.46,2.83,2.83,0,0,1,1-.17,2.87,2.87,0,0,1,1,.17,2.17,2.17,0,0,1,.72.46,1.86,1.86,0,0,1,.42.67,2.49,2.49,0,0,1,.14.83,1.91,1.91,0,0,1-.38,1.17,2.23,2.23,0,0,1-1.09.75v0a2.06,2.06,0,0,1,1.26.83A2.49,2.49,0,0,1,88,84.63a2.39,2.39,0,0,1-.17.89,2,2,0,0,1-.48.71,2.06,2.06,0,0,1-.78.48A2.8,2.8,0,0,1,85.57,86.89Zm0-.47a2.18,2.18,0,0,0,.72-.13,2.1,2.1,0,0,0,.62-.36,2,2,0,0,0,.42-.59,1.93,1.93,0,0,0,0-1.54,2.07,2.07,0,0,0-.42-.61,1.7,1.7,0,0,0-.62-.4,1.79,1.79,0,0,0-.72-.15,1.83,1.83,0,0,0-.73.15,1.66,1.66,0,0,0-.61.4,1.92,1.92,0,0,0-.43,2.15,1.83,1.83,0,0,0,.43.59,2,2,0,0,0,.61.36A2.24,2.24,0,0,0,85.57,86.42Zm0-4.31a2,2,0,0,0,.62-.1,1.61,1.61,0,0,0,.56-.31,1.49,1.49,0,0,0,.41-.51,1.46,1.46,0,0,0,.16-.71,1.75,1.75,0,0,0-.14-.7,1.69,1.69,0,0,0-.39-.52,1.89,1.89,0,0,0-.57-.33,1.87,1.87,0,0,0-1.87.33,1.43,1.43,0,0,0-.39.52,1.6,1.6,0,0,0-.15.7,1.58,1.58,0,0,0,.16.71,1.62,1.62,0,0,0,.41.51A1.76,1.76,0,0,0,85,82,1.87,1.87,0,0,0,85.57,82.11Z"/><path class="cls-2" d="M94.31,82.57h-2V78.2h.58V82h1.5a11.58,11.58,0,0,0,1.94-.15,9.8,9.8,0,0,0,1.49-.34v.55a7.16,7.16,0,0,1-.74.19c-.28.06-.57.11-.89.15s-.64.08-1,.11S94.62,82.57,94.31,82.57ZM99,84v3.69H93.54V84Zm-.55,3.14V84.55H94.1v2.59Zm2.06-7v.57H99v2.62h-.55V77.86H99v2.29Z"/><path class="cls-2" d="M107.52,78.29a2,2,0,0,1,.73.5,2.34,2.34,0,0,1,.48.78,3,3,0,0,1,.17,1,2.91,2.91,0,0,1-.17,1,2.51,2.51,0,0,1-.48.77,2.3,2.3,0,0,1-1.64.67,2.37,2.37,0,0,1-.93-.18,2.14,2.14,0,0,1-.72-.49,2.18,2.18,0,0,1-.48-.77,2.7,2.7,0,0,1-.18-1,2.73,2.73,0,0,1,.18-1,2.06,2.06,0,0,1,.48-.78,1.91,1.91,0,0,1,.72-.5,2.37,2.37,0,0,1,.93-.18A2.27,2.27,0,0,1,107.52,78.29Zm-1.61.51a1.5,1.5,0,0,0-.54.39,2.18,2.18,0,0,0-.36.61,2.47,2.47,0,0,0-.13.79,2.44,2.44,0,0,0,.13.77,2,2,0,0,0,.36.6,1.6,1.6,0,0,0,.54.38,1.8,1.8,0,0,0,1.39,0,1.6,1.6,0,0,0,.54-.38,2,2,0,0,0,.36-.6,2.19,2.19,0,0,0,.13-.77,2.22,2.22,0,0,0-.13-.79,2.18,2.18,0,0,0-.36-.61,1.5,1.5,0,0,0-.54-.39,1.8,1.8,0,0,0-1.39,0Zm5.62,9.09H111v-3H105.8v-.55h5.73ZM111,83.65V77.86h.57v5.79Z"/><path class="cls-2" d="M116.15,84.18v-.55h8.41v.55H120.7V87.8h-.58V84.18Zm1.27-4a1.85,1.85,0,0,1,.21-.86,2.1,2.1,0,0,1,.6-.7,3,3,0,0,1,1-.47,4.72,4.72,0,0,1,2.51,0,3.07,3.07,0,0,1,.94.47,2.1,2.1,0,0,1,.6.7,1.89,1.89,0,0,1,0,1.73,2.2,2.2,0,0,1-.6.7,3.05,3.05,0,0,1-.94.46,4.72,4.72,0,0,1-2.51,0,3,3,0,0,1-1-.46,2.2,2.2,0,0,1-.6-.7A1.86,1.86,0,0,1,117.42,80.23Zm.57,0a1.25,1.25,0,0,0,.16.62,1.59,1.59,0,0,0,.45.53,2.76,2.76,0,0,0,.77.37,3.68,3.68,0,0,0,1,.13,3.82,3.82,0,0,0,1.07-.13,2.69,2.69,0,0,0,.76-.37,1.55,1.55,0,0,0,.47-.53,1.34,1.34,0,0,0,0-1.23,1.47,1.47,0,0,0-.47-.53,2.45,2.45,0,0,0-.76-.37,3.8,3.8,0,0,0-1.07-.14,3.66,3.66,0,0,0-1,.14,2.51,2.51,0,0,0-.77.37,1.5,1.5,0,0,0-.45.53A1.24,1.24,0,0,0,118,80.23Z"/><path class="cls-2" d="M17,99.87a2.94,2.94,0,0,1-1.39-.32,2.88,2.88,0,0,1-1-.87A4.13,4.13,0,0,1,14,97.34a6.89,6.89,0,0,1-.2-1.7,7,7,0,0,1,.2-1.7,4.07,4.07,0,0,1,.61-1.33A2.81,2.81,0,0,1,17,91.41a2.85,2.85,0,0,1,2.39,1.2A4.24,4.24,0,0,1,20.05,94a7.32,7.32,0,0,1,0,3.4,4.18,4.18,0,0,1-.62,1.33,2.91,2.91,0,0,1-1,.87A3,3,0,0,1,17,99.87Zm0-.55A2.24,2.24,0,0,0,18.17,99a2.41,2.41,0,0,0,.83-.76,3.61,3.61,0,0,0,.51-1.16,6,6,0,0,0,.17-1.46,6.18,6.18,0,0,0-.17-1.47A3.63,3.63,0,0,0,19,93a2.35,2.35,0,0,0-.83-.77,2.46,2.46,0,0,0-2.28,0,2.29,2.29,0,0,0-.81.77,3.62,3.62,0,0,0-.5,1.18,5.7,5.7,0,0,0-.17,1.47,5.57,5.57,0,0,0,.17,1.46,3.6,3.6,0,0,0,.5,1.16,2.35,2.35,0,0,0,.81.76A2.24,2.24,0,0,0,17,99.32Z"/><path class="cls-2" d="M25,99.87a2.94,2.94,0,0,1-1.39-.32,2.88,2.88,0,0,1-1-.87A4.13,4.13,0,0,1,22,97.34a6.89,6.89,0,0,1-.2-1.7,7,7,0,0,1,.2-1.7,4.07,4.07,0,0,1,.61-1.33A2.81,2.81,0,0,1,25,91.41a2.87,2.87,0,0,1,1.38.32,2.93,2.93,0,0,1,1,.88A4.22,4.22,0,0,1,28,94a7,7,0,0,1,0,3.4,4.17,4.17,0,0,1-.61,1.33A2.87,2.87,0,0,1,25,99.87Zm0-.55A2.24,2.24,0,0,0,26.16,99a2.41,2.41,0,0,0,.83-.76,3.61,3.61,0,0,0,.51-1.16,6,6,0,0,0,.17-1.46,6.18,6.18,0,0,0-.17-1.47A3.63,3.63,0,0,0,27,93a2.35,2.35,0,0,0-.83-.77A2.24,2.24,0,0,0,25,92a2.22,2.22,0,0,0-1.14.28,2.32,2.32,0,0,0-.82.77,3.61,3.61,0,0,0-.49,1.18,5.7,5.7,0,0,0-.17,1.47,5.57,5.57,0,0,0,.17,1.46,3.59,3.59,0,0,0,.49,1.16,2.38,2.38,0,0,0,.82.76A2.22,2.22,0,0,0,25,99.32Z"/><path class="cls-2" d="M29.31,98.23a6.8,6.8,0,0,0,1.15-1.07,6.29,6.29,0,0,0,.93-1.43A8.05,8.05,0,0,0,32,93.86a10.37,10.37,0,0,0,.13-2.36h.61A11.34,11.34,0,0,1,32.52,94a8.13,8.13,0,0,0,1.11,2.2A7,7,0,0,0,35.34,98l-.45.48a7.63,7.63,0,0,1-1.48-1.52,8.2,8.2,0,0,1-1.1-2,7.48,7.48,0,0,1-1,2.15,8.18,8.18,0,0,1-1.53,1.63Zm7.12,2.63v-10H37v10Z"/><path class="cls-2" d="M45.13,99.87a2.94,2.94,0,0,1-1.39-.32,2.88,2.88,0,0,1-1-.87,4.13,4.13,0,0,1-.61-1.34,6.89,6.89,0,0,1-.2-1.7,7,7,0,0,1,.2-1.7,4.07,4.07,0,0,1,.61-1.33,3,3,0,0,1,3.77-.88,2.84,2.84,0,0,1,1,.88A4.24,4.24,0,0,1,48.14,94a7.33,7.33,0,0,1,0,3.4,4.18,4.18,0,0,1-.62,1.33,2.87,2.87,0,0,1-2.39,1.19Zm0-.55A2.24,2.24,0,0,0,46.26,99a2.41,2.41,0,0,0,.83-.76,3.41,3.41,0,0,0,.51-1.16,6,6,0,0,0,.17-1.46,6.18,6.18,0,0,0-.17-1.47A3.43,3.43,0,0,0,47.09,93a2.35,2.35,0,0,0-.83-.77,2.46,2.46,0,0,0-2.28,0,2.4,2.4,0,0,0-.82.77,3.84,3.84,0,0,0-.49,1.18,5.7,5.7,0,0,0-.17,1.47,5.57,5.57,0,0,0,.17,1.46,3.83,3.83,0,0,0,.49,1.16A2.47,2.47,0,0,0,44,99,2.24,2.24,0,0,0,45.12,99.32Z"/><path class="cls-2" d="M53.12,99.87a2.94,2.94,0,0,1-1.39-.32,2.88,2.88,0,0,1-1-.87,4.13,4.13,0,0,1-.61-1.34,6.89,6.89,0,0,1-.2-1.7,7,7,0,0,1,.2-1.7,4.07,4.07,0,0,1,.61-1.33,2.81,2.81,0,0,1,2.39-1.2,2.87,2.87,0,0,1,1.38.32,2.93,2.93,0,0,1,1,.88A4,4,0,0,1,56.12,94a7,7,0,0,1,0,3.4,4,4,0,0,1-.61,1.33,2.87,2.87,0,0,1-2.39,1.19Zm0-.55A2.24,2.24,0,0,0,54.25,99a2.41,2.41,0,0,0,.83-.76,3.61,3.61,0,0,0,.51-1.16,6,6,0,0,0,.17-1.46,6.18,6.18,0,0,0-.17-1.47A3.63,3.63,0,0,0,55.08,93a2.35,2.35,0,0,0-.83-.77A2.24,2.24,0,0,0,53.11,92a2.22,2.22,0,0,0-1.14.28,2.4,2.4,0,0,0-.82.77,3.61,3.61,0,0,0-.49,1.18,5.7,5.7,0,0,0-.17,1.47,5.57,5.57,0,0,0,.17,1.46,3.59,3.59,0,0,0,.49,1.16A2.47,2.47,0,0,0,52,99,2.22,2.22,0,0,0,53.11,99.32Z"/><path class="cls-2" d="M57.6,96.38v-.55h6.25c0-.31.1-.63.14-1s.08-.69.11-1,.06-.69.08-1,0-.65,0-.94H58.94V91.3h5.83c0,.36,0,.74,0,1.13s0,.77-.07,1.16-.07.77-.11,1.15-.1.75-.16,1.09H66v.55H62.15v4.42h-.58V96.38Z"/><path class="cls-2" d="M73.22,99.87a2.94,2.94,0,0,1-1.39-.32,2.88,2.88,0,0,1-1-.87,4.13,4.13,0,0,1-.61-1.34,6.89,6.89,0,0,1-.2-1.7,7,7,0,0,1,.2-1.7,4.07,4.07,0,0,1,.61-1.33,3,3,0,0,1,3.77-.88,2.84,2.84,0,0,1,1,.88A4.24,4.24,0,0,1,76.23,94a7,7,0,0,1,0,3.4,4.18,4.18,0,0,1-.62,1.33,2.87,2.87,0,0,1-2.39,1.19Zm0-.55A2.24,2.24,0,0,0,74.35,99a2.44,2.44,0,0,0,.84-.76,3.6,3.6,0,0,0,.5-1.16,6,6,0,0,0,.17-1.46,6.18,6.18,0,0,0-.17-1.47,3.62,3.62,0,0,0-.5-1.18,2.38,2.38,0,0,0-.84-.77,2.46,2.46,0,0,0-2.28,0,2.29,2.29,0,0,0-.81.77,3.62,3.62,0,0,0-.5,1.18,5.7,5.7,0,0,0-.17,1.47,5.57,5.57,0,0,0,.17,1.46,3.6,3.6,0,0,0,.5,1.16,2.35,2.35,0,0,0,.81.76A2.24,2.24,0,0,0,73.21,99.32Z"/><path class="cls-2" d="M81.21,99.87a2.94,2.94,0,0,1-1.39-.32,2.88,2.88,0,0,1-1-.87,4.13,4.13,0,0,1-.61-1.34,6.89,6.89,0,0,1-.2-1.7,7,7,0,0,1,.2-1.7,4.07,4.07,0,0,1,.61-1.33,2.81,2.81,0,0,1,2.39-1.2,2.85,2.85,0,0,1,2.39,1.2A4,4,0,0,1,84.21,94a7,7,0,0,1,0,3.4,4,4,0,0,1-.61,1.33,2.91,2.91,0,0,1-1,.87A3,3,0,0,1,81.21,99.87Zm0-.55A2.24,2.24,0,0,0,82.34,99a2.41,2.41,0,0,0,.83-.76,3.61,3.61,0,0,0,.51-1.16,6,6,0,0,0,.17-1.46,6.18,6.18,0,0,0-.17-1.47A3.63,3.63,0,0,0,83.17,93a2.35,2.35,0,0,0-.83-.77A2.24,2.24,0,0,0,81.2,92a2.22,2.22,0,0,0-1.14.28,2.4,2.4,0,0,0-.82.77,3.84,3.84,0,0,0-.49,1.18,5.7,5.7,0,0,0-.17,1.47,5.57,5.57,0,0,0,.17,1.46,3.83,3.83,0,0,0,.49,1.16,2.47,2.47,0,0,0,.82.76A2.22,2.22,0,0,0,81.2,99.32Z"/><path class="cls-2" d="M87.05,94.37V91.14h5.62v.58h-5v2.1h5.09v.55H90.17v1.5h4v.55H85.59v-.55h4v-1.5Zm-.14,4.74a1.52,1.52,0,0,1,.77-1.31,5.11,5.11,0,0,1,4.45,0,1.51,1.51,0,0,1,0,2.62,5.2,5.2,0,0,1-4.45,0A1.53,1.53,0,0,1,86.91,99.11Zm.61,0a1,1,0,0,0,.14.49,1.29,1.29,0,0,0,.43.4,2.2,2.2,0,0,0,.74.27,4.75,4.75,0,0,0,1.07.1,4.84,4.84,0,0,0,1.08-.1,2.29,2.29,0,0,0,.74-.27,1.25,1.25,0,0,0,.42-.4.87.87,0,0,0,.14-.49.85.85,0,0,0-.14-.49,1.16,1.16,0,0,0-.42-.4,2.54,2.54,0,0,0-.74-.28,5.52,5.52,0,0,0-1.08-.1,5.41,5.41,0,0,0-1.07.1,2.44,2.44,0,0,0-.74.28,1.19,1.19,0,0,0-.43.4A.93.93,0,0,0,87.52,99.11Z"/><path class="cls-2" d="M14.43,108.3c.24,0,.44,0,.6,0a3,3,0,0,0,.51-.14.5.5,0,0,1-.2.4.8.8,0,0,1-.41.12l-.82,0a.93.93,0,0,1-.43-.06c-.12,0-.18-.17-.18-.36a1.91,1.91,0,0,0,.43.06A4.16,4.16,0,0,0,14.43,108.3Zm6.42-2a2.61,2.61,0,0,1,.55.25.92.92,0,0,1,.32.33,1.26,1.26,0,0,1,.17.46c0,.18.06.4.09.65l-.2,0-.24,0H21l-.31,0-.26,0-.25-.06-.28-.09a.77.77,0,0,0-.24-.46.89.89,0,0,0-.49-.27v.57a1.35,1.35,0,0,0,0,.22.53.53,0,0,0,.05.15.64.64,0,0,0,.1.13l.17.18.17.18a.86.86,0,0,1,.14.13,1,1,0,0,1,.12.15,1.09,1.09,0,0,1,.09.21l.77,2.49a2,2,0,0,1,0,.22c0,.09,0,.19,0,.29a1.59,1.59,0,0,1,0,.26c0,.08,0,.12,0,.13s0,0-.06,0H14.86s0,0,0,0a.33.33,0,0,1,0-.13,1.59,1.59,0,0,1,0-.26c0-.1,0-.2,0-.29a2,2,0,0,1,0-.22l.77-2.49a.69.69,0,0,1,.1-.21.44.44,0,0,1,.12-.15.86.86,0,0,1,.14-.13l.16-.18.17-.18a.38.38,0,0,0,.09-.13.25.25,0,0,0,.05-.15,1.18,1.18,0,0,0,0-.22v-.57a.89.89,0,0,0-.49.27.77.77,0,0,0-.24.46l-.28.09-.25.06-.26,0-.31,0H14l-.25,0-.19,0c0-.25.06-.47.09-.65a1.26,1.26,0,0,1,.17-.46,1,1,0,0,1,.31-.33,2.49,2.49,0,0,1,.56-.25,9.36,9.36,0,0,1,1.56-.33,12,12,0,0,1,1.54-.11,11.81,11.81,0,0,1,1.56.11A9.92,9.92,0,0,1,20.85,106.33Zm-3.14,4.88a1.27,1.27,0,0,0,.52-.11,1.43,1.43,0,0,0,.42-.31,1.53,1.53,0,0,0,.28-.46,1.57,1.57,0,0,0,.1-.58,1.4,1.4,0,0,0-.1-.54,1.74,1.74,0,0,0-.27-.46,1.39,1.39,0,0,0-.41-.31,1,1,0,0,0-.49-.12,1.22,1.22,0,0,0-.5.11,1.31,1.31,0,0,0-.41.3,1.29,1.29,0,0,0-.29.45,1.42,1.42,0,0,0-.1.55,1.6,1.6,0,0,0,.35,1,1.23,1.23,0,0,0,.4.32A1,1,0,0,0,17.71,111.21Zm.92-3.33.15-.82-.47,0a5,5,0,0,0-.56,0,5.17,5.17,0,0,0-.57,0l-.47.06.15.82.89,0Zm2.46.42h.5a1.57,1.57,0,0,0,.24,0l.18,0c0,.19-.06.32-.18.36a.93.93,0,0,1-.43.06l-.82,0a.86.86,0,0,1-.41-.12.49.49,0,0,1-.19-.4,2.8,2.8,0,0,0,.51.14C20.65,108.27,20.85,108.29,21.09,108.3Z"/><path class="cls-2" d="M28.33,104.35a2,2,0,0,1,1.78,1,6.68,6.68,0,0,1,.62,3.27,9.53,9.53,0,0,1-.16,1.91,4,4,0,0,1-.46,1.31,2,2,0,0,1-.75.76,2.33,2.33,0,0,1-2.06,0,2.18,2.18,0,0,1-.75-.76,3.79,3.79,0,0,1-.46-1.31,9.53,9.53,0,0,1-.16-1.91,6.68,6.68,0,0,1,.62-3.27A2,2,0,0,1,28.33,104.35Zm0,.55c-1.21,0-1.81,1.25-1.81,3.76a6.26,6.26,0,0,0,.46,2.78,1.47,1.47,0,0,0,2.7,0,6.24,6.24,0,0,0,.47-2.78C30.15,106.15,29.54,104.9,28.33,104.9Z"/><path class="cls-2" d="M34.64,104.35a2,2,0,0,1,1.77,1,6.55,6.55,0,0,1,.63,3.27,9.53,9.53,0,0,1-.16,1.91,4.25,4.25,0,0,1-.46,1.31,2.16,2.16,0,0,1-2.81.76,2,2,0,0,1-.75-.76,3.78,3.78,0,0,1-.47-1.31,10.42,10.42,0,0,1-.15-1.91,6.68,6.68,0,0,1,.62-3.27A2,2,0,0,1,34.64,104.35Zm0,.55c-1.21,0-1.81,1.25-1.81,3.76a6.26,6.26,0,0,0,.46,2.78,1.47,1.47,0,0,0,2.7,0,6.26,6.26,0,0,0,.46-2.78C36.45,106.15,35.85,104.9,34.64,104.9Z"/><path class="cls-2" d="M40.94,104.35a2,2,0,0,1,1.78,1,6.68,6.68,0,0,1,.62,3.27,9.53,9.53,0,0,1-.16,1.91,4,4,0,0,1-.46,1.31,2,2,0,0,1-.75.76,2.33,2.33,0,0,1-2.06,0,2.18,2.18,0,0,1-.75-.76,3.79,3.79,0,0,1-.46-1.31,9.53,9.53,0,0,1-.16-1.91,6.68,6.68,0,0,1,.62-3.27A2,2,0,0,1,40.94,104.35Zm0,.55c-1.2,0-1.81,1.25-1.81,3.76a6.41,6.41,0,0,0,.46,2.78,1.47,1.47,0,0,0,2.7,0,6.24,6.24,0,0,0,.47-2.78C42.76,106.15,42.15,104.9,40.94,104.9Z"/><path class="cls-2" d="M49.31,108.11v.55H45.18v-.55Z"/><path class="cls-2" d="M53.55,104.35a2,2,0,0,1,1.78,1,6.68,6.68,0,0,1,.62,3.27,9.53,9.53,0,0,1-.16,1.91,4,4,0,0,1-.46,1.31,2,2,0,0,1-.75.76,2.33,2.33,0,0,1-2.06,0,2.18,2.18,0,0,1-.75-.76,4,4,0,0,1-.46-1.31,9.53,9.53,0,0,1-.16-1.91,6.55,6.55,0,0,1,.63-3.27A2,2,0,0,1,53.55,104.35Zm0,.55c-1.2,0-1.81,1.25-1.81,3.76a6.41,6.41,0,0,0,.46,2.78,1.47,1.47,0,0,0,2.7,0,6.24,6.24,0,0,0,.47-2.78C55.37,106.15,54.76,104.9,53.55,104.9Z"/><path class="cls-2" d="M59.86,104.35a2,2,0,0,1,1.77,1,6.55,6.55,0,0,1,.63,3.27,9.53,9.53,0,0,1-.16,1.91,4.25,4.25,0,0,1-.46,1.31,2.16,2.16,0,0,1-2.81.76,2,2,0,0,1-.75-.76,4,4,0,0,1-.47-1.31,10.42,10.42,0,0,1-.15-1.91,6.68,6.68,0,0,1,.62-3.27A2,2,0,0,1,59.86,104.35Zm0,.55c-1.21,0-1.81,1.25-1.81,3.76a6.26,6.26,0,0,0,.46,2.78,1.47,1.47,0,0,0,2.7,0,6.26,6.26,0,0,0,.46-2.78C61.67,106.15,61.07,104.9,59.86,104.9Z"/><path class="cls-2" d="M66.16,104.35a2,2,0,0,1,1.78,1,6.55,6.55,0,0,1,.63,3.27,10.33,10.33,0,0,1-.16,1.91,4.24,4.24,0,0,1-.47,1.31,2,2,0,0,1-.75.76,2.33,2.33,0,0,1-2.06,0,2.18,2.18,0,0,1-.75-.76,4,4,0,0,1-.46-1.31,10.33,10.33,0,0,1-.16-1.91,6.55,6.55,0,0,1,.63-3.27A2,2,0,0,1,66.16,104.35Zm0,.55c-1.2,0-1.81,1.25-1.81,3.76a6.41,6.41,0,0,0,.46,2.78,1.47,1.47,0,0,0,2.7,0,6.24,6.24,0,0,0,.47-2.78C68,106.15,67.37,104.9,66.16,104.9Z"/><path class="cls-2" d="M74.53,108.11v.55H70.4v-.55Z"/><path class="cls-2" d="M78.77,104.35a2,2,0,0,1,1.78,1,6.55,6.55,0,0,1,.63,3.27,10.33,10.33,0,0,1-.16,1.91,4.24,4.24,0,0,1-.47,1.31,2,2,0,0,1-.75.76,2.33,2.33,0,0,1-2.06,0,2.18,2.18,0,0,1-.75-.76,4,4,0,0,1-.46-1.31,10.33,10.33,0,0,1-.16-1.91,6.55,6.55,0,0,1,.63-3.27A2,2,0,0,1,78.77,104.35Zm0,.55c-1.2,0-1.81,1.25-1.81,3.76a6.41,6.41,0,0,0,.46,2.78,1.47,1.47,0,0,0,1.35.89,1.45,1.45,0,0,0,1.35-.89,6.24,6.24,0,0,0,.47-2.78C80.59,106.15,80,104.9,78.77,104.9Z"/><path class="cls-2" d="M85.08,104.35a2,2,0,0,1,1.77,1,6.55,6.55,0,0,1,.63,3.27,9.53,9.53,0,0,1-.16,1.91,4.25,4.25,0,0,1-.46,1.31,2.1,2.1,0,0,1-.75.76,2.17,2.17,0,0,1-1,.24,2.12,2.12,0,0,1-1-.24,2,2,0,0,1-.75-.76,4,4,0,0,1-.47-1.31,10.42,10.42,0,0,1-.15-1.91,6.68,6.68,0,0,1,.62-3.27A2,2,0,0,1,85.08,104.35Zm0,.55c-1.21,0-1.81,1.25-1.81,3.76a6.26,6.26,0,0,0,.46,2.78,1.47,1.47,0,0,0,2.7,0,6.26,6.26,0,0,0,.46-2.78C86.89,106.15,86.29,104.9,85.08,104.9Z"/><path class="cls-2" d="M91.38,104.35a2,2,0,0,1,1.78,1,6.55,6.55,0,0,1,.63,3.27,10.33,10.33,0,0,1-.16,1.91,4,4,0,0,1-.47,1.31,2,2,0,0,1-.75.76,2.33,2.33,0,0,1-2.06,0,2.18,2.18,0,0,1-.75-.76,4,4,0,0,1-.46-1.31,10.33,10.33,0,0,1-.16-1.91,6.55,6.55,0,0,1,.63-3.27A2,2,0,0,1,91.38,104.35Zm0,.55c-1.2,0-1.81,1.25-1.81,3.76a6.24,6.24,0,0,0,.47,2.78,1.46,1.46,0,0,0,2.69,0,6.24,6.24,0,0,0,.47-2.78C93.2,106.15,92.59,104.9,91.38,104.9Z"/><path class="cls-2" d="M97.69,104.35a2,2,0,0,1,1.77,1,6.55,6.55,0,0,1,.63,3.27,9.53,9.53,0,0,1-.16,1.91,4,4,0,0,1-.46,1.31,2.1,2.1,0,0,1-.75.76,2.15,2.15,0,0,1-1,.24,2.12,2.12,0,0,1-1-.24,2,2,0,0,1-.75-.76,4,4,0,0,1-.47-1.31,10.42,10.42,0,0,1-.15-1.91,6.68,6.68,0,0,1,.62-3.27A2,2,0,0,1,97.69,104.35Zm0,.55c-1.21,0-1.81,1.25-1.81,3.76a6.26,6.26,0,0,0,.46,2.78,1.47,1.47,0,0,0,2.7,0,6.26,6.26,0,0,0,.46-2.78C99.5,106.15,98.9,104.9,97.69,104.9Z"/><path class="cls-2" d="M19.11,123.83h-5v-9h5Zm-1.57-1.53v-6H15.73v6Zm6.65,5.23h-1.6v-7.6h-.92v7.26H20.09V113.78h1.58v4.59h.92v-4.74h1.6Z"/><path class="cls-2" d="M31.55,117.93a8.06,8.06,0,0,0,1.32,1.29,7.9,7.9,0,0,0,1.47.92l-1,1.33a7.53,7.53,0,0,1-1.43-1,8.89,8.89,0,0,1-1.25-1.34,10.09,10.09,0,0,1-1.6,1.46,17.2,17.2,0,0,1-1.91,1.2l-1.05-1.32a11.52,11.52,0,0,0,1.87-1.1,9.64,9.64,0,0,0,1.4-1.22,6.77,6.77,0,0,0,.92-1.23,3.52,3.52,0,0,0,.42-1.15l-1.13,0H27v-1.56h3.89c.61,0,1.23,0,1.84,0a8.93,8.93,0,0,1-.39,2A8,8,0,0,1,31.55,117.93Zm.72,4.14a6.62,6.62,0,0,1,1.82.22,4,4,0,0,1,1.32.59,2.49,2.49,0,0,1,.8.89,2.26,2.26,0,0,1,0,2.18,2.55,2.55,0,0,1-.8.88,4.24,4.24,0,0,1-1.32.59,7.6,7.6,0,0,1-3.63,0,4.29,4.29,0,0,1-1.31-.59,2.52,2.52,0,0,1-.79-.88,2.34,2.34,0,0,1,0-2.18,2.46,2.46,0,0,1,.79-.89,4.06,4.06,0,0,1,1.31-.59A6.6,6.6,0,0,1,32.27,122.07Zm0,1.49a4.82,4.82,0,0,0-1.15.11,2.53,2.53,0,0,0-.77.29,1.31,1.31,0,0,0-.43.41,1,1,0,0,0,0,1,1.31,1.31,0,0,0,.43.41,2.53,2.53,0,0,0,.77.29,5.62,5.62,0,0,0,2.31,0,2.53,2.53,0,0,0,.77-.29,1.26,1.26,0,0,0,.44-.41,1,1,0,0,0,0-1,1.26,1.26,0,0,0-.44-.41,2.53,2.53,0,0,0-.77-.29A4.86,4.86,0,0,0,32.27,123.56Zm5.86-5.18H36.24v3.71H34.57v-8.46h1.67v3.19h1.89Z"/><path class="cls-2" d="M39.85,121.44V114h1.66v2.34h2.64V114h1.63v3.21h2.14v-3.61h1.69v10.18H47.92v-5H45.78v2.64Zm4.3-3.54H41.51v2h2.64Zm5.7,9.36H41.62V123h1.67v2.72h6.56Z"/><path class="cls-2" d="M61.4,120.6a2,2,0,0,1-.18.84,2.2,2.2,0,0,1-.53.74,3.26,3.26,0,0,1-.87.56,4.62,4.62,0,0,1-1.22.32v1.1h5v1.54H51.92v-1.54h5v-1.1a4.6,4.6,0,0,1-1.23-.32,3,3,0,0,1-.88-.56,2.32,2.32,0,0,1-.52-.74,2.16,2.16,0,0,1,.06-1.81,2.3,2.3,0,0,1,.67-.8,3.61,3.61,0,0,1,1.13-.55,6,6,0,0,1,1.63-.2,5.85,5.85,0,0,1,1.59.2,3.61,3.61,0,0,1,1.13.55,2.48,2.48,0,0,1,.69.8A2.2,2.2,0,0,1,61.4,120.6Zm1-4.47v1.52H53.1v-1.52Zm-2.13-2.29v1.56H55.22v-1.56Zm-.57,6.76a1,1,0,0,0-.09-.41.89.89,0,0,0-.32-.35,1.87,1.87,0,0,0-.6-.24,4.19,4.19,0,0,0-.95-.09,4.1,4.1,0,0,0-.94.09,1.87,1.87,0,0,0-.6.24.79.79,0,0,0-.31.35,1,1,0,0,0,0,.82.91.91,0,0,0,.31.35,1.87,1.87,0,0,0,.6.25,3.56,3.56,0,0,0,.94.1,3.64,3.64,0,0,0,.95-.1,1.87,1.87,0,0,0,.6-.25,1,1,0,0,0,.32-.35A1,1,0,0,0,59.7,120.6Z"/><path class="cls-2" d="M66.55,116.1a1.16,1.16,0,0,1,.85.36,1.2,1.2,0,0,1,.34.86,1.22,1.22,0,0,1-.34.86,1.17,1.17,0,0,1-.85.37,1.07,1.07,0,0,1-.82-.37,1.24,1.24,0,0,1-.32-.86,1.23,1.23,0,0,1,.32-.86A1.06,1.06,0,0,1,66.55,116.1Zm0,6a1.16,1.16,0,0,1,.85.36,1.2,1.2,0,0,1,.34.86,1.22,1.22,0,0,1-.34.86,1.17,1.17,0,0,1-.85.37,1.07,1.07,0,0,1-.82-.37,1.24,1.24,0,0,1-.32-.86,1.23,1.23,0,0,1,.32-.86A1.06,1.06,0,0,1,66.55,122.07Z"/><path class="cls-2" d="M78.35,117.35c-.11.05-.16,0-.16-.12v-1.1a4.53,4.53,0,0,0,1.06-.7,6.12,6.12,0,0,0,.88-1h1.68v11.61H80.13v-9.81h0a5.47,5.47,0,0,1-.87.62A7.55,7.55,0,0,1,78.35,117.35Z"/><path class="cls-2" d="M86.42,117.17s-.09,0-.12,0a.12.12,0,0,1-.06-.12v-1.47a4.68,4.68,0,0,1,1.36-1,3.85,3.85,0,0,1,1.64-.36,3.33,3.33,0,0,1,2.35.77,3.08,3.08,0,0,1,.83,2.37,3.81,3.81,0,0,1-.15,1,5.32,5.32,0,0,1-.44,1.05,7.88,7.88,0,0,1-.64,1q-.37.51-.78,1l-2.55,3v0h4.71v1.5H85.93v-1.41l3.16-3.82a11.19,11.19,0,0,0,.81-1.07,7.4,7.4,0,0,0,.49-.88,3.27,3.27,0,0,0,.25-.77,3.39,3.39,0,0,0,.07-.7,1.84,1.84,0,0,0-.38-1.19,1.43,1.43,0,0,0-1.18-.46,3.17,3.17,0,0,0-1.37.33A5.19,5.19,0,0,0,86.42,117.17Z"/><path class="cls-2" d="M94.77,123.3a5.4,5.4,0,0,0,1.47,1.1,3.55,3.55,0,0,0,1.52.33,1.87,1.87,0,0,0,.71-.14,1.81,1.81,0,0,0,.59-.38,1.69,1.69,0,0,0,.39-.59,1.94,1.94,0,0,0,.14-.78,2,2,0,0,0-.54-1.55,2.73,2.73,0,0,0-1.85-.49h-.34v-1.49h.38a4.19,4.19,0,0,0,.83-.1,1.78,1.78,0,0,0,.67-.3,1.24,1.24,0,0,0,.44-.56,2.43,2.43,0,0,0,.16-.93,1.52,1.52,0,0,0-.48-1.25,1.78,1.78,0,0,0-1.2-.4,3.49,3.49,0,0,0-.65.06,3.06,3.06,0,0,0-.63.2,3.66,3.66,0,0,0-.64.39,6.86,6.86,0,0,0-.7.6.11.11,0,0,1-.13,0,.15.15,0,0,1-.06-.13v-1.47a4.18,4.18,0,0,1,1.19-.79,4.1,4.1,0,0,1,1.68-.36,3.58,3.58,0,0,1,2.45.78,2.78,2.78,0,0,1,.89,2.2,3,3,0,0,1-.15,1,2.92,2.92,0,0,1-.43.8,2.6,2.6,0,0,1-.64.6,2.34,2.34,0,0,1-.8.33v0a3,3,0,0,1,1.63.93,2.74,2.74,0,0,1,.64,1.87,3.52,3.52,0,0,1-.24,1.29,3.3,3.3,0,0,1-1.81,1.86,3.75,3.75,0,0,1-1.5.29A4.76,4.76,0,0,1,96,125.9a3.62,3.62,0,0,1-1.41-.93v-1.56a.14.14,0,0,1,.06-.13A.1.1,0,0,1,94.77,123.3Z"/><path class="cls-2" d="M102.66,123.56V122l4.46-7.52h1.78v7.58h1.48v1.5H108.9v2.53h-1.67v-2.53Zm1.38-1.5v0h3.24v-4.85l0-1-.46,1Z"/><path class="cls-2" d="M17.52,132.83l1.34,4.87.12.55.13-.55,1.21-4.87h.56l-1.54,5.95h-.67l-1.36-4.94-.08-.35-.08.35-1.37,4.94h-.66l-1.55-5.95h.56l1.21,4.87.13.55.12-.55,1.35-4.87Z"/><path class="cls-2" d="M22.42,130.81a.52.52,0,0,1,.13-.37.42.42,0,0,1,.32-.14.45.45,0,0,1,.33.14.52.52,0,0,1,.13.37.48.48,0,0,1-.13.36.45.45,0,0,1-.33.14.42.42,0,0,1-.32-.14A.48.48,0,0,1,22.42,130.81Zm.72,2v5.95h-.57v-5.95Z"/><path class="cls-2" d="M28,130.45a2.27,2.27,0,0,0-.26-.12,1,1,0,0,0-.32-.07,1.18,1.18,0,0,0-.43.08.82.82,0,0,0-.35.24,1.22,1.22,0,0,0-.23.47,2.55,2.55,0,0,0-.09.73v1.05h1.53v.5H26.3v5.45h-.58v-5.45h-.94v-.5h.94v-1.09a2.92,2.92,0,0,1,.13-.91,1.78,1.78,0,0,1,.35-.61,1.36,1.36,0,0,1,.52-.33,1.93,1.93,0,0,1,.65-.1A1.17,1.17,0,0,1,28,130v.44C28,130.47,28,130.48,28,130.45Z"/><path class="cls-2" d="M29.23,130.81a.52.52,0,0,1,.13-.37.45.45,0,0,1,.33-.14.45.45,0,0,1,.32.14.53.53,0,0,1,.14.37.49.49,0,0,1-.14.36.45.45,0,0,1-.32.14.45.45,0,0,1-.33-.14A.48.48,0,0,1,29.23,130.81Zm.73,2v5.95h-.58v-5.95Z"/><path class="cls-2" d="M32.94,131.82a.47.47,0,0,1,.37.16.59.59,0,0,1,.15.41.57.57,0,0,1-.15.4.48.48,0,0,1-.37.17.49.49,0,0,1-.38-.17.57.57,0,0,1-.15-.4.59.59,0,0,1,.15-.41A.48.48,0,0,1,32.94,131.82Zm0,4.53a.47.47,0,0,1,.37.16.64.64,0,0,1,0,.82.47.47,0,0,1-.37.16.48.48,0,0,1-.38-.16.64.64,0,0,1,0-.82A.48.48,0,0,1,32.94,136.35Z"/><path class="cls-2" d="M14.19,143.33H17l1.15,0a4.73,4.73,0,0,1-.38,1.43A6.64,6.64,0,0,1,17,146a6.64,6.64,0,0,0,1,.92,7,7,0,0,0,1.24.81l-.41.51c-.19-.11-.39-.24-.59-.38s-.39-.28-.58-.44-.36-.32-.53-.49a4.15,4.15,0,0,1-.45-.5,7.81,7.81,0,0,1-1.28,1.16,7.71,7.71,0,0,1-1.43.82l-.38-.51a7.87,7.87,0,0,0,1.49-.83,7.21,7.21,0,0,0,1.16-1A6,6,0,0,0,17,145a4.48,4.48,0,0,0,.42-1.11l-1.09,0H14.19ZM21,149.26v3.43H15.49v-3.43Zm-.56,2.88v-2.33h-4.4v2.33Zm0-6.24H18.53v-.57h1.93v-2.47H21v5.74h-.56Z"/><path class="cls-2" d="M23.51,143.33h2.88l1.19,0a5.74,5.74,0,0,1-.34,1.4,5.87,5.87,0,0,1-.65,1.24,6.63,6.63,0,0,0,2.12,1.81l-.41.52a7.2,7.2,0,0,1-1.12-.85,6.8,6.8,0,0,1-.94-1,7.37,7.37,0,0,1-1.38,1.3,9.72,9.72,0,0,1-1.56.93l-.38-.51a9.41,9.41,0,0,0,1.51-.84,7.2,7.2,0,0,0,1.2-1,6,6,0,0,0,.84-1.16,3.91,3.91,0,0,0,.44-1.22l-1.14,0H23.51Zm3.65,9.59a4.6,4.6,0,0,1-1.23-.15,2.83,2.83,0,0,1-.91-.41,1.77,1.77,0,0,1-.57-.62,1.57,1.57,0,0,1-.2-.76,1.51,1.51,0,0,1,.2-.76,1.74,1.74,0,0,1,.57-.61,3.12,3.12,0,0,1,.92-.4,5,5,0,0,1,2.44,0,3.05,3.05,0,0,1,.91.4,1.87,1.87,0,0,1,.58.61,1.51,1.51,0,0,1,.2.76,1.57,1.57,0,0,1-.2.76,1.9,1.9,0,0,1-.58.62,2.83,2.83,0,0,1-.91.41A4.53,4.53,0,0,1,27.16,152.92Zm0-.53a3.86,3.86,0,0,0,1-.11,2.54,2.54,0,0,0,.74-.31,1.45,1.45,0,0,0,.44-.45,1,1,0,0,0,0-1,1.31,1.31,0,0,0-.43-.45,2.54,2.54,0,0,0-.74-.3,4.4,4.4,0,0,0-2,0,2.59,2.59,0,0,0-.73.3,1.41,1.41,0,0,0-.43.45,1,1,0,0,0,0,1,1.34,1.34,0,0,0,.44.45,2.59,2.59,0,0,0,.73.31A3.81,3.81,0,0,0,27.15,152.39Zm4.31-7V146H30v3H29.4v-6.06H30v2.52Z"/><path class="cls-2" d="M38.53,151.87a2.93,2.93,0,0,1-1.38-.32,2.88,2.88,0,0,1-1-.87,4.13,4.13,0,0,1-.61-1.34,6.45,6.45,0,0,1-.2-1.7,6.55,6.55,0,0,1,.2-1.7,4.07,4.07,0,0,1,.61-1.33,3,3,0,0,1,3.76-.88,2.84,2.84,0,0,1,1,.88,4,4,0,0,1,.62,1.34,7,7,0,0,1,0,3.4,4,4,0,0,1-.62,1.33,2.87,2.87,0,0,1-2.39,1.19Zm0-.55a2.28,2.28,0,0,0,1.15-.28,2.41,2.41,0,0,0,.83-.76,3.6,3.6,0,0,0,.5-1.16,5.57,5.57,0,0,0,.17-1.46,5.7,5.7,0,0,0-.17-1.47,3.62,3.62,0,0,0-.5-1.18,2.35,2.35,0,0,0-.83-.77,2.28,2.28,0,0,0-1.15-.28,2.18,2.18,0,0,0-1.13.28,2.32,2.32,0,0,0-.82.77,3.85,3.85,0,0,0-.5,1.18,6.18,6.18,0,0,0-.17,1.47,6,6,0,0,0,.17,1.46,3.84,3.84,0,0,0,.5,1.16,2.38,2.38,0,0,0,.82.76A2.18,2.18,0,0,0,38.52,151.32Z"/><path class="cls-2" d="M46.52,151.87a2.93,2.93,0,0,1-1.38-.32,2.88,2.88,0,0,1-1-.87,3.93,3.93,0,0,1-.61-1.34,6.43,6.43,0,0,1-.21-1.7,6.54,6.54,0,0,1,.21-1.7,3.87,3.87,0,0,1,.61-1.33,3,3,0,0,1,3.76-.88,2.84,2.84,0,0,1,1,.88,4,4,0,0,1,.62,1.34,7,7,0,0,1,0,3.4,4,4,0,0,1-.62,1.33,2.87,2.87,0,0,1-2.39,1.19Zm0-.55a2.28,2.28,0,0,0,1.15-.28,2.41,2.41,0,0,0,.83-.76,3.6,3.6,0,0,0,.5-1.16,5.57,5.57,0,0,0,.17-1.46,5.7,5.7,0,0,0-.17-1.47,3.62,3.62,0,0,0-.5-1.18,2.35,2.35,0,0,0-.83-.77,2.28,2.28,0,0,0-1.15-.28,2.18,2.18,0,0,0-1.13.28,2.32,2.32,0,0,0-.82.77,3.62,3.62,0,0,0-.5,1.18,6.18,6.18,0,0,0-.17,1.47,6,6,0,0,0,.17,1.46,3.6,3.6,0,0,0,.5,1.16,2.38,2.38,0,0,0,.82.76A2.18,2.18,0,0,0,46.51,151.32Z"/><path class="cls-2" d="M54.51,151.87a2.87,2.87,0,0,1-2.39-1.19,4.11,4.11,0,0,1-.6-1.34,6.43,6.43,0,0,1-.21-1.7,6.54,6.54,0,0,1,.21-1.7,4.06,4.06,0,0,1,.6-1.33,2.84,2.84,0,0,1,1-.88,3.14,3.14,0,0,1,2.76,0,2.84,2.84,0,0,1,1,.88,4.24,4.24,0,0,1,.62,1.34,7,7,0,0,1,0,3.4,4.18,4.18,0,0,1-.62,1.33,2.87,2.87,0,0,1-2.39,1.19Zm0-.55a2.3,2.3,0,0,0,1.15-.28,2.41,2.41,0,0,0,.83-.76,3.6,3.6,0,0,0,.5-1.16,6,6,0,0,0,.17-1.46,6.18,6.18,0,0,0-.17-1.47,3.62,3.62,0,0,0-.5-1.18,2.35,2.35,0,0,0-.83-.77A2.3,2.3,0,0,0,54.5,144a2.18,2.18,0,0,0-1.13.28,2.32,2.32,0,0,0-.82.77,3.62,3.62,0,0,0-.5,1.18,6.18,6.18,0,0,0-.17,1.47,6,6,0,0,0,.17,1.46,3.6,3.6,0,0,0,.5,1.16,2.38,2.38,0,0,0,.82.76A2.18,2.18,0,0,0,54.5,151.32Z"/><path class="cls-2" d="M15.32,157a.59.59,0,0,1,.39.17.56.56,0,0,1,.14.43.61.61,0,0,1-.14.42.53.53,0,0,1-.39.15.52.52,0,0,1-.42-.19.87.87,0,0,1-.16-.59,2.15,2.15,0,0,1,.26-1,1.68,1.68,0,0,1,.81-.69l.09.2a1.31,1.31,0,0,0-.51.42,1.18,1.18,0,0,0-.22.57A.14.14,0,0,0,15.32,157Zm1.5,0a.64.64,0,0,1,.39.17.6.6,0,0,1,.14.43.57.57,0,0,1-.15.42.49.49,0,0,1-.38.15.54.54,0,0,1-.43-.19.92.92,0,0,1-.16-.59,2.05,2.05,0,0,1,.27-1,1.73,1.73,0,0,1,.81-.69l.09.2a1.18,1.18,0,0,0-.51.42,1.09,1.09,0,0,0-.22.57C16.66,157,16.71,157,16.82,157Z"/><path class="cls-2" d="M20,160.53V160h2.9c.45,0,.88,0,1.29,0s.8-.05,1.16-.09c0-.44.06-.87.08-1.3s0-.84.05-1.24H20.25v-.57h5.82c0,.54,0,1.1-.06,1.69s-.09,1.18-.15,1.76-.13,1.17-.21,1.74-.16,1.12-.26,1.64h2v.55H19v-.55h5.92c.09-.49.17-1,.25-1.55s.14-1.1.2-1.67c-.38.05-.79.1-1.22.13s-.88.05-1.36.05Z"/><path class="cls-2" d="M30,160.22v2.62h1.31a16.13,16.13,0,0,0,2.19-.13,16.25,16.25,0,0,0,1.75-.36v.54a12.34,12.34,0,0,1-1.83.37,16.75,16.75,0,0,1-2.25.13H29.38v-3.72H33v-2.46H29.36v-.55h4.16v3.56Zm5.78,5.64v-10h.58v10Z"/><path class="cls-2" d="M38.67,163.73h8.41v.56H38.67Zm.62-2.53a5.13,5.13,0,0,0,1.53-.78,4.85,4.85,0,0,0,1.09-1.13,4.45,4.45,0,0,0,.62-1.39,5.31,5.31,0,0,0,.16-1.55h.63a7.17,7.17,0,0,1-.15,1.49,4.6,4.6,0,0,0,.58,1.15,5.83,5.83,0,0,0,.83.95,5.22,5.22,0,0,0,1,.71,5.08,5.08,0,0,0,1,.47l-.32.56a5.14,5.14,0,0,1-1-.48,5.52,5.52,0,0,1-.91-.7,6,6,0,0,1-.8-.86,5.47,5.47,0,0,1-.62-1,5.22,5.22,0,0,1-1.27,1.87,6.28,6.28,0,0,1-2,1.25Z"/><path class="cls-2" d="M49.59,157.76h.58l.1,4.94h2.12l.1-4.94h.58l-.1,4.91c.33,0,.65-.06,1-.11a5.9,5.9,0,0,0,.92-.23v.52a6.09,6.09,0,0,1-1.38.31,13.17,13.17,0,0,1-1.55.09H48.54v-.55h1.15Zm4.33-.46H48.75v-.55h5.17Zm1.54,8.56v-10H56v10Z"/><path class="cls-2" d="M59.46,160.53V160h2.91c.45,0,.87,0,1.29,0s.79-.05,1.15-.09l.09-1.3c0-.42,0-.84,0-1.24H59.7v-.57h5.82c0,.54,0,1.1-.07,1.69s-.08,1.18-.14,1.76-.13,1.17-.21,1.74-.17,1.12-.26,1.64h2v.55H58.4v-.55h5.91c.1-.49.18-1,.26-1.55s.14-1.1.19-1.67c-.38.05-.78.1-1.21.13s-.89.05-1.36.05Z"/><path class="cls-2" d="M69.42,158.9v1.67h1.29a15.76,15.76,0,0,0,2.18-.14,12.51,12.51,0,0,0,1.75-.36v.53a13,13,0,0,1-1.9.38,17.2,17.2,0,0,1-2.17.14H68.86v-2.77H72.4v-1.51H68.83v-.55H73v2.61Zm6.33,3.41v3.39H70.22v-3.39Zm-.56,2.84v-2.29h-4.4v2.29Zm0-3.5v-5.79h.57v5.79Z"/><path class="cls-2" d="M78.12,163.77h8.41v.55H78.12ZM85.31,159a2.82,2.82,0,0,1-.19,1,2.32,2.32,0,0,1-.57.85,2.89,2.89,0,0,1-.93.58,3.67,3.67,0,0,1-1.29.21,3.63,3.63,0,0,1-1.29-.21,2.78,2.78,0,0,1-.93-.58,2.45,2.45,0,0,1-.57-.85,3,3,0,0,1-.19-1,3,3,0,0,1,.19-1,2.49,2.49,0,0,1,.57-.86,2.7,2.7,0,0,1,.93-.57,3.42,3.42,0,0,1,1.29-.22,3.45,3.45,0,0,1,1.29.22,2.7,2.7,0,0,1,.93.57,2.35,2.35,0,0,1,.57.86A2.75,2.75,0,0,1,85.31,159Zm-.57,0a2.27,2.27,0,0,0-.13-.77,1.74,1.74,0,0,0-.41-.69,2.22,2.22,0,0,0-.75-.49,2.88,2.88,0,0,0-1.12-.19,2.8,2.8,0,0,0-1.11.19,2,2,0,0,0-.75.49,1.89,1.89,0,0,0-.42.69,2.27,2.27,0,0,0-.13.77,2.35,2.35,0,0,0,.13.77A1.95,1.95,0,0,0,81.22,161a2.8,2.8,0,0,0,1.11.19,2.88,2.88,0,0,0,1.12-.19,2.08,2.08,0,0,0,.75-.49,1.77,1.77,0,0,0,.41-.68A2.35,2.35,0,0,0,84.74,159Z"/><path class="cls-2" d="M95.25,161.94H92.47v2h3.92v.55H88v-.55h3.89v-2H89.38v-3h5v-1.79h-5v-.57h5.53v2.91H90v1.86h5.29Z"/><path class="cls-2" d="M101.51,160.26v-3.92h4.11v.55h-3.54v2.82h1.44a17,17,0,0,0,2-.11,15.46,15.46,0,0,0,1.53-.26v.53c-.22.06-.47.11-.76.16s-.59.09-.91.12-.64.06-1,.08l-1,0Zm6.79,4.94v.55h-5.71V163.3h4.94V162h-4.94v-.55h5.5v2.4h-4.94v1.37Zm1.3-7.19v.58h-1.51v2.24h-.56v-5h.56V158Z"/><path class="cls-2" d="M114.24,159.17h.6v1.43h4.59v.55h-8.62v-.55h3.43Zm-1.95-3H118c0,.67,0,1.31-.11,1.94s-.13,1.23-.22,1.81h-.56c0-.25.08-.52.12-.79s.06-.56.1-.83a11.91,11.91,0,0,1-1.26.13c-.44,0-.91,0-1.4,0h-2.5v-.55h2.68c.46,0,.91,0,1.34,0s.82,0,1.19-.08l0-.55c0-.18,0-.36,0-.54h-5.1ZM118,165.7h-5.7v-3.36H118Zm-.56-.55v-2.26h-4.58v2.26Z"/><path class="cls-2" d="M126.1,157.83h-5.34v-.55h5.34Zm-4.76,2.45a1.85,1.85,0,0,1,.13-.7,1.83,1.83,0,0,1,1-1,2.61,2.61,0,0,1,.92-.15,2.52,2.52,0,0,1,.91.15,1.69,1.69,0,0,1,.66.41,1.79,1.79,0,0,1,.39.59,1.85,1.85,0,0,1,.13.7,1.89,1.89,0,0,1-.13.7,1.69,1.69,0,0,1-1,1,2.52,2.52,0,0,1-.91.15,2.61,2.61,0,0,1-.92-.15,1.79,1.79,0,0,1-.64-.4,1.67,1.67,0,0,1-.4-.59A1.89,1.89,0,0,1,121.34,160.28Zm.52,0a1.36,1.36,0,0,0,.09.48,1.22,1.22,0,0,0,.29.42,1.39,1.39,0,0,0,.49.29,2.07,2.07,0,0,0,1.39,0,1.39,1.39,0,0,0,.49-.29,1.25,1.25,0,0,0,.3-.42,1.37,1.37,0,0,0,.1-.48,1.28,1.28,0,0,0-.1-.47,1.35,1.35,0,0,0-.3-.42,1.39,1.39,0,0,0-.49-.29,2.07,2.07,0,0,0-1.39,0,1.39,1.39,0,0,0-.49.29,1.32,1.32,0,0,0-.29.42A1.27,1.27,0,0,0,121.86,160.28Zm3-3.77H122v-.58h2.83ZM128,165.1v.55h-5.44v-2.46h.56v1.91Zm1.36-5.83v.58h-1.51v3.71h-.55v-7.7h.55v3.41Z"/><path class="cls-2" d="M133.48,163.21a7.17,7.17,0,0,0,1.14-1.07,6.07,6.07,0,0,0,.9-1.44,7.39,7.39,0,0,0,.56-1.86,10.46,10.46,0,0,0,.13-2.37h.6c0,.47,0,.91,0,1.32s-.09.82-.16,1.21a7.9,7.9,0,0,0,1.08,2.2,6.92,6.92,0,0,0,1.68,1.73l-.44.47a7.74,7.74,0,0,1-1.45-1.51,8.69,8.69,0,0,1-1.08-2,7.56,7.56,0,0,1-1,2.15,7,7,0,0,1-1.51,1.62Zm9-3.52v.58h-1.64v5.59h-.55v-10h.55v3.83Z"/><path class="cls-2" d="M144.69,159v1.74H146a16.59,16.59,0,0,0,2.13-.12,10.63,10.63,0,0,0,1.63-.33v.55a9.71,9.71,0,0,1-1.78.34,17.59,17.59,0,0,1-2.11.11h-1.72v-2.84h3.37v-1.64H144.1v-.55h4V159Zm3.28,6.89a5.08,5.08,0,0,1-1.23-.14,3.32,3.32,0,0,1-.91-.39,1.71,1.71,0,0,1-.57-.6,1.37,1.37,0,0,1-.2-.74,1.35,1.35,0,0,1,.2-.74,1.75,1.75,0,0,1,.57-.58,2.78,2.78,0,0,1,.92-.39,5,5,0,0,1,1.22-.14,5.11,5.11,0,0,1,1.22.14,2.81,2.81,0,0,1,.91.39,1.89,1.89,0,0,1,.58.58,1.43,1.43,0,0,1,.19.74,1.46,1.46,0,0,1-.19.74,1.84,1.84,0,0,1-.58.6,3.32,3.32,0,0,1-.91.39A5.05,5.05,0,0,1,148,165.92Zm0-.55a4.34,4.34,0,0,0,1-.1,2.4,2.4,0,0,0,.72-.29,1.26,1.26,0,0,0,.44-.41.94.94,0,0,0,.15-.5,1,1,0,0,0-.15-.51,1.24,1.24,0,0,0-.43-.42,2.4,2.4,0,0,0-.72-.28,4.74,4.74,0,0,0-2,0,2.64,2.64,0,0,0-.72.28,1.33,1.33,0,0,0-.43.42,1,1,0,0,0-.14.51.93.93,0,0,0,.14.5,1.35,1.35,0,0,0,.44.41,2.52,2.52,0,0,0,.72.29A4.37,4.37,0,0,0,148,165.37Zm4.28-7.06v.57h-1.51V162h-.55v-6.1h.55v2.45Z"/><path class="cls-2" d="M153.46,160.21h8.62v.55h-8.62Zm7.32-2.56a1.41,1.41,0,0,1-.75,1.24,5.53,5.53,0,0,1-4.46,0,1.41,1.41,0,0,1-.75-1.24,1.35,1.35,0,0,1,.19-.71,1.58,1.58,0,0,1,.56-.56,3.06,3.06,0,0,1,.93-.37,5.6,5.6,0,0,1,1.3-.13,5.54,5.54,0,0,1,1.3.13,3,3,0,0,1,.93.37,1.58,1.58,0,0,1,.56.56A1.45,1.45,0,0,1,160.78,157.65Zm.11,8.16h-6v-2.26h5.17v-1.14h-5.17v-.55h5.73v2.2h-5.17v1.22h5.42Zm-.68-8.16a.88.88,0,0,0-.14-.45,1.13,1.13,0,0,0-.44-.39,2.89,2.89,0,0,0-.76-.28,5.94,5.94,0,0,0-2.17,0,2.81,2.81,0,0,0-.75.28,1.1,1.1,0,0,0-.43.39.86.86,0,0,0-.13.45,1,1,0,0,0,.56.83,3.84,3.84,0,0,0,1.84.33,3.89,3.89,0,0,0,1.84-.33A1,1,0,0,0,160.21,157.65Z"/><path class="cls-2" d="M168.94,163h-1.87v-6.37h.57v5.78h1.44a12.83,12.83,0,0,0,1.93-.13,9.7,9.7,0,0,0,1.47-.32v.56a7.16,7.16,0,0,1-.74.19c-.28.06-.57.11-.88.15s-.63.08-1,.1S169.26,163,168.94,163Zm6.32-3.47v.58h-1.69v5.75H173v-10h.56v3.67Z"/><path class="cls-2" d="M176.49,162.15v-.55h8.41v.55h-3.85v3.65h-.58v-3.65Zm7.33-2.2H178v-3.84h.58v3.27h5.2Z"/><path class="cls-2" d="M186.16,163.33a7.45,7.45,0,0,0,1-1.21,7.18,7.18,0,0,0,.76-1.49,8.22,8.22,0,0,0,.44-1.82,12,12,0,0,0,.07-2.2H189c0,.4,0,.79,0,1.17s0,.76-.1,1.12a8.8,8.8,0,0,0,.76,2.2A7.15,7.15,0,0,0,191,163l-.46.4a8.68,8.68,0,0,1-1.12-1.59,8.86,8.86,0,0,1-.74-1.83,8.83,8.83,0,0,1-.79,2,7.62,7.62,0,0,1-1.28,1.72Zm5.42-4.05V156h.53v9.63h-.53v-5.77H190v-.55Zm2.42-3.42v10h-.55v-10Z"/><path class="cls-2" d="M202,161.85h.56v2.09h2v.55h-8.4v-.55h2.09v-2.09h.57v2.09H202ZM203.4,159a2.71,2.71,0,0,1-.2,1,2.61,2.61,0,0,1-.59.84,2.65,2.65,0,0,1-.94.55,3.64,3.64,0,0,1-1.27.2,3.53,3.53,0,0,1-1.25-.2,2.52,2.52,0,0,1-.93-.55,2.44,2.44,0,0,1-.58-.84,2.54,2.54,0,0,1-.21-1,2.58,2.58,0,0,1,.21-1,2.47,2.47,0,0,1,.58-.85,2.7,2.7,0,0,1,.93-.57,3.77,3.77,0,0,1,1.25-.2,3.89,3.89,0,0,1,1.27.2,2.85,2.85,0,0,1,.94.57,2.65,2.65,0,0,1,.59.85A2.75,2.75,0,0,1,203.4,159Zm-.57,0a2.18,2.18,0,0,0-.15-.8,2,2,0,0,0-.46-.68,2.37,2.37,0,0,0-.76-.46,3.33,3.33,0,0,0-2.1,0,2.32,2.32,0,0,0-.75.46,1.92,1.92,0,0,0-.45.68,2,2,0,0,0-.16.8,1.89,1.89,0,0,0,.16.79,1.85,1.85,0,0,0,.45.66,2,2,0,0,0,.75.46,3.33,3.33,0,0,0,2.1,0,2.06,2.06,0,0,0,.76-.46,1.88,1.88,0,0,0,.46-.66A2.06,2.06,0,0,0,202.83,159Z"/><path class="cls-2" d="M206.81,157.05a.59.59,0,0,1-.39-.17.6.6,0,0,1-.14-.43.61.61,0,0,1,.14-.42.53.53,0,0,1,.39-.15.52.52,0,0,1,.42.19.87.87,0,0,1,.16.59,2.05,2.05,0,0,1-.27,1.05,1.66,1.66,0,0,1-.8.69l-.09-.2a1.31,1.31,0,0,0,.51-.42,1.18,1.18,0,0,0,.22-.57A.14.14,0,0,0,206.81,157.05Zm1.49,0a.59.59,0,0,1-.39-.17.6.6,0,0,1-.14-.43.57.57,0,0,1,.15-.42.49.49,0,0,1,.38-.15.52.52,0,0,1,.42.19.87.87,0,0,1,.17.59,2.05,2.05,0,0,1-.27,1.05,1.68,1.68,0,0,1-.81.69l-.09-.2a1.24,1.24,0,0,0,.51-.42,1.09,1.09,0,0,0,.22-.57C208.46,157.12,208.41,157.06,208.3,157.06Z"/><path class="cls-2" d="M100.57,168.81v.4H99.35v9.43h1.22V179H98.73V168.81Z"/><path class="cls-2" d="M102.86,170.42h.57l.08,3.32h1.94l.06-3.32h.57l0,3.29c.29,0,.57-.07.85-.12a4.92,4.92,0,0,0,.8-.19v.52a6.25,6.25,0,0,1-1.42.29,14.05,14.05,0,0,1-1.58.08h-2.94v-.55h1.2ZM107,170h-5v-.55h5Zm2,8.13v.57h-5.43v-2.88h.57v2.31Zm1.36-6.44v.57h-1.51v4.17h-.55v-7.53h.55v2.79Z"/><path class="cls-2" d="M117.71,169.78V176h-3.37v-6.23Zm-2.82,5.68h2.27v-5.13h-2.27Zm6.59-6.6v10h-.54v-5.71h-1.5v5.45h-.54V169h.54v3.63h1.5v-3.74Z"/><path class="cls-2" d="M125.29,168.81V179h-1.83v-.39h1.21v-9.43h-1.21v-.4Z"/><path class="cls-2" d="M15.51,189.75l-.37-.42a7.35,7.35,0,0,0,1.51-1.08,7.26,7.26,0,0,0,1.1-1.34,6.39,6.39,0,0,0,.69-1.48,6.3,6.3,0,0,0,.29-1.5l-1.1,0H15.46v-.51H18.2l1.11,0a8.17,8.17,0,0,1-1.06,3.68A7.59,7.59,0,0,1,15.51,189.75Zm5.7-3H19.39v-.53h1.82v-3.56h.51v9.09h-.51Z"/><path class="cls-2" d="M24.66,189.37h-.77v-3.29h2.38v-2.17h-2.4v-.5h2.9v3.17H24.4v2.29h.39a11.52,11.52,0,0,0,2.83-.35V189a6.15,6.15,0,0,1-.62.16l-.75.12-.79.07Zm5.72-6.73v9.09h-.49v-5.29H28.44v5.06H28v-8.76h.49v3.2h1.45v-3.3Z"/><path class="cls-2" d="M36.4,184.9a2.32,2.32,0,0,1-.16.84,2,2,0,0,1-.44.65,1.89,1.89,0,0,1-.65.41,2.18,2.18,0,0,1-.82.15,2.23,2.23,0,0,1-.83-.15,2,2,0,0,1-.65-.41,1.94,1.94,0,0,1-.43-.65,2.32,2.32,0,0,1-.15-.84,2.26,2.26,0,0,1,.15-.85,1.85,1.85,0,0,1,.43-.65,2,2,0,0,1,.65-.42,2.23,2.23,0,0,1,.83-.14,2.17,2.17,0,0,1,.82.14,1.92,1.92,0,0,1,.65.42,1.87,1.87,0,0,1,.44.65A2.26,2.26,0,0,1,36.4,184.9Zm-.52,0a1.67,1.67,0,0,0-.12-.65,1.43,1.43,0,0,0-.32-.5,1.25,1.25,0,0,0-.49-.31,1.56,1.56,0,0,0-.62-.11,1.61,1.61,0,0,0-.63.11,1.32,1.32,0,0,0-.49.31,1.41,1.41,0,0,0-.31.5,1.67,1.67,0,0,0-.12.65,1.61,1.61,0,0,0,.12.63,1.46,1.46,0,0,0,.31.49,1.64,1.64,0,0,0,.49.31,1.81,1.81,0,0,0,.63.11,1.75,1.75,0,0,0,.62-.11,1.52,1.52,0,0,0,.49-.31,1.49,1.49,0,0,0,.32-.49A1.61,1.61,0,0,0,35.88,184.91ZM39,191.13v.5h-5.3v-2.2h4.6v-1.19h-4.6v-.5h5.11v2.17h-4.6v1.22Zm-.71-3.94v-4.55h.52v4.55Z"/><path class="cls-2" d="M41.69,184.42a.45.45,0,0,1,.35.15.52.52,0,0,1,.13.37.54.54,0,0,1-.13.37.45.45,0,0,1-.35.15.45.45,0,0,1-.34-.15.55.55,0,0,1-.14-.37.53.53,0,0,1,.14-.37A.45.45,0,0,1,41.69,184.42Zm0,4.12a.45.45,0,0,1,.35.15.52.52,0,0,1,.13.37.54.54,0,0,1-.13.37.45.45,0,0,1-.35.15.45.45,0,0,1-.34-.15.55.55,0,0,1-.14-.37.53.53,0,0,1,.14-.37A.45.45,0,0,1,41.69,188.54Z"/><path class="cls-2" d="M44.32,184.52a.07.07,0,0,1-.07,0,.05.05,0,0,1,0-.06v-.59a4,4,0,0,1,.8-.55,2.26,2.26,0,0,1,1.05-.24,2.12,2.12,0,0,1,1.45.46A1.83,1.83,0,0,1,48,185a2.18,2.18,0,0,1-.09.63,4.06,4.06,0,0,1-.27.61,6,6,0,0,1-.43.65l-.56.75-2.06,2.57v0h3.51v.5H44v-.49l2.2-2.71c.24-.35.45-.64.62-.87a7.23,7.23,0,0,0,.41-.62,2.18,2.18,0,0,0,.22-.51,1.7,1.7,0,0,0,.07-.51,1.58,1.58,0,0,0-.35-1.08,1.33,1.33,0,0,0-1-.38,1.79,1.79,0,0,0-.91.24A4,4,0,0,0,44.32,184.52Z"/><path class="cls-2" d="M51.82,183.09a1.78,1.78,0,0,1,1.61.94,6,6,0,0,1,.57,3,9.52,9.52,0,0,1-.14,1.73,4,4,0,0,1-.42,1.19,1.9,1.9,0,0,1-.69.69,2.1,2.1,0,0,1-1.87,0,1.8,1.8,0,0,1-.68-.69,3.53,3.53,0,0,1-.42-1.19,8.7,8.7,0,0,1-.14-1.73,6.09,6.09,0,0,1,.56-3A1.79,1.79,0,0,1,51.82,183.09Zm0,.5c-1.1,0-1.65,1.13-1.65,3.41a5.72,5.72,0,0,0,.42,2.53,1.34,1.34,0,0,0,2.46,0,5.72,5.72,0,0,0,.42-2.53C53.47,184.72,52.92,183.59,51.82,183.59Z"/><path class="cls-2" d="M55.79,184.52a.08.08,0,0,1-.08,0,.06.06,0,0,1,0-.06v-.59a3.75,3.75,0,0,1,.8-.55,2.24,2.24,0,0,1,1-.24,2.15,2.15,0,0,1,1.46.46,1.86,1.86,0,0,1,.53,1.46,2.19,2.19,0,0,1-.1.63,2.71,2.71,0,0,1-.27.61,5.84,5.84,0,0,1-.42.65c-.17.22-.36.47-.56.75l-2.07,2.57v0h3.52v.5H55.43v-.49l2.2-2.71.63-.87a6.85,6.85,0,0,0,.4-.62,2.25,2.25,0,0,0,.23-.51A2.1,2.1,0,0,0,59,185a1.57,1.57,0,0,0-.34-1.08,1.36,1.36,0,0,0-1.06-.38,1.79,1.79,0,0,0-.91.24A3.75,3.75,0,0,0,55.79,184.52Z"/><path class="cls-2" d="M61.31,189.5a2.48,2.48,0,0,0,1.91.86,2,2,0,0,0,.64-.11,1.72,1.72,0,0,0,.54-.32,1.61,1.61,0,0,0,.36-.52,1.65,1.65,0,0,0,.13-.68,1.72,1.72,0,0,0-.14-.74,1.47,1.47,0,0,0-.38-.53,1.64,1.64,0,0,0-.58-.32A2.57,2.57,0,0,0,63,187h-.27v-.47h.14a3,3,0,0,0,.53-.07,1.77,1.77,0,0,0,.59-.23,1.57,1.57,0,0,0,.48-.48,1.42,1.42,0,0,0,.2-.8,1.39,1.39,0,0,0-.4-1.05,1.5,1.5,0,0,0-1.07-.39,2.13,2.13,0,0,0-.88.18,3.11,3.11,0,0,0-.86.63s0,0-.07,0a.05.05,0,0,1,0-.06v-.56a1.29,1.29,0,0,1,.33-.25,2.26,2.26,0,0,1,.44-.22,3.8,3.8,0,0,1,.51-.15,2.48,2.48,0,0,1,.54-.06,2.37,2.37,0,0,1,.87.14,1.8,1.8,0,0,1,.63.38,1.6,1.6,0,0,1,.39.59,2,2,0,0,1,.14.74,2.07,2.07,0,0,1-.35,1.18,1.57,1.57,0,0,1-1,.66v0a1.72,1.72,0,0,1,1.06.6,1.76,1.76,0,0,1,.32.59,2.47,2.47,0,0,1,.11.75,2.39,2.39,0,0,1-.14.79,1.85,1.85,0,0,1-.42.68,2.18,2.18,0,0,1-.7.46,2.42,2.42,0,0,1-1,.18,2.88,2.88,0,0,1-.59-.06,4.58,4.58,0,0,1-.56-.15,3.07,3.07,0,0,1-.48-.24,2.4,2.4,0,0,1-.37-.3v-.55s0-.06,0-.07S61.28,189.47,61.31,189.5Z"/><path class="cls-2" d="M67.38,191.91h-.54l2.63-9.34H70Z"/><path class="cls-2" d="M73.51,183.09a1.78,1.78,0,0,1,1.61.94,6,6,0,0,1,.57,3,8.63,8.63,0,0,1-.15,1.73,3.53,3.53,0,0,1-.42,1.19,1.8,1.8,0,0,1-.68.69,2.1,2.1,0,0,1-1.87,0,1.8,1.8,0,0,1-.68-.69,3.75,3.75,0,0,1-.43-1.19,9.52,9.52,0,0,1-.14-1.73,6,6,0,0,1,.57-3A1.79,1.79,0,0,1,73.51,183.09Zm0,.5c-1.1,0-1.65,1.13-1.65,3.41a5.72,5.72,0,0,0,.42,2.53,1.33,1.33,0,0,0,2.45,0,5.7,5.7,0,0,0,.43-2.53C75.16,184.72,74.61,183.59,73.51,183.59Z"/><path class="cls-2" d="M77.26,189.5a2.5,2.5,0,0,0,1.92.86,2,2,0,0,0,.64-.11,1.67,1.67,0,0,0,.53-.32,1.61,1.61,0,0,0,.36-.52,1.51,1.51,0,0,0,.14-.68,1.88,1.88,0,0,0-.14-.74,1.47,1.47,0,0,0-.38-.53,1.68,1.68,0,0,0-.59-.32A2.52,2.52,0,0,0,79,187h-.27v-.47h.15a3.1,3.1,0,0,0,.53-.07,1.86,1.86,0,0,0,.59-.23,1.57,1.57,0,0,0,.48-.48,1.51,1.51,0,0,0,.2-.8,1.39,1.39,0,0,0-.41-1.05,1.48,1.48,0,0,0-1.07-.39,2.12,2.12,0,0,0-.87.18,3.14,3.14,0,0,0-.87.63.06.06,0,0,1-.07,0,.06.06,0,0,1,0-.06v-.56a1.42,1.42,0,0,1,.32-.25,2.58,2.58,0,0,1,.44-.22,3.8,3.8,0,0,1,.51-.15,2.57,2.57,0,0,1,.55-.06,2.32,2.32,0,0,1,.86.14,1.8,1.8,0,0,1,.63.38,1.51,1.51,0,0,1,.4.59,2,2,0,0,1,.13.74,2.07,2.07,0,0,1-.34,1.18,1.56,1.56,0,0,1-1,.66v0a1.72,1.72,0,0,1,.59.2,1.83,1.83,0,0,1,.48.4,1.74,1.74,0,0,1,.31.59,2.19,2.19,0,0,1,.12.75,2.39,2.39,0,0,1-.14.79,2,2,0,0,1-.43.68,2.14,2.14,0,0,1-.69.46,2.42,2.42,0,0,1-1,.18,3.05,3.05,0,0,1-.6-.06,4.41,4.41,0,0,1-.55-.15,3.19,3.19,0,0,1-.49-.24,1.9,1.9,0,0,1-.36-.3v-.55s0-.06,0-.07S77.24,189.47,77.26,189.5Z"/><path class="cls-2" d="M83.34,191.91H82.8l2.62-9.34h.49Z"/><path class="cls-2" d="M89.46,183.09a1.8,1.8,0,0,1,1.62.94,6.07,6.07,0,0,1,.57,3,8.63,8.63,0,0,1-.15,1.73,4,4,0,0,1-.42,1.19,1.8,1.8,0,0,1-.68.69,2.07,2.07,0,0,1-.94.22,2,2,0,0,1-.93-.22,1.9,1.9,0,0,1-.69-.69,3.53,3.53,0,0,1-.42-1.19,9.52,9.52,0,0,1-.14-1.73,6,6,0,0,1,.57-3A1.76,1.76,0,0,1,89.46,183.09Zm0,.5c-1.1,0-1.65,1.13-1.65,3.41a5.56,5.56,0,0,0,.43,2.53,1.33,1.33,0,0,0,2.45,0,5.72,5.72,0,0,0,.42-2.53C91.11,184.72,90.56,183.59,89.46,183.59Z"/><path class="cls-2" d="M95.19,190.85a2.66,2.66,0,0,1-.93-.16,2.31,2.31,0,0,1-.71-.44,1.73,1.73,0,0,1-.45-.65,2,2,0,0,1-.16-.8,2.23,2.23,0,0,1,.34-1.25,1.84,1.84,0,0,1,1.14-.75v0a2.09,2.09,0,0,1-1-.68,1.76,1.76,0,0,1-.35-1.07,2.27,2.27,0,0,1,.13-.75,1.46,1.46,0,0,1,.39-.61,1.66,1.66,0,0,1,.65-.42,2.93,2.93,0,0,1,1.85,0,1.78,1.78,0,0,1,.66.42,1.54,1.54,0,0,1,.38.61,2,2,0,0,1,.13.75,1.76,1.76,0,0,1-.35,1.07,2.09,2.09,0,0,1-1,.68v0a1.84,1.84,0,0,1,1.14.75,2.23,2.23,0,0,1,.34,1.25,2.15,2.15,0,0,1-.15.8,1.71,1.71,0,0,1-.44.65,2.25,2.25,0,0,1-.7.44A2.82,2.82,0,0,1,95.19,190.85Zm0-.43a1.88,1.88,0,0,0,.66-.12,1.79,1.79,0,0,0,.55-.33,1.62,1.62,0,0,0,.39-.53,1.82,1.82,0,0,0,0-1.4,1.87,1.87,0,0,0-.39-.56,1.54,1.54,0,0,0-.55-.36,1.69,1.69,0,0,0-.66-.13,1.74,1.74,0,0,0-.67.13,1.54,1.54,0,0,0-.55.36,1.87,1.87,0,0,0-.39.56,1.82,1.82,0,0,0,0,1.4A1.62,1.62,0,0,0,94,190a1.79,1.79,0,0,0,.55.33A1.93,1.93,0,0,0,95.19,190.42Zm0-3.91a1.89,1.89,0,0,0,.56-.1,1.58,1.58,0,0,0,.51-.28,1.49,1.49,0,0,0,.39-1.74,1.52,1.52,0,0,0-.87-.78,1.82,1.82,0,0,0-1.19,0,1.52,1.52,0,0,0-.87.78,1.54,1.54,0,0,0-.13.63,1.41,1.41,0,0,0,.52,1.11,1.58,1.58,0,0,0,.51.28A1.9,1.9,0,0,0,95.19,186.51Z"/><path class="cls-2" d="M99.85,186a8.25,8.25,0,0,1,.38-1.25,7.54,7.54,0,0,1,.56-1.14,6.64,6.64,0,0,1,.68-1h.32a8.3,8.3,0,0,0-.62,1.09,9.71,9.71,0,0,0-.47,1.16,10.46,10.46,0,0,0-.29,1.2,7,7,0,0,0-.11,1.2,7.14,7.14,0,0,0,.11,1.2,8.77,8.77,0,0,0,.3,1.2,9.85,9.85,0,0,0,.47,1.17,8.18,8.18,0,0,0,.62,1.08h-.33a7.23,7.23,0,0,1-.68-1,7.54,7.54,0,0,1-.56-1.14,8.62,8.62,0,0,1-.38-1.25,6,6,0,0,1,0-2.58Z"/><path class="cls-2" d="M103,188.39v-.5h7.65v.5h-3.51v3.29h-.52v-3.29Zm.6-2.2a4.87,4.87,0,0,0,1.34-.53,4.38,4.38,0,0,0,1-.8,3.25,3.25,0,0,0,.58-1,2.44,2.44,0,0,0,.17-1h.57a2.71,2.71,0,0,1-.15,1,3.51,3.51,0,0,0,.55.79,4.54,4.54,0,0,0,.74.64,6.06,6.06,0,0,0,.87.48,6.22,6.22,0,0,0,.92.31l-.28.5a5.14,5.14,0,0,1-.9-.33,6.18,6.18,0,0,1-.83-.48,4.79,4.79,0,0,1-.73-.62,5.1,5.1,0,0,1-.59-.73,4.36,4.36,0,0,1-1.18,1.34,5.54,5.54,0,0,1-1.77.88Z"/><path class="cls-2" d="M114,187.25a6.29,6.29,0,0,1-.14,1.29,8.62,8.62,0,0,1-.38,1.25,7.54,7.54,0,0,1-.56,1.14,7.23,7.23,0,0,1-.68,1h-.33a9.48,9.48,0,0,0,.62-1.08,9.85,9.85,0,0,0,.47-1.17,8.77,8.77,0,0,0,.3-1.2,7.14,7.14,0,0,0,.11-1.2,7,7,0,0,0-.11-1.2,8.72,8.72,0,0,0-.29-1.2,8.34,8.34,0,0,0-.48-1.16,8.24,8.24,0,0,0-.61-1.09h.32a6.64,6.64,0,0,1,.68,1,7.54,7.54,0,0,1,.56,1.14,8.25,8.25,0,0,1,.38,1.25A6.29,6.29,0,0,1,114,187.25Z"/><path class="cls-2" d="M119.44,184.71v-.4a3.36,3.36,0,0,0,.7-.46,4.63,4.63,0,0,0,.63-.62h.62v7.52h-.51v-6.89h0a5.81,5.81,0,0,1-.7.55,5.54,5.54,0,0,1-.65.36C119.46,184.79,119.44,184.77,119.44,184.71Z"/><path class="cls-2" d="M127.41,183.23H128v5.29h1.09V189H128v1.78h-.48V189h-3.34v-.43Zm.19.44-.3.64-2.56,4.21v0h2.85v-4.87Z"/><path class="cls-2" d="M131.14,184.42a.45.45,0,0,1,.34.15.53.53,0,0,1,.14.37.55.55,0,0,1-.14.37.45.45,0,0,1-.34.15.45.45,0,0,1-.35-.15.54.54,0,0,1-.13-.37.52.52,0,0,1,.13-.37A.45.45,0,0,1,131.14,184.42Zm0,4.12a.45.45,0,0,1,.34.15.53.53,0,0,1,.14.37.55.55,0,0,1-.14.37.45.45,0,0,1-.34.15.45.45,0,0,1-.35-.15.54.54,0,0,1-.13-.37.52.52,0,0,1,.13-.37A.45.45,0,0,1,131.14,188.54Z"/><path class="cls-2" d="M135.53,183.09a1.78,1.78,0,0,1,1.61.94,6,6,0,0,1,.57,3,9.52,9.52,0,0,1-.14,1.73,3.75,3.75,0,0,1-.43,1.19,1.8,1.8,0,0,1-.68.69,2.1,2.1,0,0,1-1.87,0,1.8,1.8,0,0,1-.68-.69,3.53,3.53,0,0,1-.42-1.19,8.7,8.7,0,0,1-.14-1.73,6,6,0,0,1,.56-3A1.79,1.79,0,0,1,135.53,183.09Zm0,.5c-1.1,0-1.65,1.13-1.65,3.41a5.72,5.72,0,0,0,.42,2.53,1.33,1.33,0,0,0,1.23.81,1.31,1.31,0,0,0,1.22-.81,5.56,5.56,0,0,0,.43-2.53C137.18,184.72,136.63,183.59,135.53,183.59Z"/><path class="cls-2" d="M141.26,183.09a1.78,1.78,0,0,1,1.61.94,6,6,0,0,1,.57,3,9.52,9.52,0,0,1-.14,1.73,4,4,0,0,1-.42,1.19,1.9,1.9,0,0,1-.69.69,2.1,2.1,0,0,1-1.87,0,1.88,1.88,0,0,1-.68-.69,3.53,3.53,0,0,1-.42-1.19,8.7,8.7,0,0,1-.14-1.73,6.09,6.09,0,0,1,.56-3A1.79,1.79,0,0,1,141.26,183.09Zm0,.5c-1.1,0-1.65,1.13-1.65,3.41a5.72,5.72,0,0,0,.42,2.53,1.34,1.34,0,0,0,2.46,0,5.72,5.72,0,0,0,.42-2.53C142.91,184.72,142.36,183.59,141.26,183.59Z"/><path class="cls-2" d="M145.74,184.42a.45.45,0,0,1,.35.15.52.52,0,0,1,.13.37.54.54,0,0,1-.13.37.45.45,0,0,1-.35.15.43.43,0,0,1-.34-.15.55.55,0,0,1-.14-.37.53.53,0,0,1,.14-.37A.43.43,0,0,1,145.74,184.42Zm0,4.12a.45.45,0,0,1,.35.15.52.52,0,0,1,.13.37.54.54,0,0,1-.13.37.45.45,0,0,1-.35.15.43.43,0,0,1-.34-.15.55.55,0,0,1-.14-.37.53.53,0,0,1,.14-.37A.43.43,0,0,1,145.74,188.54Z"/><path class="cls-2" d="M150.13,183.09a1.79,1.79,0,0,1,1.62.94,6,6,0,0,1,.57,3,8.63,8.63,0,0,1-.15,1.73,3.76,3.76,0,0,1-.42,1.19,1.8,1.8,0,0,1-.68.69,2.07,2.07,0,0,1-.94.22,2,2,0,0,1-.93-.22,1.9,1.9,0,0,1-.69-.69,4,4,0,0,1-.42-1.19A9.52,9.52,0,0,1,148,187a6,6,0,0,1,.57-3A1.77,1.77,0,0,1,150.13,183.09Zm0,.5c-1.09,0-1.64,1.13-1.64,3.41a5.72,5.72,0,0,0,.42,2.53,1.33,1.33,0,0,0,2.45,0,5.72,5.72,0,0,0,.42-2.53C151.78,184.72,151.23,183.59,150.13,183.59Z"/><path class="cls-2" d="M155.87,183.09a1.78,1.78,0,0,1,1.61.94,6,6,0,0,1,.57,3,8.63,8.63,0,0,1-.15,1.73,3.53,3.53,0,0,1-.42,1.19,1.8,1.8,0,0,1-.68.69,2.1,2.1,0,0,1-1.87,0,1.8,1.8,0,0,1-.68-.69,3.75,3.75,0,0,1-.43-1.19,9.52,9.52,0,0,1-.14-1.73,6,6,0,0,1,.57-3A1.79,1.79,0,0,1,155.87,183.09Zm0,.5c-1.1,0-1.65,1.13-1.65,3.41a5.72,5.72,0,0,0,.42,2.53,1.33,1.33,0,0,0,2.45,0,5.72,5.72,0,0,0,.42-2.53C157.51,184.72,157,183.59,155.87,183.59Z"/><path class="cls-2" d="M181.37,185.47a2.79,2.79,0,0,1-.19,1,2.08,2.08,0,0,1-.53.77,2.4,2.4,0,0,1-.83.47,3.6,3.6,0,0,1-1.08.16h-.85v2.87h-.8v-7.57h1.69a3.75,3.75,0,0,1,1,.13,2.24,2.24,0,0,1,.82.4,1.89,1.89,0,0,1,.56.71A2.41,2.41,0,0,1,181.37,185.47Zm-.84,0a1.7,1.7,0,0,0-.15-.77,1.24,1.24,0,0,0-.4-.47,1.43,1.43,0,0,0-.58-.24,3.74,3.74,0,0,0-.68-.06h-.84v3.24h.71a3.69,3.69,0,0,0,.76-.08,1.68,1.68,0,0,0,.62-.28,1.25,1.25,0,0,0,.41-.52A2,2,0,0,0,180.53,185.49Z"/><path class="cls-2" d="M185.47,190.88a2.73,2.73,0,0,1-1.27-.29,2.87,2.87,0,0,1-.95-.82,3.69,3.69,0,0,1-.58-1.23,5.34,5.34,0,0,1-.21-1.53,5.48,5.48,0,0,1,.21-1.55,3.94,3.94,0,0,1,.58-1.24,2.87,2.87,0,0,1,.95-.82,2.93,2.93,0,0,1,2.54,0,2.74,2.74,0,0,1,.94.82,3.75,3.75,0,0,1,.59,1.24,5.48,5.48,0,0,1,.21,1.55,5.34,5.34,0,0,1-.21,1.53,3.52,3.52,0,0,1-.59,1.23,2.61,2.61,0,0,1-2.21,1.11Zm0-.77a1.8,1.8,0,0,0,.94-.24,2.07,2.07,0,0,0,.67-.65,3.11,3.11,0,0,0,.41-1,5.42,5.42,0,0,0,.13-1.24,5.36,5.36,0,0,0-.13-1.24,3.17,3.17,0,0,0-.41-1,2.11,2.11,0,0,0-.67-.66,2,2,0,0,0-1.88,0,2,2,0,0,0-.67.66,3.17,3.17,0,0,0-.41,1,5.35,5.35,0,0,0-.14,1.24,5.41,5.41,0,0,0,.14,1.24,3.11,3.11,0,0,0,.41,1,2,2,0,0,0,.67.65A1.8,1.8,0,0,0,185.47,190.11Z"/><path class="cls-2" d="M189.87,190.21v-1s0-.07,0-.08,0,0,.07,0a2.7,2.7,0,0,0,.85.68,2.4,2.4,0,0,0,1,.2,1.75,1.75,0,0,0,1.11-.31,1.23,1.23,0,0,0,.37-1,1.34,1.34,0,0,0-.08-.46,1.15,1.15,0,0,0-.25-.37,1.74,1.74,0,0,0-.38-.32,4.53,4.53,0,0,0-.49-.29l-.64-.31a6.15,6.15,0,0,1-.63-.35,2.23,2.23,0,0,1-.48-.43,2,2,0,0,1-.31-.56,2.27,2.27,0,0,1-.11-.72,1.74,1.74,0,0,1,.18-.82,1.56,1.56,0,0,1,.46-.58,2,2,0,0,1,.69-.35,2.91,2.91,0,0,1,.85-.11,3.46,3.46,0,0,1,.89.12,2.22,2.22,0,0,1,.84.42v.74q0,.08,0,.09s-.05,0-.08,0A2.58,2.58,0,0,0,193,184a2.23,2.23,0,0,0-.85-.14,1.7,1.7,0,0,0-1,.25.92.92,0,0,0-.36.81,1.12,1.12,0,0,0,.08.45,1.15,1.15,0,0,0,.22.35,2,2,0,0,0,.35.28,2.74,2.74,0,0,0,.42.21l.66.32a3.71,3.71,0,0,1,1.25.91,1.92,1.92,0,0,1,.42,1.26,2.53,2.53,0,0,1-.17,1,1.85,1.85,0,0,1-.49.67,1.92,1.92,0,0,1-.75.4,3.61,3.61,0,0,1-1,.13,3.5,3.5,0,0,1-1.07-.15A2.13,2.13,0,0,1,189.87,190.21Z"/><path class="cls-2" d="M196.55,184.3a.58.58,0,0,1,.45.19.69.69,0,0,1,.17.48.72.72,0,0,1-.17.48.62.62,0,0,1-.45.19.58.58,0,0,1-.44-.19.67.67,0,0,1-.17-.48.64.64,0,0,1,.17-.48A.55.55,0,0,1,196.55,184.3Zm0,4.06a.58.58,0,0,1,.45.19.69.69,0,0,1,.17.48.72.72,0,0,1-.17.48.62.62,0,0,1-.45.19.58.58,0,0,1-.44-.19.67.67,0,0,1-.17-.48.64.64,0,0,1,.17-.48A.55.55,0,0,1,196.55,188.36Z"/><path class="cls-2" d="M200.94,183.07a1.83,1.83,0,0,1,1.66,1,6.18,6.18,0,0,1,.57,3,5.64,5.64,0,0,1-.58,2.92,1.83,1.83,0,0,1-1.65.92,2,2,0,0,1-.95-.23,1.92,1.92,0,0,1-.7-.69,3.91,3.91,0,0,1-.43-1.2,9.48,9.48,0,0,1-.14-1.72,6.18,6.18,0,0,1,.57-3A1.83,1.83,0,0,1,200.94,183.07Zm0,.7c-.95,0-1.43,1.1-1.43,3.31a5.85,5.85,0,0,0,.36,2.39,1.14,1.14,0,0,0,1.07.74,1.16,1.16,0,0,0,1.08-.74,5.85,5.85,0,0,0,.36-2.39C202.38,184.87,201.9,183.77,200.94,183.77Z"/><path class="cls-2" d="M205.14,184.88v-.62a3.78,3.78,0,0,0,.7-.45,4.4,4.4,0,0,0,.61-.61h.82v7.58h-.78v-6.64h0a5,5,0,0,1-.62.46,4.76,4.76,0,0,1-.63.33C205.17,185,205.14,184.94,205.14,184.88Z"/><path d="M112.08,22.25c-17.25-2-25.31-2.89-37.72-4.36-.44,0-.81,0-.73.61,2.69,9.16,3.05,10.7,6.55,22.62.73,2.16,1.95,2.73,3.13,2.73h57.37c1.18,0,2.4-.57,3.13-2.73,3.5-11.92,3.9-13.38,6.59-22.62,0-.65-.33-.61-.77-.61-12.41,1.47-20.26,2.32-37.55,4.36Z"/><path class="cls-3" d="M112,23.55c15.59-1.75,24.86-2.93,36-4.19.41,0,.77-.29.57.36-1.55,5.46-2,7.12-4.8,16.77-.53,1.7-1.34,1.54-2.61,1.54H82.83c-1.27,0-2,.16-2.61-1.54-2.76-9.65-3.25-11.31-4.8-16.77-.16-.65.2-.4.57-.4,11.19,1.3,20.42,2.48,36,4.23Z"/><path class="cls-3" d="M141.9,39.46a.94.94,0,1,0,.93.93.92.92,0,0,0-.93-.93Zm0,.16h0a.77.77,0,1,1-.74.77.76.76,0,0,1,.74-.77Zm-.33.24v1.06h.16v-.45h.17l.28.45h.2l-.32-.45c.2,0,.28-.12.28-.32s-.12-.29-.36-.29Zm.16.45V40h.21c.16,0,.24.09.24.17s-.08.16-.2.16Z"/><path class="cls-3" d="M92,39.21a1.56,1.56,0,0,0-1.63,1.51A1.66,1.66,0,1,0,92,39.21Zm0,.73a.85.85,0,0,1,.85.78.84.84,0,0,1-.85.89.86.86,0,0,1-.85-.89.88.88,0,0,1,.85-.78Z"/><path class="cls-3" d="M99.59,39.25V40.8c0,.36,0,.81-.53.81s-.53-.45-.53-.81V39.25h-.77v1.63a1.35,1.35,0,0,0,.32,1.1,1.6,1.6,0,0,0,1,.32,1.66,1.66,0,0,0,1-.32,1.47,1.47,0,0,0,.33-1.1V39.25Z"/><path class="cls-3" d="M106.06,40.6v.56h.56a.57.57,0,0,1-.65.57.86.86,0,0,1-.77-.93c0-.45.29-1,.77-1a.74.74,0,0,1,.65.53l.74-.37a1.46,1.46,0,0,0-1.35-.77,1.5,1.5,0,0,0-1.62,1.59A1.52,1.52,0,0,0,106,42.39a1.61,1.61,0,0,0,1.26-.57,2.17,2.17,0,0,0,.29-1.18l-1.46,0Z"/><polygon class="cls-3" points="112.36 40.43 112.36 39.25 111.59 39.25 111.59 42.26 112.36 42.26 112.36 41.08 113.46 41.08 113.46 42.26 114.23 42.26 114.23 39.25 113.46 39.25 113.46 40.43 112.36 40.43 112.36 40.43"/><polygon class="cls-3" points="118.46 42.26 119.24 42.26 119.24 40.43 119.24 40.43 120.66 42.26 121.43 42.26 121.43 39.25 120.66 39.25 120.66 41.12 120.66 41.12 119.24 39.25 118.46 39.25 118.46 42.26 118.46 42.26"/><path class="cls-3" d="M127.45,39.25v1.59c0,.41,0,.77-.52.77s-.53-.36-.53-.77V39.25h-.78V41A1.37,1.37,0,0,0,126,42a1.48,1.48,0,0,0,1,.37,1.5,1.5,0,0,0,1-.37,1.35,1.35,0,0,0,.29-1.06V39.25Z"/><polygon class="cls-3" points="133.64 39.94 134.49 39.94 134.49 39.25 131.97 39.25 131.97 39.94 132.82 39.94 132.82 42.26 133.64 42.26 133.64 39.94 133.64 39.94"/><path class="cls-3" d="M140.19,39.42a3,3,0,0,0-.94-.21,1,1,0,0,0-1,1c0,.57.32.65.81.85.16,0,.45.08.45.33s-.17.28-.37.28a1.22,1.22,0,0,1-.69-.32l-.33.65a2.59,2.59,0,0,0,1.06.37,1.7,1.7,0,0,0,.86-.29,1.28,1.28,0,0,0,.28-.85.87.87,0,0,0-.73-.82l-.21,0c-.12,0-.32-.12-.32-.28a.31.31,0,0,1,.32-.29.85.85,0,0,1,.53.25l.29-.65Z"/><path class="cls-4" d="M139.21,32a2.65,2.65,0,0,0,2.08-.85c.2-.41.12-1.14-.45-1.14s-1.43.4-1.63,2Zm3.3,1.42c-1.63,2.2-4,1.92-4.56-.12a2.73,2.73,0,0,1-2,1.71c-1.26.08-1.39-1.14-1.26-1.83a19.24,19.24,0,0,1,.89-2.44c.33-1-.73-.49-1.3.49L132.82,35a11.29,11.29,0,0,0-1.62-.08c.12-.65,1.05-2.69,1.58-4.19.37-1-.73-.45-1.34.57l0,.08L129.94,35h-1.71l.53-1.38a3.07,3.07,0,0,1-.57.57c-2.2,1.54-3.26.4-3.58-.69-.61.77-1.39,1.5-2,1.42-1.26,0-1-1.91-.73-2.52.57-1.67,1.18-2.28,0-2.32-.2,0-1.59,5.29-4.11,5.57-2.32.16-1.42-1.63-1-2.68.61-1.71,1.27-2.57.94-3.18s-1.67.49-2.07,1.59c-.57,1.38-1.71,4.27-1.71,4.27l-2.16.08s1.79-4.51,3.54-9.11c.57-1.46-.33-1.5-1-1.46s-.36-.45,0-.53c2.12-.17,2.85-.08,3.1.08a.79.79,0,0,1,.32.93c-.36,1-1.06,2.77-1.18,3.06-.28.93.33.08.53-.17a24.8,24.8,0,0,0,1.75-2.07c.28-.33,1.51-1.55,2.28-1.55s20.71,0,21.23,0a2.12,2.12,0,0,0,1.55-.61c.16-.12.37-.12.37.08,0,0-1.06,2.4-2.44,2.4H120.42a3.56,3.56,0,0,0-2.08,1.39c-.65.77.16.48.16.48,1.22-.12,2.32-.4.41,3.79-1.83,4,.9,2.15,2.48-2.73.08-.16-.4-.36-.4-.73s-.17-.9.61-.9.48.74,1.09.9c1.27.41,2,0,1.31,1.67-.65,1.5-1.35,3.42-.53,3.21s.89-.85,1-1.14v-.16a4.17,4.17,0,0,1,1.88-3.34c1.91-.85,2.64.25,2.56,1.27-.08,1.22-1.47,2.07-3,2.11,0,0,0,0,0,.24.24,1.79,2.28.78,3.37-.4l1.39-3.5,1.75,0L132,29.94c1.3-1.55,2.69-1.14,2.56.24l0-.08c1.51-2,3.22-1.22,2.61.57-.08.24-.94,2.64-.94,2.64s-.24.82.29.82,1-.82,1.3-1.55v0a3.77,3.77,0,0,1,1.67-3.34c1.91-.81,2.72.29,2.72,1.27,0,1.22-1.38,2.07-3,2.11,0,0,0,0,0,.24.41,2.16,2.57.74,2.85.33.81-.94.77-.28.41.24ZM125.87,32a2.63,2.63,0,0,0,2.07-.85c.25-.41.21-1.14-.36-1.14s-1.39.4-1.71,2ZM95.76,25.83a.89.89,0,0,1,.9-.94.88.88,0,0,1,.85.94.86.86,0,0,1-.85.89.88.88,0,0,1-.9-.89Zm10.7,10.82a3.25,3.25,0,0,0,1.22-1.34,4.67,4.67,0,0,0-1.42.77c-.49.45-.25.85.2.57Zm-2.68-2.36a5.56,5.56,0,0,0,2.76-2.85c.57-1.38,1-2.52,1-2.52h1.63s-1.18,2.81-1.67,4.31c-.49,1.34.89.2,1.42-1.3s1.1-3,1.1-3h1.75s-2,5-2.2,5.45c.61-.16,1.43.29,1.35.57-.29.81-.45-.45-1.63-.08-.65,1.55-2.08,2.93-3.21,2.77-1.51-.21-.61-2.24,1.87-2.93l.2-.61c-1.3,1-2.52.4-2.24-.86a3.52,3.52,0,0,1-3.09,1.43,1.31,1.31,0,0,1-1.38-.57c-.41,1-1,2.48-1,2.48H98.81l.86-2.16a3.65,3.65,0,0,1-2,.45A1.58,1.58,0,0,1,95.8,34c-1.22,1.63-2.56,1-2.76,0-.53.49-1.06,1-1.59.9-1.26,0-.94-1.91-.73-2.52.57-1.67,1.18-2.28,0-2.32-.2,0-1.59,5.29-4.07,5.57-2.32.16-1.42-1.63-1.06-2.68.61-1.71,1.26-2.57.94-3.18s-1.67.49-2.08,1.59c-.57,1.38-1.71,4.27-1.71,4.27l-2.15.08s1.79-4.51,3.54-9.11c.57-1.46-.33-1.5-1-1.46s-.36-.45.08-.53c2.08-.17,2.81-.08,3.09.08a.85.85,0,0,1,.33.93c-.41,1-1.1,2.77-1.18,3.06-.33.93.33.08.49-.17s1.5-1.67,1.79-2.07,1.46-1.55,2.28-1.55h5.41a1.43,1.43,0,0,0-.33.94,1.32,1.32,0,0,0,.37.93H89.29a3.57,3.57,0,0,0-2.07,1.39c-.61.77.16.48.16.48,1.22-.12,2.32-.4.41,3.79-1.83,4,.89,2.15,2.52-2.73,0-.16-.41-.36-.45-.73s-.12-.9.61-.9.49.74,1.1.9c1.3.41,2,0,1.3,1.67-.61,1.5-1.34,3.42-.48,3.21a1.32,1.32,0,0,0,.77-.69c.89-2.36,1.63-4.23,1.63-4.23h1.62s-.61,1.55-1.79,4.51c-.4,1,.45.45,1.06-.2a.89.89,0,0,1,.57-.81L99,28.59s.12.09,0,.33A5,5,0,0,0,99.34,31c.21.7.57,2.44-.4,3.26a2.26,2.26,0,0,1-.53.36A3.36,3.36,0,0,0,99.87,34l1.95-5h1.63a3.16,3.16,0,0,0-.16.41,1.87,1.87,0,0,1,1.5-.45c.45.16,2,.28.29,3.7a4.52,4.52,0,0,1-1.3,1.71Zm-6.92-1.87a1,1,0,0,1-.08,1.71c-.24.16.85.73,1.34-.41a3.07,3.07,0,0,0-.24-2.48c-.16.16-.53.57-1,1.18Zm6.06-1.91c-.12.2-1,2.31-1,2.31-.25.61.12.9.36.94.53.12,1.06-.28,1.67-1.79.9-2.36-.77-2-1.06-1.46ZM97.8,24.85c5.94,0,13.14,0,13.46,0a2,2,0,0,0,1.55-.61c.16-.12.36-.12.36.08,0,0-1,2.4-2.44,2.4H97.8a1.54,1.54,0,0,0,.32-.93,1.69,1.69,0,0,0-.32-1Z"/><path class="cls-3" d="M84.66,39.94h.16a.79.79,0,0,1,.85.86.77.77,0,0,1-.85.81h-.16V39.94Zm-.78,2.32H85a1.49,1.49,0,0,0,1.51-1.46A1.54,1.54,0,0,0,85,39.25h-1.1v3Z"/><rect class="cls-5" x="14.75" y="199.79" width="194.13" height="7.84"/><rect class="cls-5" x="14.75" y="226.67" width="84.89" height="7.84"/><rect class="cls-5" x="137.48" y="226.67" width="14.7" height="7.84"/><rect class="cls-5" x="178.99" y="226.67" width="28.72" height="7.84"/><path class="cls-2" d="M18.83,219.24a7.08,7.08,0,0,1-.84-1,9.09,9.09,0,0,1-.66-1.19,8.06,8.06,0,0,1-2,2.54l-.4-.36a7.55,7.55,0,0,0,1.22-1.25,8.63,8.63,0,0,0,.83-1.37,7.62,7.62,0,0,0,.51-1.4,9,9,0,0,0,.23-1.36l-.8,0H15.41v-.5h1.95l.92,0a12.46,12.46,0,0,1-.22,1.61,8.57,8.57,0,0,1-.48,1.54,8.07,8.07,0,0,0,.72,1.29,6.2,6.2,0,0,0,.94,1.09Zm.94-3.42v-3.19h.49v8.76h-.49v-5.07H18.51v-.5Zm2.13-3.29v9.09h-.5v-9.09Z"/><path class="cls-2" d="M32.38,221.48H27.2v-2.8h2.3v-1.23H25.87V217h7.84v.5H30v1.23h2.34Zm.32-6.19v.5H26.89v-.5H28l-.1-1.57h.52l.1,1.57H31l.11-1.57h.53l-.11,1.57Zm-.13-2H27v-.5h5.55Zm-.7,7.68v-1.82H27.71V221Z"/><path class="cls-2" d="M41.21,213v.89h2.07v-1.33h.51v5.41h-.51v-1.72H41.21v.88h-3.7V213ZM38,216.6h2.68v-3.13H38Zm3.14,5.09a4.72,4.72,0,0,1-1.12-.13,2.82,2.82,0,0,1-.82-.36,1.69,1.69,0,0,1-.53-.57,1.53,1.53,0,0,1,0-1.44,1.73,1.73,0,0,1,.53-.55,2.77,2.77,0,0,1,.83-.35,5.19,5.19,0,0,1,2.22,0,2.88,2.88,0,0,1,.83.35,1.6,1.6,0,0,1,.52.55,1.53,1.53,0,0,1,0,1.44,1.57,1.57,0,0,1-.52.57,2.89,2.89,0,0,1-.83.36A4.63,4.63,0,0,1,41.17,221.69Zm0-.5a2.86,2.86,0,0,0,1.58-.37,1.05,1.05,0,0,0,.54-.89,1.07,1.07,0,0,0-.53-.9,2.83,2.83,0,0,0-1.59-.36,2.87,2.87,0,0,0-1.6.36,1,1,0,0,0,0,1.79A2.87,2.87,0,0,0,41.17,221.19Zm2.11-6.85H41.21v1.38h2.07Z"/><path class="cls-2" d="M137.31,218.28v-.5H145v.5h-3.5v3.29h-.53v-3.29Zm.6-2.2a4.68,4.68,0,0,0,1.33-.53,4.16,4.16,0,0,0,1-.8,3,3,0,0,0,.59-1,2.44,2.44,0,0,0,.17-1h.57a2.71,2.71,0,0,1-.15,1,3.21,3.21,0,0,0,.55.79,4.54,4.54,0,0,0,.74.64,6.06,6.06,0,0,0,.87.48,6.52,6.52,0,0,0,.91.31l-.28.5a5,5,0,0,1-.89-.33,4.59,4.59,0,0,1-.83-.48,4.79,4.79,0,0,1-.73-.62,5.1,5.1,0,0,1-.59-.73A4.4,4.4,0,0,1,140,215.7a5.49,5.49,0,0,1-1.76.88Z"/><path class="cls-2" d="M146.74,215.41V217h1.17a15.61,15.61,0,0,0,1.93-.11,11.66,11.66,0,0,0,1.48-.3v.5a9.72,9.72,0,0,1-1.62.31,19,19,0,0,1-1.91.1h-1.57v-2.59h3.06v-1.49H146.2v-.5h3.6v2.49Zm3,6.27a4.72,4.72,0,0,1-1.12-.13,2.82,2.82,0,0,1-.82-.36,1.57,1.57,0,0,1-.52-.54,1.29,1.29,0,0,1,0-1.35,1.64,1.64,0,0,1,.52-.53,2.77,2.77,0,0,1,.83-.35,5.19,5.19,0,0,1,2.22,0,2.88,2.88,0,0,1,.83.35,1.64,1.64,0,0,1,.52.53,1.36,1.36,0,0,1,0,1.35,1.57,1.57,0,0,1-.52.54,2.89,2.89,0,0,1-.83.36A4.63,4.63,0,0,1,149.72,221.68Zm0-.5a3.57,3.57,0,0,0,.91-.1,2.22,2.22,0,0,0,.66-.26,1.13,1.13,0,0,0,.4-.38.81.81,0,0,0,.13-.45.87.87,0,0,0-.13-.46,1.22,1.22,0,0,0-.4-.38,2.05,2.05,0,0,0-.65-.26,4.22,4.22,0,0,0-.92-.09,4.15,4.15,0,0,0-.92.09,2.22,2.22,0,0,0-.66.26,1.29,1.29,0,0,0-.39.38.87.87,0,0,0-.13.46.81.81,0,0,0,.13.45,1.13,1.13,0,0,0,.4.38,2.22,2.22,0,0,0,.66.26A3.52,3.52,0,0,0,149.72,221.18Zm2.52-8.65v1.39h1.34v.5h-1.34v1.47h1.34v.5h-1.34v1.78h-.5v-5.64Z"/><path class="cls-2" d="M184.06,216.13h5.77c.06-.47.12-.94.16-1.41s.06-.94.06-1.41h-4.76v-.52h5.3c0,.6,0,1.17-.09,1.71s-.09,1.07-.16,1.63h1.55v.5h-7.83Zm6.51,5.34h-5.19V218.2h5.19Zm-.52-.5V218.7H185.9V221Z"/><path class="cls-2" d="M200.41,213a1.68,1.68,0,0,1,.61.44,2.12,2.12,0,0,1,.4.69,2.93,2.93,0,0,1,0,1.79,2.12,2.12,0,0,1-.4.69,1.68,1.68,0,0,1-.61.44,1.76,1.76,0,0,1-.76.16,1.71,1.71,0,0,1-.75-.16,1.79,1.79,0,0,1-.59-.44,1.94,1.94,0,0,1-.39-.69,2.93,2.93,0,0,1,0-1.79,1.94,1.94,0,0,1,.39-.69,1.79,1.79,0,0,1,.59-.44,1.71,1.71,0,0,1,.75-.16A1.76,1.76,0,0,1,200.41,213Zm-1.31.46a1.27,1.27,0,0,0-.43.34,1.57,1.57,0,0,0-.28.53,2.47,2.47,0,0,0,0,1.39,1.78,1.78,0,0,0,.28.53,1.41,1.41,0,0,0,.43.34,1.26,1.26,0,0,0,.55.12,1.28,1.28,0,0,0,.56-.12,1.34,1.34,0,0,0,.44-.34,1.6,1.6,0,0,0,.29-.53,2.25,2.25,0,0,0,0-1.39,1.42,1.42,0,0,0-.29-.53,1.22,1.22,0,0,0-.44-.34,1.28,1.28,0,0,0-.56-.12A1.26,1.26,0,0,0,199.1,213.46Zm5.56,8.18h-.51V219h-4.84v-.5h5.35Zm0-9.11v5.32h-.5v-2.56h-1.35v2.56h-.49v-5.22h.49v2.16h1.35v-2.26Z"/><rect class="cls-6" x="13.31" y="112.69" width="98.7" height="15.06"/><rect class="cls-6" x="41.82" y="180.09" width="57.83" height="11.81"/><rect class="cls-6" x="117.39" y="180.09" width="43.41" height="11.81"/><circle class="cls-7" cx="6.95" cy="117.28" r="4.89"/><path class="cls-8" d="M7.71,114.82v4.92h-1v-3.32H5.8v-.79a1,1,0,0,0,.69-.22.75.75,0,0,0,.29-.59Z"/><circle class="cls-7" cx="35.55" cy="184.98" r="4.89"/><path class="cls-8" d="M36.73,182.86a1.44,1.44,0,0,1,.39,1.07,1.5,1.5,0,0,1-.28.86,3.36,3.36,0,0,1-.86.79,2.41,2.41,0,0,0-.54.51,1.33,1.33,0,0,0-.25.56h1.93v.79H34.76a.6.6,0,0,1-.41-.16.52.52,0,0,1-.18-.42,2,2,0,0,1,.28-.9,2.31,2.31,0,0,1,.89-1,1.72,1.72,0,0,0,.55-.56,1.19,1.19,0,0,0,.19-.6.77.77,0,0,0-.11-.44.42.42,0,0,0-.65,0,.87.87,0,0,0-.11.44H34.14a1.51,1.51,0,0,1,.46-1,1.46,1.46,0,0,1,1-.36A1.5,1.5,0,0,1,36.73,182.86Z"/><circle class="cls-7" cx="111.19" cy="184.98" r="4.89"/><path class="cls-8" d="M112.28,182.79a1.1,1.1,0,0,1,.39.92,1.4,1.4,0,0,1-.22.75.87.87,0,0,1-.58.41.94.94,0,0,1,.7.38,1.29,1.29,0,0,1,.27.8,1.38,1.38,0,0,1-1.49,1.45,1.87,1.87,0,0,1-1.07-.31,1.37,1.37,0,0,1-.54-1.05h1a.58.58,0,0,0,.16.42.5.5,0,0,0,.39.15.44.44,0,0,0,.35-.18.76.76,0,0,0,.14-.46.73.73,0,0,0-.23-.57.84.84,0,0,0-.68-.17v-.8a.68.68,0,0,0,.53-.18.58.58,0,0,0,.2-.46.62.62,0,0,0-.1-.37.33.33,0,0,0-.29-.14.39.39,0,0,0-.31.13.54.54,0,0,0-.11.32h-1a1.44,1.44,0,0,1,.44-1,1.58,1.58,0,0,1,1.07-.35A1.49,1.49,0,0,1,112.28,182.79Z"/></g></g></svg>