<svg xmlns="http://www.w3.org/2000/svg" xmlns:xlink="http://www.w3.org/1999/xlink" viewBox="0 0 222.38 240"><defs><style>.cls-1,.cls-7{fill:none;}.cls-2{clip-path:url(#clip-path);}.cls-3{fill:url(#Degradado_sin_nombre_552);}.cls-4,.cls-6{fill:#002525;}.cls-5,.cls-9{fill:#fff;}.cls-5,.cls-6{fill-rule:evenodd;}.cls-7{stroke:red;stroke-miterlimit:10;}.cls-8{fill:red;}</style><clipPath id="clip-path"><rect class="cls-1" width="222.38" height="240"/></clipPath><linearGradient id="Degradado_sin_nombre_552" x1="111.19" y1="363.45" x2="111.19" y2="-1.77" gradientUnits="userSpaceOnUse"><stop offset="0" stop-color="#f6f7eb"/><stop offset="1" stop-color="#f9f9f7"/></linearGradient></defs><g id="Layer_2" data-name="Layer 2"><g id="Objects"><g class="cls-2"><polygon class="cls-3" points="218.1 -1.77 213.82 6.79 209.55 -1.77 205.27 6.79 200.99 -1.77 196.72 6.79 192.44 -1.77 188.16 6.79 183.89 -1.77 179.61 6.79 175.34 -1.77 171.06 6.79 166.78 -1.77 162.51 6.79 158.23 -1.77 153.95 6.79 149.68 -1.77 145.4 6.79 141.12 -1.77 136.85 6.79 132.57 -1.77 128.29 6.79 124.02 -1.77 119.74 6.79 115.47 -1.77 111.19 6.79 106.91 -1.77 102.64 6.79 98.36 -1.77 94.08 6.79 89.81 -1.77 85.53 6.79 81.25 -1.77 76.98 6.79 72.7 -1.77 68.42 6.79 64.15 -1.77 59.87 6.79 55.59 -1.77 51.32 6.79 47.04 -1.77 42.77 6.79 38.49 -1.77 34.21 6.79 29.93 -1.77 25.66 6.79 21.38 -1.77 17.11 6.79 12.83 -1.77 8.55 6.79 4.28 -1.77 0 6.79 0 354.9 4.28 363.45 8.55 354.9 12.83 363.45 17.11 354.9 21.38 363.45 25.66 354.9 29.93 363.45 34.21 354.9 38.49 363.45 42.77 354.9 47.04 363.45 51.32 354.9 55.59 363.45 59.87 354.9 64.15 363.45 68.42 354.9 72.7 363.45 76.98 354.9 81.25 363.45 85.53 354.9 89.81 363.45 94.08 354.9 98.36 363.45 102.64 354.9 106.91 363.45 111.19 354.9 115.47 363.45 119.74 354.9 124.02 363.45 128.29 354.9 132.57 363.45 136.85 354.9 141.12 363.45 145.4 354.9 149.68 363.45 153.95 354.9 158.23 363.45 162.51 354.9 166.78 363.45 171.06 354.9 175.34 363.45 179.61 354.9 183.89 363.45 188.16 354.9 192.44 363.45 196.72 354.9 200.99 363.45 205.27 354.9 209.55 363.45 213.82 354.9 218.1 363.45 222.38 354.9 222.38 6.79 218.1 -1.77"/><path class="cls-4" d="M15.32,51.26a.58.58,0,0,1,.39.16.57.57,0,0,1,.14.43.61.61,0,0,1-.14.42.53.53,0,0,1-.39.15.54.54,0,0,1-.42-.18.92.92,0,0,1-.16-.6,2.08,2.08,0,0,1,.26-1,1.69,1.69,0,0,1,.81-.7l.09.2a1.31,1.31,0,0,0-.51.42,1.21,1.21,0,0,0-.22.57A.15.15,0,0,0,15.32,51.26Zm1.5,0a.63.63,0,0,1,.39.16.62.62,0,0,1,.14.43.55.55,0,0,1-.15.42.49.49,0,0,1-.38.15.57.57,0,0,1-.43-.18,1,1,0,0,1-.16-.6,2,2,0,0,1,.27-1,1.69,1.69,0,0,1,.81-.7l.09.2a1.18,1.18,0,0,0-.51.42,1.15,1.15,0,0,0-.22.57C16.66,51.2,16.71,51.26,16.82,51.27Z"/><path class="cls-4" d="M20,54.77v-.56h2.9q.67,0,1.29,0l1.16-.1c0-.44.06-.87.08-1.29s0-.84.05-1.25H20.25V51h5.82c0,.54,0,1.11-.06,1.69s-.09,1.18-.15,1.76-.13,1.17-.21,1.74-.16,1.12-.26,1.64h2v.55H19V57.8h5.92c.09-.48.17-1,.25-1.54s.14-1.11.2-1.68c-.38.06-.79.1-1.22.14s-.88.05-1.36.05Z"/><path class="cls-4" d="M30,54.46v2.61h1.31a16.13,16.13,0,0,0,2.19-.13,12.51,12.51,0,0,0,1.75-.36v.54a13.74,13.74,0,0,1-1.83.38,18.59,18.59,0,0,1-2.25.13H29.38V53.91H33V51.44H29.36v-.55h4.16v3.57Zm5.78,5.63v-10h.58v10Z"/><path class="cls-4" d="M38.67,58h8.41v.56H38.67Zm.62-2.53a4.92,4.92,0,0,0,1.53-.79,4.66,4.66,0,0,0,1.09-1.13,4.4,4.4,0,0,0,.62-1.38,5.34,5.34,0,0,0,.16-1.55h.63a7.07,7.07,0,0,1-.15,1.48,4.84,4.84,0,0,0,.58,1.16,6.16,6.16,0,0,0,1.78,1.66,5.65,5.65,0,0,0,1,.46l-.32.56a5.14,5.14,0,0,1-1-.48,6.52,6.52,0,0,1-1.71-1.56,5.47,5.47,0,0,1-.62-1,5.22,5.22,0,0,1-1.27,1.87,6.48,6.48,0,0,1-2,1.26Z"/><path class="cls-4" d="M49.59,52h.58l.1,4.94h2.12l.1-4.94h.58L53,56.9c.33,0,.65-.06,1-.11a5.9,5.9,0,0,0,.92-.23v.53a6.1,6.1,0,0,1-1.38.3,13.17,13.17,0,0,1-1.55.09H48.54v-.55h1.15Zm4.33-.46H48.75V51h5.17Zm1.54,8.56v-10H56v10Z"/><path class="cls-4" d="M59.46,54.77v-.56h2.91c.45,0,.87,0,1.29,0l1.15-.1.09-1.29c0-.43,0-.84,0-1.25H59.7V51h5.82c0,.54,0,1.11-.07,1.69s-.08,1.18-.14,1.76-.13,1.17-.21,1.74-.17,1.12-.26,1.64h2v.55H58.4V57.8h5.91c.1-.48.18-1,.26-1.54s.14-1.11.19-1.68c-.38.06-.78.1-1.21.14s-.89.05-1.36.05Z"/><path class="cls-4" d="M69.42,53.14V54.8h1.29a15.76,15.76,0,0,0,2.18-.14,12.51,12.51,0,0,0,1.75-.36v.53a11.81,11.81,0,0,1-1.9.38,17.2,17.2,0,0,1-2.17.14H68.86V52.59H72.4V51.07H68.83v-.55H73v2.62Zm6.33,3.41v3.39H70.22V56.55Zm-.56,2.83V57.1h-4.4v2.28Zm0-3.49v-5.8h.57v5.8Z"/><path class="cls-4" d="M78.12,58h8.41v.55H78.12Zm7.19-4.73a2.78,2.78,0,0,1-.19,1,2.32,2.32,0,0,1-.57.85,2.72,2.72,0,0,1-.93.58,3.67,3.67,0,0,1-1.29.21A3.63,3.63,0,0,1,81,55.74a2.63,2.63,0,0,1-.93-.58,2.45,2.45,0,0,1-.57-.85,2.94,2.94,0,0,1,0-2.08,2.36,2.36,0,0,1,.57-.85A2.58,2.58,0,0,1,81,50.8a3.63,3.63,0,0,1,1.29-.21,3.67,3.67,0,0,1,1.29.21,2.58,2.58,0,0,1,.93.58,2.24,2.24,0,0,1,.57.85A2.78,2.78,0,0,1,85.31,53.27Zm-.57,0a2.31,2.31,0,0,0-.13-.77,1.74,1.74,0,0,0-.41-.69,2.38,2.38,0,0,0-.75-.49,3.08,3.08,0,0,0-1.12-.19,3,3,0,0,0-1.11.19,2.17,2.17,0,0,0-.75.49,1.89,1.89,0,0,0-.42.69,2.35,2.35,0,0,0,0,1.54,1.89,1.89,0,0,0,.42.69,2.17,2.17,0,0,0,.75.49,3,3,0,0,0,1.11.18,3.09,3.09,0,0,0,1.12-.18,2.38,2.38,0,0,0,.75-.49,1.74,1.74,0,0,0,.41-.69A2.31,2.31,0,0,0,84.74,53.27Z"/><path class="cls-4" d="M95.25,56.17H92.47v2h3.92v.55H88v-.55h3.89v-2H89.38v-3h5V51.42h-5v-.57h5.53v2.91H90v1.86h5.29Z"/><path class="cls-4" d="M101.51,54.49V50.57h4.11v.55h-3.54v2.82h1.44a17,17,0,0,0,2-.11c.61-.07,1.11-.16,1.53-.25v.53c-.22,0-.47.11-.76.15l-.91.13-1,.07-1,0Zm6.79,4.94V60h-5.71V57.54h4.94V56.22h-4.94v-.55h5.5v2.4h-4.94v1.36Zm1.3-7.18v.57h-1.51v2.24h-.56v-5h.56v2.16Z"/><path class="cls-4" d="M114.24,53.4h.6v1.43h4.59v.55h-8.62v-.55h3.43Zm-1.95-3H118c0,.67,0,1.31-.11,1.94s-.13,1.23-.22,1.82h-.56l.12-.8c0-.28.06-.55.1-.83-.4.06-.81.11-1.26.14s-.91,0-1.4,0h-2.5v-.55h2.68c.46,0,.91,0,1.34,0S117,52,117.34,52l0-.55c0-.18,0-.36,0-.53h-5.1ZM118,59.94h-5.7V56.57H118Zm-.56-.56V57.12h-4.58v2.26Z"/><path class="cls-4" d="M126.1,52.06h-5.34v-.55h5.34Zm-4.76,2.45a1.89,1.89,0,0,1,.13-.7,1.67,1.67,0,0,1,.4-.59,1.81,1.81,0,0,1,.64-.41,2.61,2.61,0,0,1,.92-.15,2.52,2.52,0,0,1,.91.15,1.81,1.81,0,0,1,.66.41,1.79,1.79,0,0,1,.39.59,1.89,1.89,0,0,1,.13.7,1.85,1.85,0,0,1-.13.7,1.69,1.69,0,0,1-1,1,2.52,2.52,0,0,1-.91.15,2.61,2.61,0,0,1-.92-.15,1.79,1.79,0,0,1-.64-.4,1.67,1.67,0,0,1-.4-.59A1.85,1.85,0,0,1,121.34,54.51Zm.52,0A1.36,1.36,0,0,0,122,55a1.22,1.22,0,0,0,.29.42,1.57,1.57,0,0,0,.49.3,2.25,2.25,0,0,0,1.39,0,1.57,1.57,0,0,0,.49-.3,1.25,1.25,0,0,0,.3-.42,1.37,1.37,0,0,0,.1-.48,1.28,1.28,0,0,0-.1-.47,1.21,1.21,0,0,0-.3-.41,1.57,1.57,0,0,0-.49-.3,2.07,2.07,0,0,0-1.39,0,1.57,1.57,0,0,0-.49.3A1.18,1.18,0,0,0,122,54,1.27,1.27,0,0,0,121.86,54.51Zm3-3.77H122v-.57h2.83ZM128,59.33v.55h-5.44V57.43h.56v1.9Zm1.36-5.83v.58h-1.51v3.71h-.55v-7.7h.55V53.5Z"/><path class="cls-4" d="M133.48,57.44a6.74,6.74,0,0,0,1.14-1.07,6.21,6.21,0,0,0,.9-1.43,7.6,7.6,0,0,0,.56-1.87,10.37,10.37,0,0,0,.13-2.36h.6c0,.46,0,.9,0,1.32s-.09.82-.16,1.21a8,8,0,0,0,1.08,2.2,6.88,6.88,0,0,0,1.68,1.72l-.44.48a8.09,8.09,0,0,1-1.45-1.52,8.5,8.5,0,0,1-1.08-2,7.43,7.43,0,0,1-1,2.15,7.3,7.3,0,0,1-1.51,1.63Zm9-3.52v.58h-1.64v5.59h-.55v-10h.55v3.83Z"/><path class="cls-4" d="M144.69,53.26V55H146a16.59,16.59,0,0,0,2.13-.12,10.63,10.63,0,0,0,1.63-.33v.55a11.74,11.74,0,0,1-1.78.34,20,20,0,0,1-2.11.11h-1.72V52.71h3.37V51.07H144.1v-.55h4v2.74ZM148,60.15a4.62,4.62,0,0,1-1.23-.14,2.81,2.81,0,0,1-.91-.39,1.69,1.69,0,0,1-.57-.59,1.49,1.49,0,0,1,0-1.49,1.75,1.75,0,0,1,.57-.58,3,3,0,0,1,.92-.39,5,5,0,0,1,1.22-.13,5.13,5.13,0,0,1,1.22.13,3,3,0,0,1,.91.39,1.89,1.89,0,0,1,.58.58,1.47,1.47,0,0,1,.19.75,1.48,1.48,0,0,1-.19.74,1.81,1.81,0,0,1-.58.59,2.81,2.81,0,0,1-.91.39A4.6,4.6,0,0,1,148,60.15Zm0-.54a4.31,4.31,0,0,0,1-.11,2.4,2.4,0,0,0,.72-.28,1.19,1.19,0,0,0,.44-.42.91.91,0,0,0,.15-.5.94.94,0,0,0-.15-.5,1.24,1.24,0,0,0-.43-.42,2.4,2.4,0,0,0-.72-.29,5.2,5.2,0,0,0-2,0,2.64,2.64,0,0,0-.72.29,1.33,1.33,0,0,0-.43.42.93.93,0,0,0-.14.5.9.9,0,0,0,.14.5,1.27,1.27,0,0,0,.44.42,2.52,2.52,0,0,0,.72.28A4.34,4.34,0,0,0,148,59.61Zm4.28-7.07v.57h-1.51v3.08h-.55v-6.1h.55v2.45Z"/><path class="cls-4" d="M153.46,54.45h8.62V55h-8.62Zm7.32-2.57a1.4,1.4,0,0,1-.75,1.24,5.53,5.53,0,0,1-4.46,0,1.4,1.4,0,0,1-.75-1.24,1.38,1.38,0,0,1,.19-.71,1.66,1.66,0,0,1,.56-.56,3.34,3.34,0,0,1,.93-.37,6.21,6.21,0,0,1,1.3-.13,6.14,6.14,0,0,1,1.3.13,3.22,3.22,0,0,1,.93.37,1.66,1.66,0,0,1,.56.56A1.48,1.48,0,0,1,160.78,51.88Zm.11,8.17h-6V57.78h5.17V56.65h-5.17V56.1h5.73v2.2h-5.17v1.22h5.42Zm-.68-8.17a.88.88,0,0,0-.14-.45,1.32,1.32,0,0,0-.44-.39,2.9,2.9,0,0,0-.76-.27,5.41,5.41,0,0,0-2.17,0A2.82,2.82,0,0,0,156,51a1.27,1.27,0,0,0-.43.39.86.86,0,0,0-.13.45,1,1,0,0,0,.56.83,3.84,3.84,0,0,0,1.84.33,3.89,3.89,0,0,0,1.84-.33A1,1,0,0,0,160.21,51.88Z"/><path class="cls-4" d="M168.94,57.23h-1.87V50.86h.57v5.79h1.44a12.77,12.77,0,0,0,1.93-.14,8.62,8.62,0,0,0,1.47-.32v.57l-.74.18-.88.16-1,.1Zm6.32-3.47v.59h-1.69v5.74H173v-10h.56v3.67Z"/><path class="cls-4" d="M176.49,56.38v-.55h8.41v.55h-3.85V60h-.58V56.38Zm7.33-2.2H178V50.34h.58v3.27h5.2Z"/><path class="cls-4" d="M186.16,57.56a7.45,7.45,0,0,0,1-1.21,7.18,7.18,0,0,0,.76-1.49,8.09,8.09,0,0,0,.44-1.82,12,12,0,0,0,.07-2.2H189c0,.4,0,.79,0,1.18s0,.75-.1,1.12a8.87,8.87,0,0,0,.76,2.19A7.37,7.37,0,0,0,191,57.21l-.46.39A8.68,8.68,0,0,1,189.42,56a8.43,8.43,0,0,1-.74-1.83,8.91,8.91,0,0,1-.79,2,7.79,7.79,0,0,1-1.28,1.71Zm5.42-4.05V50.2h.53v9.64h-.53V54.06H190v-.55ZM194,50.09v10h-.55v-10Z"/><path class="cls-4" d="M202,56.09h.56v2.08h2v.56h-8.4v-.56h2.09V56.09h.57v2.08H202Zm1.36-2.86a2.66,2.66,0,0,1-.2,1,2.61,2.61,0,0,1-.59.84,2.83,2.83,0,0,1-.94.56,3.89,3.89,0,0,1-1.27.19,3.77,3.77,0,0,1-1.25-.19,2.69,2.69,0,0,1-.93-.56,2.44,2.44,0,0,1-.58-.84,2.5,2.5,0,0,1-.21-1,2.59,2.59,0,0,1,.21-1,2.47,2.47,0,0,1,.58-.85,2.54,2.54,0,0,1,.93-.56,3.52,3.52,0,0,1,1.25-.21,3.64,3.64,0,0,1,1.27.21,2.51,2.51,0,0,1,1.53,1.41A2.77,2.77,0,0,1,203.4,53.23Zm-.57,0a2.24,2.24,0,0,0-.15-.81,1.91,1.91,0,0,0-.46-.67,2.23,2.23,0,0,0-.76-.47,3.33,3.33,0,0,0-2.1,0,2.18,2.18,0,0,0-.75.47,1.89,1.89,0,0,0-.45.67,2.05,2.05,0,0,0-.16.81,2,2,0,0,0,.16.79,1.85,1.85,0,0,0,.45.66,2.14,2.14,0,0,0,.75.45,3.33,3.33,0,0,0,2.1,0,2.19,2.19,0,0,0,.76-.45,1.88,1.88,0,0,0,.46-.66A2.13,2.13,0,0,0,202.83,53.23Z"/><path class="cls-4" d="M206.81,51.28a.59.59,0,0,1-.39-.17.6.6,0,0,1-.14-.43.61.61,0,0,1,.14-.42.53.53,0,0,1,.39-.15.52.52,0,0,1,.42.19.87.87,0,0,1,.16.59,2.05,2.05,0,0,1-.27,1,1.56,1.56,0,0,1-.8.69l-.09-.2a1.38,1.38,0,0,0,.51-.41,1.25,1.25,0,0,0,.22-.58A.14.14,0,0,0,206.81,51.28Zm1.49,0a.59.59,0,0,1-.39-.17.58.58,0,0,1-.14-.43.57.57,0,0,1,.15-.42.49.49,0,0,1,.38-.15.55.55,0,0,1,.42.19.87.87,0,0,1,.17.59,2.05,2.05,0,0,1-.27,1.05,1.63,1.63,0,0,1-.81.69l-.09-.2a1.31,1.31,0,0,0,.51-.41,1.15,1.15,0,0,0,.22-.58C208.46,51.35,208.41,51.3,208.3,51.29Z"/><path class="cls-4" d="M15,66.74a9,9,0,0,1,.41-1.37,9.21,9.21,0,0,1,.62-1.26,7.14,7.14,0,0,1,.75-1.06h.35a8.83,8.83,0,0,0-.68,1.2A9.48,9.48,0,0,0,16,65.53a7.5,7.5,0,0,0-.33,1.32,7.34,7.34,0,0,0-.12,1.31,7.53,7.53,0,0,0,.12,1.32A7.83,7.83,0,0,0,16,70.81a12.71,12.71,0,0,0,.52,1.28,8.72,8.72,0,0,0,.68,1.19h-.36a7.24,7.24,0,0,1-.75-1.07,8.34,8.34,0,0,1-1-2.62,6.84,6.84,0,0,1,0-2.85Z"/><path class="cls-4" d="M18.47,69.25V68.7h8.41v.55H23V73h-.57V69.25Zm1.44-5.79h3.82c.41,0,.85,0,1.31,0a.14.14,0,0,1,.14.08.18.18,0,0,1,0,.16,4.33,4.33,0,0,1-.7,1.14,6.74,6.74,0,0,1-1.13,1,11.3,11.3,0,0,0,1.48.73,9.11,9.11,0,0,0,1.55.46l-.29.57a7.55,7.55,0,0,1-.82-.25c-.29-.09-.57-.21-.86-.33s-.55-.26-.81-.41a6.3,6.3,0,0,1-.72-.45,10.1,10.1,0,0,1-1.64.85,12.84,12.84,0,0,1-1.93.64l-.24-.55a10.51,10.51,0,0,0,1.88-.57,11.93,11.93,0,0,0,1.6-.81,7.66,7.66,0,0,0,1.2-.91,2.65,2.65,0,0,0,.65-.84c-.35,0-.71,0-1.07,0H19.91Z"/><path class="cls-4" d="M30.56,68.16a7,7,0,0,1-.15,1.43,8.34,8.34,0,0,1-1,2.62,7.24,7.24,0,0,1-.75,1.07h-.36A11.48,11.48,0,0,0,29,72.09a12.71,12.71,0,0,0,.52-1.28,7.83,7.83,0,0,0,.33-1.33,7.53,7.53,0,0,0,.12-1.32,7.34,7.34,0,0,0-.12-1.31,7.5,7.5,0,0,0-.33-1.32A9.48,9.48,0,0,0,29,64.25a11.64,11.64,0,0,0-.68-1.2h.35a7.14,7.14,0,0,1,.75,1.06A9.21,9.21,0,0,1,30,65.37a9,9,0,0,1,.41,1.37A6.92,6.92,0,0,1,30.56,68.16Z"/><path class="cls-4" d="M34.21,63.93v-.58h5.55v2.34h-5v1.25H40v.55h-2.7v1.23h4v.55H32.7v-.55h4V67.49H34.21V65.14h5V63.93Zm-.62,8.63A6.67,6.67,0,0,0,35,72.14,4.43,4.43,0,0,0,36,71.51a2.48,2.48,0,0,0,.66-.8,2.05,2.05,0,0,0,.23-.95h.6a2.38,2.38,0,0,1-.16.85,2.27,2.27,0,0,0,.53.65,3.72,3.72,0,0,0,.77.56,5.19,5.19,0,0,0,1,.44,6.24,6.24,0,0,0,1.07.29l-.3.52a6,6,0,0,1-2-.75,3.8,3.8,0,0,1-1.31-1.23,3.83,3.83,0,0,1-1.3,1.22,6.53,6.53,0,0,1-1.92.76Z"/><path class="cls-4" d="M43.55,70.46h-.92V64h3.11v.55H43.18v5.38h.5a9.82,9.82,0,0,0,1.64-.12,9.11,9.11,0,0,0,1.21-.28V70a4,4,0,0,1-.63.18l-.75.13c-.26,0-.53.06-.8.08Zm3.75-3.72V63.2h.54v9.64H47.3V67.29H45.24v-.55Zm2.52-3.65v10h-.55v-10Z"/><path class="cls-4" d="M57.58,65.05a2.42,2.42,0,0,0-.83-.61,2.8,2.8,0,0,0-1.18-.24,3.5,3.5,0,0,0-1.27.23,2.82,2.82,0,0,0-1,.68,3.2,3.2,0,0,0-.68,1.14,4.71,4.71,0,0,0-.24,1.57,5.1,5.1,0,0,0,.26,1.72,3.26,3.26,0,0,0,.71,1.16,2.91,2.91,0,0,0,1,.65,3.78,3.78,0,0,0,1.2.2,2.53,2.53,0,0,0,1-.18,2,2,0,0,0,.65-.44V68.37h-2v-.52h2.52v3.5a5.63,5.63,0,0,1-.54.33,4.09,4.09,0,0,1-.52.23,3.53,3.53,0,0,1-.56.14,4.57,4.57,0,0,1-.67,0A3.92,3.92,0,0,1,54,71.83a3.26,3.26,0,0,1-1.17-.8,3.85,3.85,0,0,1-.77-1.33,5.47,5.47,0,0,1-.28-1.84,5.25,5.25,0,0,1,.29-1.79,3.76,3.76,0,0,1,.78-1.32,3.44,3.44,0,0,1,1.18-.82,3.72,3.72,0,0,1,1.46-.28,4.06,4.06,0,0,1,1.25.17,2.82,2.82,0,0,1,.93.51V65s0,.07,0,.08A.09.09,0,0,1,57.58,65.05Z"/><path class="cls-4" d="M62.76,68.39h0L64.67,72H64l-1.73-3.47H60.41V72h-.56V63.76h2.08a2.57,2.57,0,0,1,1.88.63,2.24,2.24,0,0,1,.64,1.68A2.48,2.48,0,0,1,64,67.51,2.31,2.31,0,0,1,62.76,68.39Zm1.13-2.31a2,2,0,0,0-.14-.81,1.54,1.54,0,0,0-.4-.56,1.82,1.82,0,0,0-.62-.32,2.68,2.68,0,0,0-.78-.1H60.39V68h1.45a2.21,2.21,0,0,0,1.49-.48A1.75,1.75,0,0,0,63.89,66.08Z"/><path class="cls-4" d="M66.1,71.33v-.66s0-.06,0-.07,0,0,.07,0a2.4,2.4,0,0,0,.84.66,2.58,2.58,0,0,0,1.15.25,2,2,0,0,0,1.4-.45,1.57,1.57,0,0,0,.52-1.27,1.46,1.46,0,0,0-.12-.62,1.43,1.43,0,0,0-.33-.47,2,2,0,0,0-.49-.36c-.19-.11-.39-.22-.61-.32l-.73-.34a6.75,6.75,0,0,1-.66-.35,2.3,2.3,0,0,1-.53-.44,1.8,1.8,0,0,1-.34-.57,2.16,2.16,0,0,1-.12-.76,2,2,0,0,1,.17-.87,1.75,1.75,0,0,1,.5-.61,2.16,2.16,0,0,1,.74-.38,3.41,3.41,0,0,1,.92-.12,3.27,3.27,0,0,1,1,.15,2.59,2.59,0,0,1,.87.46v.61s0,.06,0,.07,0,0-.07,0a3.34,3.34,0,0,0-.76-.53,2.12,2.12,0,0,0-.93-.22,2.78,2.78,0,0,0-.72.1,1.67,1.67,0,0,0-.57.27,1.27,1.27,0,0,0-.53,1.08,1.26,1.26,0,0,0,.12.57,1.31,1.31,0,0,0,.33.44,2,2,0,0,0,.46.34,5.28,5.28,0,0,0,.53.27l.71.32a3.67,3.67,0,0,1,1.37,1,2,2,0,0,1,.46,1.31,2.5,2.5,0,0,1-.18,1,2.09,2.09,0,0,1-.51.73,2.26,2.26,0,0,1-.8.47,3.13,3.13,0,0,1-1,.16A3.36,3.36,0,0,1,67,71.91,2.29,2.29,0,0,1,66.1,71.33Z"/><path class="cls-4" d="M75.9,67.77v-.56h2.91c.44,0,.87,0,1.28,0l1.16-.1c0-.44.06-.87.08-1.29s0-.84.06-1.25H76.14V64H82c0,.54,0,1.11-.06,1.69s-.09,1.18-.15,1.76-.12,1.17-.2,1.74-.17,1.12-.26,1.64h2v.55H74.83V70.8h5.92c.09-.48.18-1,.25-1.54s.14-1.11.2-1.68c-.38.06-.79.1-1.22.14s-.88,0-1.35,0Z"/><path class="cls-4" d="M85.35,67.46v2.61h1.31a16,16,0,0,0,2.19-.13,12.51,12.51,0,0,0,1.75-.36v.54a13.1,13.1,0,0,1-1.83.38,18.41,18.41,0,0,1-2.24.13H84.78V66.91h3.58V64.44h-3.6v-.55h4.17v3.57Zm5.79,5.63v-10h.58v10Z"/><path class="cls-4" d="M93.6,71H102v.56H93.6Zm.62-2.53a5,5,0,0,0,1.53-.79,4.49,4.49,0,0,0,1.71-2.51,5,5,0,0,0,.15-1.55h.63a6,6,0,0,1-.15,1.48,4.87,4.87,0,0,0,.59,1.16,5.7,5.7,0,0,0,.82.94,5.47,5.47,0,0,0,1,.72,5.35,5.35,0,0,0,1,.46l-.32.56a5.22,5.22,0,0,1-1-.48,6.52,6.52,0,0,1-1.71-1.56,5.47,5.47,0,0,1-.62-1,5.1,5.1,0,0,1-1.27,1.87,6.25,6.25,0,0,1-2,1.26Z"/><path class="cls-4" d="M104,65h.58l.09,4.94h2.13l.1-4.94h.57l-.1,4.91c.34,0,.66-.06,1-.11a5.9,5.9,0,0,0,.92-.23v.53a6.1,6.1,0,0,1-1.38.3,13.3,13.3,0,0,1-1.55.09H103v-.55h1.15Zm4.33-.46H103.2V64h5.17Zm1.53,8.56v-10h.58v10Z"/><path class="cls-4" d="M113.43,67.77v-.56h2.91c.44,0,.87,0,1.28,0l1.16-.1c0-.44.06-.87.08-1.29s0-.84.06-1.25h-5.25V64h5.82c0,.54,0,1.11-.07,1.69s-.08,1.18-.14,1.76-.13,1.17-.21,1.74-.17,1.12-.26,1.64h2v.55h-8.4V70.8h5.91c.09-.48.18-1,.26-1.54s.14-1.11.19-1.68c-.38.06-.78.1-1.22.14s-.88,0-1.35,0Z"/><path class="cls-4" d="M122.91,66.14V67.8h1.29a15.76,15.76,0,0,0,2.18-.14,12.22,12.22,0,0,0,1.75-.36v.53a11.81,11.81,0,0,1-1.9.38,17.2,17.2,0,0,1-2.17.14h-1.71V65.59h3.54V64.07h-3.56v-.55h4.13v2.62Zm6.33,3.41v3.39h-5.53V69.55Zm-.56,2.83V70.1h-4.4v2.28Zm0-3.49v-5.8h.57v5.8Z"/><path class="cls-4" d="M137.37,72.1a3.06,3.06,0,0,1-1.39-.31,2.81,2.81,0,0,1-1-.88,4,4,0,0,1-.61-1.34,7.28,7.28,0,0,1,0-3.39,4,4,0,0,1,.61-1.34,2.81,2.81,0,0,1,1-.88,3,3,0,0,1,3.78.88,4.19,4.19,0,0,1,.62,1.35,7.28,7.28,0,0,1,0,3.39,4.08,4.08,0,0,1-.62,1.33,2.84,2.84,0,0,1-1,.88A3,3,0,0,1,137.37,72.1Zm0-.55a2.24,2.24,0,0,0,1.14-.28,2.32,2.32,0,0,0,.83-.76,3.41,3.41,0,0,0,.51-1.16A6,6,0,0,0,140,67.9a6.2,6.2,0,0,0-.17-1.48,3.46,3.46,0,0,0-.51-1.17,2.47,2.47,0,0,0-.83-.78,2.46,2.46,0,0,0-2.28,0,2.41,2.41,0,0,0-.81.78,3.66,3.66,0,0,0-.5,1.17,5.73,5.73,0,0,0-.17,1.48,5.55,5.55,0,0,0,.17,1.45,3.6,3.6,0,0,0,.5,1.16,2.25,2.25,0,0,0,2,1Z"/><path class="cls-4" d="M145.36,72.1a3.06,3.06,0,0,1-1.39-.31,2.81,2.81,0,0,1-1-.88,4,4,0,0,1-.61-1.34,7.28,7.28,0,0,1,0-3.39,4,4,0,0,1,.61-1.34,2.81,2.81,0,0,1,1-.88,2.94,2.94,0,0,1,1.39-.32,3,3,0,0,1,1.38.32,3,3,0,0,1,1,.88,4.19,4.19,0,0,1,.62,1.35,7.28,7.28,0,0,1,0,3.39,4.08,4.08,0,0,1-.62,1.33,2.93,2.93,0,0,1-1,.88A3.11,3.11,0,0,1,145.36,72.1Zm0-.55a2.24,2.24,0,0,0,1.14-.28,2.32,2.32,0,0,0,.83-.76,3.61,3.61,0,0,0,.51-1.16A6,6,0,0,0,148,67.9a6.2,6.2,0,0,0-.17-1.48,3.67,3.67,0,0,0-.51-1.17,2.47,2.47,0,0,0-.83-.78,2.24,2.24,0,0,0-1.14-.28,2.22,2.22,0,0,0-1.14.28,2.54,2.54,0,0,0-.82.78,3.65,3.65,0,0,0-.49,1.17,5.73,5.73,0,0,0-.17,1.48,5.55,5.55,0,0,0,.17,1.45,3.59,3.59,0,0,0,.49,1.16,2.37,2.37,0,0,0,.82.76A2.22,2.22,0,0,0,145.35,71.55Z"/><path class="cls-4" d="M150.5,63.56h2.83l1.15,0A4.65,4.65,0,0,1,154.1,65a7.09,7.09,0,0,1-.77,1.29,7.33,7.33,0,0,0,1,.92,7.52,7.52,0,0,0,1.24.8l-.41.51c-.19-.11-.39-.23-.59-.37s-.39-.29-.58-.45l-.53-.48a6.54,6.54,0,0,1-.45-.5,8.7,8.7,0,0,1-1.28,1.15,8.39,8.39,0,0,1-1.43.83l-.38-.52a7.87,7.87,0,0,0,1.49-.83,7.21,7.21,0,0,0,1.16-1,6.14,6.14,0,0,0,.8-1.1,4.07,4.07,0,0,0,.41-1.11l-1.08,0H150.5Zm6.83,5.93v3.43H151.8V69.49Zm-.56,2.88V70h-4.4v2.33Zm0-6.23h-1.93v-.57h1.93V63.09h.56v5.74h-.56Z"/><path class="cls-4" d="M14.59,78.37v-.44a4,4,0,0,0,.77-.5,4.5,4.5,0,0,0,.69-.69h.69V85h-.56V77.43h0a5.27,5.27,0,0,1-.77.61,4.29,4.29,0,0,1-.71.39Q14.59,78.47,14.59,78.37Z"/><path class="cls-4" d="M22.53,76.59a2,2,0,0,1,1.77,1,6.57,6.57,0,0,1,.63,3.28,10.49,10.49,0,0,1-.16,1.91,4,4,0,0,1-.47,1.3,1.89,1.89,0,0,1-.75.76,2.13,2.13,0,0,1-1,.24,2.16,2.16,0,0,1-1-.24,2,2,0,0,1-.75-.76,4,4,0,0,1-.46-1.3,10.49,10.49,0,0,1-.16-1.91,6.57,6.57,0,0,1,.63-3.28A2,2,0,0,1,22.53,76.59Zm0,.54c-1.21,0-1.82,1.26-1.82,3.76a6.28,6.28,0,0,0,.47,2.79,1.47,1.47,0,0,0,2.69,0,6.28,6.28,0,0,0,.47-2.79C24.34,78.39,23.73,77.13,22.53,77.13Z"/><path class="cls-4" d="M30.85,77.46a3,3,0,0,0-.59-.3,2.17,2.17,0,0,0-.67-.09,1.82,1.82,0,0,0-1.05.31,2.83,2.83,0,0,0-.78.86,4.87,4.87,0,0,0-.49,1.27,7,7,0,0,0-.2,1.55h0A2.09,2.09,0,0,1,27.84,80a2.18,2.18,0,0,1,1.21-.34,1.87,1.87,0,0,1,.88.21,2.09,2.09,0,0,1,.7.56,2.66,2.66,0,0,1,.46.85,3.4,3.4,0,0,1,.17,1.08,3.77,3.77,0,0,1-.17,1.16,2.45,2.45,0,0,1-.48.87,2,2,0,0,1-.74.56,2.32,2.32,0,0,1-1,.19,2,2,0,0,1-1.09-.29,2.17,2.17,0,0,1-.74-.79,3.81,3.81,0,0,1-.43-1.22,8.3,8.3,0,0,1-.13-1.55,8.56,8.56,0,0,1,.17-1.65,5.41,5.41,0,0,1,.55-1.51,3.26,3.26,0,0,1,.94-1.1,2.33,2.33,0,0,1,1.4-.43,2.86,2.86,0,0,1,.75.09,3.07,3.07,0,0,1,.62.24v.52s0,.06,0,.07A.08.08,0,0,1,30.85,77.46Zm-3.71,5a2.63,2.63,0,0,0,.13.84,2.36,2.36,0,0,0,.38.7,1.73,1.73,0,0,0,.56.48,1.46,1.46,0,0,0,.71.17,1.52,1.52,0,0,0,.79-.19,2,2,0,0,0,.56-.51,2.36,2.36,0,0,0,.32-.72,3.21,3.21,0,0,0,.1-.81,3.41,3.41,0,0,0-.1-.85,2.16,2.16,0,0,0-.32-.72,1.75,1.75,0,0,0-.55-.5,1.49,1.49,0,0,0-.75-.18,1.61,1.61,0,0,0-.78.18,1.82,1.82,0,0,0-.56.51,2.45,2.45,0,0,0-.34.73A4.06,4.06,0,0,0,27.14,82.42Z"/><path class="cls-4" d="M37.2,80.35v.55H33.06v-.55Z"/><path class="cls-4" d="M41.43,85.12a2.73,2.73,0,0,1-1-.18,2.36,2.36,0,0,1-.78-.47,2.27,2.27,0,0,1-.5-.72,2.34,2.34,0,0,1-.17-.88,2.5,2.5,0,0,1,.38-1.38,2.06,2.06,0,0,1,1.25-.82v0a2.16,2.16,0,0,1-1.08-.75,1.89,1.89,0,0,1-.38-1.17,2.49,2.49,0,0,1,.14-.83,1.81,1.81,0,0,1,.42-.67,2,2,0,0,1,.72-.45,3.15,3.15,0,0,1,2,0,2,2,0,0,1,.72.45,1.81,1.81,0,0,1,.42.67,2.26,2.26,0,0,1,.14.83,1.89,1.89,0,0,1-.38,1.17,2.25,2.25,0,0,1-1.08.75v0a2.06,2.06,0,0,1,1.25.82,2.42,2.42,0,0,1,.38,1.38,2.33,2.33,0,0,1-.16.88,2,2,0,0,1-.49.72,2.21,2.21,0,0,1-.77.47A2.89,2.89,0,0,1,41.43,85.12Zm0-.47a2,2,0,0,0,.73-.13,1.79,1.79,0,0,0,.61-.36,1.63,1.63,0,0,0,.42-.58,1.81,1.81,0,0,0,.16-.78,1.77,1.77,0,0,0-.16-.77,1.85,1.85,0,0,0-.42-.61,1.9,1.9,0,0,0-.61-.4,1.83,1.83,0,0,0-.73-.14,1.86,1.86,0,0,0-.73.14,1.9,1.9,0,0,0-.61.4,1.85,1.85,0,0,0-.42.61,1.77,1.77,0,0,0-.16.77,1.81,1.81,0,0,0,.16.78,1.63,1.63,0,0,0,.42.58,1.79,1.79,0,0,0,.61.36A2,2,0,0,0,41.43,84.65Zm0-4.3a1.93,1.93,0,0,0,.62-.11,1.76,1.76,0,0,0,.57-.31,1.62,1.62,0,0,0,.41-.51,1.58,1.58,0,0,0,.15-.71A1.52,1.52,0,0,0,43,78a1.74,1.74,0,0,0-.39-.53,1.84,1.84,0,0,0-.56-.33,2.08,2.08,0,0,0-.66-.11,2.12,2.12,0,0,0-.66.11,1.84,1.84,0,0,0-.56.33,1.74,1.74,0,0,0-.39.53,1.67,1.67,0,0,0-.14.69,1.46,1.46,0,0,0,.16.71,1.38,1.38,0,0,0,.41.51,1.61,1.61,0,0,0,.56.31A2,2,0,0,0,41.43,80.35Z"/><path class="cls-4" d="M46.11,78.37v-.44a4.07,4.07,0,0,0,.78-.5,5,5,0,0,0,.69-.69h.68V85h-.55V77.43h0a5.87,5.87,0,0,1-.77.61,4.35,4.35,0,0,1-.72.39Q46.11,78.47,46.11,78.37Z"/><path class="cls-4" d="M56.11,80.35v.55H52v-.55Z"/><path class="cls-4" d="M58.41,78.16a.07.07,0,0,1-.08,0,.1.1,0,0,1,0-.08v-.65a4.74,4.74,0,0,1,.89-.59,2.41,2.41,0,0,1,1.15-.27,2.36,2.36,0,0,1,1.6.51,2,2,0,0,1,.58,1.6,2.38,2.38,0,0,1-.11.7,3.48,3.48,0,0,1-.29.67,7.21,7.21,0,0,1-.47.71c-.18.25-.39.52-.62.82l-2.27,2.83v0h3.87V85H58v-.54l2.42-3,.68-1a5.64,5.64,0,0,0,.45-.68,2.88,2.88,0,0,0,.25-.55,2.07,2.07,0,0,0,.07-.57,1.71,1.71,0,0,0-.38-1.18,1.52,1.52,0,0,0-1.16-.43,1.92,1.92,0,0,0-1,.27A4.52,4.52,0,0,0,58.41,78.16Z"/><path class="cls-4" d="M64.49,83.64a2.72,2.72,0,0,0,2.1.94,2.12,2.12,0,0,0,.71-.12,1.74,1.74,0,0,0,.59-.35,1.72,1.72,0,0,0,.4-.57,2,2,0,0,0,.14-.75,2,2,0,0,0-.15-.81,1.63,1.63,0,0,0-1.07-.93,2.62,2.62,0,0,0-.82-.12h-.3v-.52h.16a2.82,2.82,0,0,0,.59-.07,2,2,0,0,0,.65-.26,1.75,1.75,0,0,0,.53-.52,1.7,1.7,0,0,0,.22-.89,1.52,1.52,0,0,0-.45-1.15,1.62,1.62,0,0,0-1.18-.43,2.39,2.39,0,0,0-1,.2,3.46,3.46,0,0,0-1,.69s0,0-.08,0a.07.07,0,0,1,0-.07v-.62a1.53,1.53,0,0,1,.36-.27,3.07,3.07,0,0,1,.48-.24,3.62,3.62,0,0,1,.56-.17,3.07,3.07,0,0,1,.6-.07,2.74,2.74,0,0,1,1,.16,2,2,0,0,1,.7.42,1.8,1.8,0,0,1,.43.65,2.12,2.12,0,0,1,.15.81,2.23,2.23,0,0,1-.38,1.3,1.71,1.71,0,0,1-1.06.72v0a2.1,2.1,0,0,1,.65.23,1.82,1.82,0,0,1,.52.44,2.07,2.07,0,0,1,.35.64,2.73,2.73,0,0,1,.12.83,2.57,2.57,0,0,1-.15.87,2.3,2.3,0,0,1-.46.75,2.46,2.46,0,0,1-.77.51,2.71,2.71,0,0,1-1.06.19,3.57,3.57,0,0,1-.65-.06,3.62,3.62,0,0,1-.61-.17,2.48,2.48,0,0,1-.54-.27,2.24,2.24,0,0,1-.4-.32v-.61s0-.06,0-.07S64.46,83.61,64.49,83.64Z"/><path class="cls-4" d="M73.79,76.74h.7v5.82H75.7v.49H74.49v2H74v-2H70.29v-.47Zm.21.48-.33.71-2.8,4.63v0H74V77.22Z"/><path class="cls-4" d="M77.31,84.26a1.87,1.87,0,0,0,.52.22,2.27,2.27,0,0,0,.75.11,2,2,0,0,0,1-.28,2.41,2.41,0,0,0,.8-.79A4.61,4.61,0,0,0,81,82.27a8.06,8.06,0,0,0,.21-1.64h0a2.32,2.32,0,0,1-.3.56,2.4,2.4,0,0,1-.45.45,2.05,2.05,0,0,1-.59.3,2.09,2.09,0,0,1-.72.11,2.06,2.06,0,0,1-.91-.2,2,2,0,0,1-.69-.57,2.52,2.52,0,0,1-.43-.85,3.64,3.64,0,0,1-.15-1.07,3.82,3.82,0,0,1,.17-1.16,2.49,2.49,0,0,1,.48-.88,2.15,2.15,0,0,1,.75-.55,2.24,2.24,0,0,1,.95-.2,2,2,0,0,1,1.22.35,2.13,2.13,0,0,1,.73.89,4.06,4.06,0,0,1,.36,1.24,10.7,10.7,0,0,1,.09,1.39,8.38,8.38,0,0,1-.17,1.75,5,5,0,0,1-.53,1.49,3.1,3.1,0,0,1-1,1,2.43,2.43,0,0,1-1.4.39,2.76,2.76,0,0,1-.77-.1,3.33,3.33,0,0,1-.58-.23v-.47C77.23,84.23,77.26,84.22,77.31,84.26Zm3.7-5a3,3,0,0,0-.12-.85,2.24,2.24,0,0,0-.35-.71,1.61,1.61,0,0,0-.55-.49,1.46,1.46,0,0,0-.73-.18,1.42,1.42,0,0,0-.78.2,1.81,1.81,0,0,0-.57.53,2.57,2.57,0,0,0-.34.75,3.24,3.24,0,0,0-.11.82,3.33,3.33,0,0,0,.1.84,2.12,2.12,0,0,0,.31.72,1.72,1.72,0,0,0,.55.49,1.58,1.58,0,0,0,.78.18,1.5,1.5,0,0,0,.78-.19,1.64,1.64,0,0,0,.55-.5,2.77,2.77,0,0,0,.33-.74A4.17,4.17,0,0,0,81,79.27Z"/><path class="cls-4" d="M85.57,85.12a2.73,2.73,0,0,1-1-.18,2.26,2.26,0,0,1-.78-.47,2.12,2.12,0,0,1-.5-.72,2.34,2.34,0,0,1-.17-.88,2.42,2.42,0,0,1,.38-1.38,2.06,2.06,0,0,1,1.25-.82v0a2.23,2.23,0,0,1-1.09-.75,1.88,1.88,0,0,1-.37-1.17,2.26,2.26,0,0,1,.14-.83,1.81,1.81,0,0,1,.42-.67,2,2,0,0,1,.72-.45,2.63,2.63,0,0,1,1-.17,2.66,2.66,0,0,1,1,.17,2,2,0,0,1,.72.45,2,2,0,0,1,.42.67,2.49,2.49,0,0,1,.14.83,1.89,1.89,0,0,1-.38,1.17,2.23,2.23,0,0,1-1.09.75v0a2.05,2.05,0,0,1,1.26.82A2.5,2.5,0,0,1,88,82.87a2.34,2.34,0,0,1-.17.88,2.07,2.07,0,0,1-.48.72,2.17,2.17,0,0,1-.78.47A2.8,2.8,0,0,1,85.57,85.12Zm0-.47a2,2,0,0,0,.72-.13,1.74,1.74,0,0,0,.62-.36,1.92,1.92,0,0,0,.42-.58,1.81,1.81,0,0,0,.16-.78,1.77,1.77,0,0,0-.16-.77,2.21,2.21,0,0,0-.42-.61,1.84,1.84,0,0,0-.62-.4,1.78,1.78,0,0,0-.72-.14,1.83,1.83,0,0,0-.73.14,1.8,1.8,0,0,0-.61.4,2,2,0,0,0-.43.61,1.93,1.93,0,0,0-.16.77,2,2,0,0,0,.16.78,1.79,1.79,0,0,0,.43.58,1.7,1.7,0,0,0,.61.36A2,2,0,0,0,85.57,84.65Zm0-4.3a2,2,0,0,0,.62-.11,1.61,1.61,0,0,0,.56-.31,1.49,1.49,0,0,0,.41-.51,1.46,1.46,0,0,0,.16-.71,1.67,1.67,0,0,0-.14-.69,1.74,1.74,0,0,0-.39-.53,1.89,1.89,0,0,0-.57-.33,2,2,0,0,0-1.31,0,1.84,1.84,0,0,0-.56.33A1.46,1.46,0,0,0,84,78a1.52,1.52,0,0,0-.15.69,1.58,1.58,0,0,0,.16.71,1.62,1.62,0,0,0,.41.51,1.76,1.76,0,0,0,.57.31A1.88,1.88,0,0,0,85.57,80.35Z"/><path class="cls-4" d="M94.31,80.8h-2V76.43h.58v3.82h1.5a11.58,11.58,0,0,0,1.94-.15,9.8,9.8,0,0,0,1.49-.34v.55a7.16,7.16,0,0,1-.74.19c-.28.06-.57.11-.89.15s-.64.08-1,.11S94.62,80.8,94.31,80.8ZM99,82.23v3.69H93.54V82.23Zm-.55,3.14V82.78H94.1v2.59Zm2.06-7V79H99v2.62h-.55V76.09H99v2.29Z"/><path class="cls-4" d="M107.52,76.52a2.16,2.16,0,0,1,.73.5,2.56,2.56,0,0,1,.48.78,3,3,0,0,1,.17,1,2.91,2.91,0,0,1-.17,1,2.4,2.4,0,0,1-.48.77,2.13,2.13,0,0,1-.73.49,2.27,2.27,0,0,1-.91.18,2.37,2.37,0,0,1-.93-.18,2,2,0,0,1-.72-.49,2.1,2.1,0,0,1-.48-.77,2.7,2.7,0,0,1-.18-1,2.76,2.76,0,0,1,.18-1A2.22,2.22,0,0,1,105,77a2,2,0,0,1,.72-.5,2.37,2.37,0,0,1,.93-.18A2.27,2.27,0,0,1,107.52,76.52Zm-1.61.51a1.41,1.41,0,0,0-.54.4A1.93,1.93,0,0,0,105,78a2.36,2.36,0,0,0-.13.78,2.39,2.39,0,0,0,.13.77,2,2,0,0,0,.36.6,1.6,1.6,0,0,0,.54.38,1.8,1.8,0,0,0,1.39,0,1.6,1.6,0,0,0,.54-.38,2,2,0,0,0,.36-.6,2.38,2.38,0,0,0,0-1.55,1.93,1.93,0,0,0-.36-.61,1.41,1.41,0,0,0-.54-.4,1.8,1.8,0,0,0-1.39,0Zm5.62,9.09H111v-3H105.8v-.55h5.73ZM111,81.89v-5.8h.57v5.8Z"/><path class="cls-4" d="M116.15,82.42v-.56h8.41v.56H120.7V86h-.58V82.42Zm1.27-4a1.86,1.86,0,0,1,.21-.87,2.2,2.2,0,0,1,.6-.7,3,3,0,0,1,1-.46,4.72,4.72,0,0,1,2.51,0,3.05,3.05,0,0,1,.94.46,2.2,2.2,0,0,1,.6.7,1.89,1.89,0,0,1,0,1.73,2.1,2.1,0,0,1-.6.7,3.07,3.07,0,0,1-.94.47,4.72,4.72,0,0,1-2.51,0,3,3,0,0,1-1-.47,2.1,2.1,0,0,1-.6-.7A1.85,1.85,0,0,1,117.42,78.47Zm.57,0a1.24,1.24,0,0,0,.16.61,1.5,1.5,0,0,0,.45.53,2.51,2.51,0,0,0,.77.37,3.66,3.66,0,0,0,1,.14,3.8,3.8,0,0,0,1.07-.14,2.45,2.45,0,0,0,.76-.37,1.47,1.47,0,0,0,.47-.53,1.34,1.34,0,0,0,0-1.23,1.55,1.55,0,0,0-.47-.53,2.69,2.69,0,0,0-.76-.37,3.82,3.82,0,0,0-1.07-.13,3.68,3.68,0,0,0-1,.13,2.76,2.76,0,0,0-.77.37,1.59,1.59,0,0,0-.45.53A1.25,1.25,0,0,0,118,78.47Z"/><path class="cls-4" d="M17,98.1a3.06,3.06,0,0,1-1.39-.31,2.81,2.81,0,0,1-1-.88A4,4,0,0,1,14,95.57a7.28,7.28,0,0,1,0-3.39,4,4,0,0,1,.61-1.34,2.81,2.81,0,0,1,1-.88,3,3,0,0,1,3.78.88,4.19,4.19,0,0,1,.62,1.35,7.28,7.28,0,0,1,0,3.39,4.08,4.08,0,0,1-.62,1.33,2.84,2.84,0,0,1-1,.88A3.08,3.08,0,0,1,17,98.1Zm0-.55a2.24,2.24,0,0,0,1.14-.28,2.32,2.32,0,0,0,.83-.76,3.61,3.61,0,0,0,.51-1.16,6,6,0,0,0,.17-1.45,6.2,6.2,0,0,0-.17-1.48A3.67,3.67,0,0,0,19,91.25a2.47,2.47,0,0,0-.83-.78,2.46,2.46,0,0,0-2.28,0,2.41,2.41,0,0,0-.81.78,3.66,3.66,0,0,0-.5,1.17,5.73,5.73,0,0,0-.17,1.48,5.55,5.55,0,0,0,.17,1.45,3.6,3.6,0,0,0,.5,1.16,2.25,2.25,0,0,0,2,1Z"/><path class="cls-4" d="M25,98.1a3.06,3.06,0,0,1-1.39-.31,2.81,2.81,0,0,1-1-.88A4,4,0,0,1,22,95.57a7.28,7.28,0,0,1,0-3.39,4,4,0,0,1,.61-1.34,2.81,2.81,0,0,1,1-.88A2.94,2.94,0,0,1,25,89.64a3,3,0,0,1,1.38.32,3,3,0,0,1,1,.88A4.18,4.18,0,0,1,28,92.19a6.95,6.95,0,0,1,0,3.39,4.07,4.07,0,0,1-.61,1.33,2.93,2.93,0,0,1-1,.88A3.11,3.11,0,0,1,25,98.1Zm0-.55a2.24,2.24,0,0,0,1.14-.28,2.32,2.32,0,0,0,.83-.76,3.61,3.61,0,0,0,.51-1.16,6,6,0,0,0,.17-1.45,6.2,6.2,0,0,0-.17-1.48A3.67,3.67,0,0,0,27,91.25a2.47,2.47,0,0,0-.83-.78A2.24,2.24,0,0,0,25,90.19a2.22,2.22,0,0,0-1.14.28,2.44,2.44,0,0,0-.82.78,3.65,3.65,0,0,0-.49,1.17,5.73,5.73,0,0,0-.17,1.48,5.55,5.55,0,0,0,.17,1.45,3.59,3.59,0,0,0,.49,1.16,2.29,2.29,0,0,0,.82.76A2.22,2.22,0,0,0,25,97.55Z"/><path class="cls-4" d="M29.31,96.46a6.8,6.8,0,0,0,1.15-1.07A6.29,6.29,0,0,0,31.39,94,8.05,8.05,0,0,0,32,92.09a10.33,10.33,0,0,0,.13-2.36h.61a11.34,11.34,0,0,1-.18,2.53,8,8,0,0,0,1.11,2.2,7.21,7.21,0,0,0,1.71,1.73l-.45.47a7.58,7.58,0,0,1-1.48-1.51,8.38,8.38,0,0,1-1.1-2,7.55,7.55,0,0,1-1,2.14,7.91,7.91,0,0,1-1.53,1.63Zm7.12,2.63v-10H37v10Z"/><path class="cls-4" d="M45.13,98.1a3.06,3.06,0,0,1-1.39-.31,2.81,2.81,0,0,1-1-.88,4,4,0,0,1-.61-1.34,7.28,7.28,0,0,1,0-3.39,4,4,0,0,1,.61-1.34,2.81,2.81,0,0,1,1-.88,3,3,0,0,1,3.78.88,4.19,4.19,0,0,1,.62,1.35,7.28,7.28,0,0,1,0,3.39,4.08,4.08,0,0,1-.62,1.33,2.84,2.84,0,0,1-1,.88A3,3,0,0,1,45.13,98.1Zm0-.55a2.24,2.24,0,0,0,1.14-.28,2.32,2.32,0,0,0,.83-.76,3.41,3.41,0,0,0,.51-1.16,6,6,0,0,0,.17-1.45,6.2,6.2,0,0,0-.17-1.48,3.46,3.46,0,0,0-.51-1.17,2.47,2.47,0,0,0-.83-.78,2.46,2.46,0,0,0-2.28,0,2.54,2.54,0,0,0-.82.78,3.89,3.89,0,0,0-.49,1.17,5.73,5.73,0,0,0-.17,1.48,5.55,5.55,0,0,0,.17,1.45,3.83,3.83,0,0,0,.49,1.16,2.37,2.37,0,0,0,.82.76A2.24,2.24,0,0,0,45.12,97.55Z"/><path class="cls-4" d="M53.12,98.1a3.06,3.06,0,0,1-1.39-.31,2.81,2.81,0,0,1-1-.88,4,4,0,0,1-.61-1.34,7.28,7.28,0,0,1,0-3.39,4,4,0,0,1,.61-1.34,2.81,2.81,0,0,1,1-.88,2.94,2.94,0,0,1,1.39-.32A3,3,0,0,1,54.5,90a3,3,0,0,1,1,.88,4,4,0,0,1,.61,1.35,6.95,6.95,0,0,1,0,3.39,3.87,3.87,0,0,1-.61,1.33,2.93,2.93,0,0,1-1,.88A3.11,3.11,0,0,1,53.12,98.1Zm0-.55a2.24,2.24,0,0,0,1.14-.28,2.32,2.32,0,0,0,.83-.76,3.61,3.61,0,0,0,.51-1.16,6,6,0,0,0,.17-1.45,6.2,6.2,0,0,0-.17-1.48,3.67,3.67,0,0,0-.51-1.17,2.47,2.47,0,0,0-.83-.78,2.24,2.24,0,0,0-1.14-.28,2.22,2.22,0,0,0-1.14.28,2.54,2.54,0,0,0-.82.78,3.65,3.65,0,0,0-.49,1.17,5.73,5.73,0,0,0-.17,1.48,5.55,5.55,0,0,0,.17,1.45,3.59,3.59,0,0,0,.49,1.16,2.37,2.37,0,0,0,.82.76A2.22,2.22,0,0,0,53.11,97.55Z"/><path class="cls-4" d="M57.6,94.61v-.55h6.25c0-.31.1-.63.14-1s.08-.69.11-1,.06-.69.08-1,0-.65,0-.94H58.94v-.55h5.83c0,.37,0,.74,0,1.13s0,.78-.07,1.16-.07.78-.11,1.16-.1.74-.16,1.08H66v.55H62.15V99h-.58V94.61Z"/><path class="cls-4" d="M73.22,98.1a3.06,3.06,0,0,1-1.39-.31,2.81,2.81,0,0,1-1-.88,4,4,0,0,1-.61-1.34,7.28,7.28,0,0,1,0-3.39,4,4,0,0,1,.61-1.34,2.81,2.81,0,0,1,1-.88,3,3,0,0,1,3.78.88,4.19,4.19,0,0,1,.62,1.35,6.95,6.95,0,0,1,0,3.39,4.08,4.08,0,0,1-.62,1.33,2.84,2.84,0,0,1-1,.88A3,3,0,0,1,73.22,98.1Zm0-.55a2.24,2.24,0,0,0,1.14-.28,2.35,2.35,0,0,0,.84-.76,3.6,3.6,0,0,0,.5-1.16,6,6,0,0,0,.17-1.45,6.2,6.2,0,0,0-.17-1.48,3.66,3.66,0,0,0-.5-1.17,2.5,2.5,0,0,0-.84-.78,2.46,2.46,0,0,0-2.28,0,2.41,2.41,0,0,0-.81.78,3.66,3.66,0,0,0-.5,1.17,5.73,5.73,0,0,0-.17,1.48,5.55,5.55,0,0,0,.17,1.45,3.6,3.6,0,0,0,.5,1.16,2.25,2.25,0,0,0,1.95,1Z"/><path class="cls-4" d="M81.21,98.1a3.06,3.06,0,0,1-1.39-.31,2.81,2.81,0,0,1-1-.88,4,4,0,0,1-.61-1.34,7.28,7.28,0,0,1,0-3.39,4,4,0,0,1,.61-1.34,2.81,2.81,0,0,1,1-.88,2.94,2.94,0,0,1,1.39-.32,3,3,0,0,1,1.38.32,2.94,2.94,0,0,1,1,.88,4,4,0,0,1,.61,1.35,6.95,6.95,0,0,1,0,3.39,3.87,3.87,0,0,1-.61,1.33,2.84,2.84,0,0,1-1,.88A3.11,3.11,0,0,1,81.21,98.1Zm0-.55a2.24,2.24,0,0,0,1.14-.28,2.32,2.32,0,0,0,.83-.76,3.61,3.61,0,0,0,.51-1.16,6,6,0,0,0,.17-1.45,6.2,6.2,0,0,0-.17-1.48,3.67,3.67,0,0,0-.51-1.17,2.47,2.47,0,0,0-.83-.78,2.24,2.24,0,0,0-1.14-.28,2.22,2.22,0,0,0-1.14.28,2.54,2.54,0,0,0-.82.78,3.89,3.89,0,0,0-.49,1.17,5.73,5.73,0,0,0-.17,1.48,5.55,5.55,0,0,0,.17,1.45,3.83,3.83,0,0,0,.49,1.16,2.37,2.37,0,0,0,.82.76A2.22,2.22,0,0,0,81.2,97.55Z"/><path class="cls-4" d="M87.05,92.6V89.38h5.62V90h-5v2.1h5.09v.55H90.17v1.51h4v.55H85.59v-.55h4V92.6Zm-.14,4.74A1.52,1.52,0,0,1,87.68,96a5.2,5.2,0,0,1,4.45,0,1.51,1.51,0,0,1,0,2.62,5.2,5.2,0,0,1-4.45,0A1.52,1.52,0,0,1,86.91,97.34Zm.61,0a.93.93,0,0,0,.14.49,1.29,1.29,0,0,0,.43.4,2.44,2.44,0,0,0,.74.28,5.41,5.41,0,0,0,1.07.1,5.52,5.52,0,0,0,1.08-.1,2.54,2.54,0,0,0,.74-.28,1.25,1.25,0,0,0,.42-.4.93.93,0,0,0,0-1,1.25,1.25,0,0,0-.42-.4,2.54,2.54,0,0,0-.74-.28,5.52,5.52,0,0,0-1.08-.1,5.41,5.41,0,0,0-1.07.1,2.44,2.44,0,0,0-.74.28,1.29,1.29,0,0,0-.43.4A.93.93,0,0,0,87.52,97.34Z"/><path class="cls-4" d="M14.43,106.53l.6,0a2.94,2.94,0,0,0,.51-.13.49.49,0,0,1-.2.39.65.65,0,0,1-.41.12l-.82,0a1.31,1.31,0,0,1-.43-.06c-.12,0-.18-.17-.18-.37a1.91,1.91,0,0,0,.43.06A4.16,4.16,0,0,0,14.43,106.53Zm6.42-2a2.2,2.2,0,0,1,.55.24.92.92,0,0,1,.32.33,1.26,1.26,0,0,1,.17.46c0,.18.06.4.09.65l-.2,0-.24,0H21l-.31,0-.26,0a2.27,2.27,0,0,1-.25-.06l-.28-.08a.79.79,0,0,0-.24-.47,1,1,0,0,0-.49-.27V106a1.48,1.48,0,0,0,0,.23.58.58,0,0,0,.05.14l.1.14.17.17a1,1,0,0,0,.17.18l.14.13s.08.09.12.15a1.46,1.46,0,0,1,.09.21l.77,2.49a2,2,0,0,1,0,.22,2.89,2.89,0,0,1,0,.29,1.93,1.93,0,0,1,0,.27l0,.12s0,0-.06,0H14.86s0,0,0,0a.31.31,0,0,1,0-.12,1.93,1.93,0,0,1,0-.27,2.89,2.89,0,0,1,0-.29,2,2,0,0,1,0-.22l.77-2.49a.82.82,0,0,1,.1-.21.57.57,0,0,1,.12-.15l.14-.13a1,1,0,0,0,.16-.18l.17-.17a.55.55,0,0,0,.09-.14.24.24,0,0,0,.05-.14,1.3,1.3,0,0,0,0-.23v-.57a1,1,0,0,0-.49.27.79.79,0,0,0-.24.47l-.28.08a2.27,2.27,0,0,1-.25.06l-.26,0-.31,0H14l-.25,0-.19,0c0-.25.06-.47.09-.65a1.26,1.26,0,0,1,.17-.46,1,1,0,0,1,.31-.33,2.13,2.13,0,0,1,.56-.24,8.45,8.45,0,0,1,1.56-.34,11.92,11.92,0,0,1,1.54-.1,11.78,11.78,0,0,1,1.56.1A8.9,8.9,0,0,1,20.85,104.57Zm-3.14,4.87a1.24,1.24,0,0,0,.94-.42,1.53,1.53,0,0,0,.28-.46A1.56,1.56,0,0,0,19,108a1.45,1.45,0,0,0-.1-.55,1.68,1.68,0,0,0-.27-.45,1.27,1.27,0,0,0-.41-.32,1,1,0,0,0-.49-.11,1.21,1.21,0,0,0-.5.1,1.31,1.31,0,0,0-.41.3,1.51,1.51,0,0,0-.29.45,1.45,1.45,0,0,0-.1.55,1.77,1.77,0,0,0,.09.56,1.63,1.63,0,0,0,.26.47,1.26,1.26,0,0,0,.4.33A1.11,1.11,0,0,0,17.71,109.44Zm.92-3.32.15-.83-.47-.05a5,5,0,0,0-.56,0,5.1,5.1,0,0,0-.57,0l-.47,0,.15.83.89-.06Zm2.46.41h.5l.24,0,.18,0c0,.2-.06.32-.18.37a1.31,1.31,0,0,1-.43.06l-.82,0a.69.69,0,0,1-.41-.12.49.49,0,0,1-.19-.39,2.73,2.73,0,0,0,.51.13Z"/><path class="cls-4" d="M28.33,102.59a2,2,0,0,1,1.78,1,6.7,6.7,0,0,1,.62,3.28,9.67,9.67,0,0,1-.16,1.91,4,4,0,0,1-.46,1.3,1.89,1.89,0,0,1-.75.76,2.33,2.33,0,0,1-2.06,0,2,2,0,0,1-.75-.76,3.8,3.8,0,0,1-.46-1.3,9.67,9.67,0,0,1-.16-1.91,6.7,6.7,0,0,1,.62-3.28A2,2,0,0,1,28.33,102.59Zm0,.54c-1.21,0-1.81,1.26-1.81,3.76a6.31,6.31,0,0,0,.46,2.79,1.48,1.48,0,0,0,2.7,0,6.28,6.28,0,0,0,.47-2.79C30.15,104.39,29.54,103.13,28.33,103.13Z"/><path class="cls-4" d="M34.64,102.59a2,2,0,0,1,1.77,1A6.57,6.57,0,0,1,37,106.9a9.67,9.67,0,0,1-.16,1.91,4.28,4.28,0,0,1-.46,1.3,2,2,0,0,1-.76.76,2.31,2.31,0,0,1-2,0,1.89,1.89,0,0,1-.75-.76,3.8,3.8,0,0,1-.47-1.3,10.57,10.57,0,0,1-.15-1.91,6.7,6.7,0,0,1,.62-3.28A2,2,0,0,1,34.64,102.59Zm0,.54c-1.21,0-1.81,1.26-1.81,3.76a6.31,6.31,0,0,0,.46,2.79,1.48,1.48,0,0,0,2.7,0,6.31,6.31,0,0,0,.46-2.79C36.45,104.39,35.85,103.13,34.64,103.13Z"/><path class="cls-4" d="M40.94,102.59a2,2,0,0,1,1.78,1,6.7,6.7,0,0,1,.62,3.28,9.67,9.67,0,0,1-.16,1.91,4,4,0,0,1-.46,1.3,1.89,1.89,0,0,1-.75.76,2.33,2.33,0,0,1-2.06,0,2,2,0,0,1-.75-.76,3.8,3.8,0,0,1-.46-1.3,9.67,9.67,0,0,1-.16-1.91,6.7,6.7,0,0,1,.62-3.28A2,2,0,0,1,40.94,102.59Zm0,.54c-1.2,0-1.81,1.26-1.81,3.76a6.46,6.46,0,0,0,.46,2.79,1.48,1.48,0,0,0,2.7,0,6.28,6.28,0,0,0,.47-2.79C42.76,104.39,42.15,103.13,40.94,103.13Z"/><path class="cls-4" d="M49.31,106.35v.55H45.18v-.55Z"/><path class="cls-4" d="M53.55,102.59a2,2,0,0,1,1.78,1A6.7,6.7,0,0,1,56,106.9a9.67,9.67,0,0,1-.16,1.91,4,4,0,0,1-.46,1.3,1.89,1.89,0,0,1-.75.76,2.33,2.33,0,0,1-2.06,0,2,2,0,0,1-.75-.76,4,4,0,0,1-.46-1.3,9.67,9.67,0,0,1-.16-1.91,6.57,6.57,0,0,1,.63-3.28A1.94,1.94,0,0,1,53.55,102.59Zm0,.54c-1.2,0-1.81,1.26-1.81,3.76a6.46,6.46,0,0,0,.46,2.79,1.48,1.48,0,0,0,2.7,0,6.28,6.28,0,0,0,.47-2.79C55.37,104.39,54.76,103.13,53.55,103.13Z"/><path class="cls-4" d="M59.86,102.59a2,2,0,0,1,1.77,1,6.57,6.57,0,0,1,.63,3.28,9.67,9.67,0,0,1-.16,1.91,4.28,4.28,0,0,1-.46,1.3,2,2,0,0,1-.76.76,2.31,2.31,0,0,1-2.05,0,1.89,1.89,0,0,1-.75-.76,4,4,0,0,1-.47-1.3,10.57,10.57,0,0,1-.15-1.91,6.7,6.7,0,0,1,.62-3.28A2,2,0,0,1,59.86,102.59Zm0,.54c-1.21,0-1.81,1.26-1.81,3.76a6.31,6.31,0,0,0,.46,2.79,1.48,1.48,0,0,0,2.7,0,6.31,6.31,0,0,0,.46-2.79C61.67,104.39,61.07,103.13,59.86,103.13Z"/><path class="cls-4" d="M66.16,102.59a2,2,0,0,1,1.78,1,6.57,6.57,0,0,1,.63,3.28,10.49,10.49,0,0,1-.16,1.91,4.27,4.27,0,0,1-.47,1.3,1.89,1.89,0,0,1-.75.76,2.33,2.33,0,0,1-2.06,0,2,2,0,0,1-.75-.76,4,4,0,0,1-.46-1.3,10.49,10.49,0,0,1-.16-1.91,6.57,6.57,0,0,1,.63-3.28A1.94,1.94,0,0,1,66.16,102.59Zm0,.54c-1.2,0-1.81,1.26-1.81,3.76a6.46,6.46,0,0,0,.46,2.79,1.48,1.48,0,0,0,2.7,0,6.28,6.28,0,0,0,.47-2.79C68,104.39,67.37,103.13,66.16,103.13Z"/><path class="cls-4" d="M74.53,106.35v.55H70.4v-.55Z"/><path class="cls-4" d="M78.77,102.59a2,2,0,0,1,1.78,1,6.57,6.57,0,0,1,.63,3.28,10.49,10.49,0,0,1-.16,1.91,4.27,4.27,0,0,1-.47,1.3,1.89,1.89,0,0,1-.75.76,2.33,2.33,0,0,1-2.06,0,2,2,0,0,1-.75-.76,4,4,0,0,1-.46-1.3,10.49,10.49,0,0,1-.16-1.91,6.57,6.57,0,0,1,.63-3.28A1.94,1.94,0,0,1,78.77,102.59Zm0,.54c-1.2,0-1.81,1.26-1.81,3.76a6.46,6.46,0,0,0,.46,2.79,1.46,1.46,0,0,0,1.35.88,1.44,1.44,0,0,0,1.35-.88,6.28,6.28,0,0,0,.47-2.79C80.59,104.39,80,103.13,78.77,103.13Z"/><path class="cls-4" d="M85.08,102.59a2,2,0,0,1,1.77,1,6.57,6.57,0,0,1,.63,3.28,9.67,9.67,0,0,1-.16,1.91,4.28,4.28,0,0,1-.46,1.3,2,2,0,0,1-.75.76,2.17,2.17,0,0,1-1,.24,2.12,2.12,0,0,1-1-.24,1.89,1.89,0,0,1-.75-.76,4,4,0,0,1-.47-1.3,10.57,10.57,0,0,1-.15-1.91,6.7,6.7,0,0,1,.62-3.28A2,2,0,0,1,85.08,102.59Zm0,.54c-1.21,0-1.81,1.26-1.81,3.76a6.31,6.31,0,0,0,.46,2.79,1.48,1.48,0,0,0,2.7,0,6.31,6.31,0,0,0,.46-2.79C86.89,104.39,86.29,103.13,85.08,103.13Z"/><path class="cls-4" d="M91.38,102.59a2,2,0,0,1,1.78,1,6.57,6.57,0,0,1,.63,3.28,10.49,10.49,0,0,1-.16,1.91,4,4,0,0,1-.47,1.3,1.89,1.89,0,0,1-.75.76,2.33,2.33,0,0,1-2.06,0,2,2,0,0,1-.75-.76,4,4,0,0,1-.46-1.3A10.49,10.49,0,0,1,89,106.9a6.57,6.57,0,0,1,.63-3.28A1.94,1.94,0,0,1,91.38,102.59Zm0,.54c-1.2,0-1.81,1.26-1.81,3.76a6.28,6.28,0,0,0,.47,2.79,1.47,1.47,0,0,0,2.69,0,6.28,6.28,0,0,0,.47-2.79C93.2,104.39,92.59,103.13,91.38,103.13Z"/><path class="cls-4" d="M97.69,102.59a2,2,0,0,1,1.77,1,6.57,6.57,0,0,1,.63,3.28,9.67,9.67,0,0,1-.16,1.91,4,4,0,0,1-.46,1.3,2,2,0,0,1-.75.76,2.15,2.15,0,0,1-1,.24,2.12,2.12,0,0,1-1-.24,1.89,1.89,0,0,1-.75-.76,4,4,0,0,1-.47-1.3,10.57,10.57,0,0,1-.15-1.91,6.7,6.7,0,0,1,.62-3.28A2,2,0,0,1,97.69,102.59Zm0,.54c-1.21,0-1.81,1.26-1.81,3.76a6.31,6.31,0,0,0,.46,2.79,1.48,1.48,0,0,0,2.7,0,6.31,6.31,0,0,0,.46-2.79C99.5,104.39,98.9,103.13,97.69,103.13Z"/><path class="cls-4" d="M19.11,122.06h-5v-9h5Zm-1.57-1.53v-6H15.73v6Zm6.65,5.23h-1.6v-7.6h-.92v7.26H20.09V112h1.58v4.59h.92v-4.74h1.6Z"/><path class="cls-4" d="M31.55,116.16a8.06,8.06,0,0,0,1.32,1.29,7.9,7.9,0,0,0,1.47.92l-1,1.33a8,8,0,0,1-1.43-1,9.48,9.48,0,0,1-1.25-1.35,10.09,10.09,0,0,1-1.6,1.46,17.2,17.2,0,0,1-1.91,1.2l-1.05-1.32A11.52,11.52,0,0,0,28,117.6a9.07,9.07,0,0,0,1.4-1.22,6.15,6.15,0,0,0,.92-1.23,3.44,3.44,0,0,0,.42-1.15l-1.13,0H27v-1.56h3.89c.61,0,1.23,0,1.84,0a8.83,8.83,0,0,1-.39,2A7.76,7.76,0,0,1,31.55,116.16Zm.72,4.14a7,7,0,0,1,1.82.22,4.24,4.24,0,0,1,1.32.59,2.49,2.49,0,0,1,.8.89,2.3,2.3,0,0,1,.28,1.09,2.27,2.27,0,0,1-.28,1.09,2.47,2.47,0,0,1-.8.88,4,4,0,0,1-1.32.59,7.6,7.6,0,0,1-3.63,0,4.06,4.06,0,0,1-1.31-.59,2.44,2.44,0,0,1-.79-.88,2.26,2.26,0,0,1-.27-1.09,2.29,2.29,0,0,1,.27-1.09,2.46,2.46,0,0,1,.79-.89,4.29,4.29,0,0,1,1.31-.59A7,7,0,0,1,32.27,120.3Zm0,1.49a5.4,5.4,0,0,0-1.15.11,2.82,2.82,0,0,0-.77.29,1.24,1.24,0,0,0-.43.42.91.91,0,0,0-.13.48,1,1,0,0,0,.13.49,1.22,1.22,0,0,0,.43.41,2.81,2.81,0,0,0,.77.3,6.12,6.12,0,0,0,2.31,0,2.81,2.81,0,0,0,.77-.3,1.17,1.17,0,0,0,.44-.41,1,1,0,0,0,.13-.49.91.91,0,0,0-.13-.48,1.19,1.19,0,0,0-.44-.42,2.82,2.82,0,0,0-.77-.29A5.43,5.43,0,0,0,32.27,121.79Zm5.86-5.18H36.24v3.71H34.57v-8.46h1.67v3.19h1.89Z"/><path class="cls-4" d="M39.85,119.67v-7.41h1.66v2.34h2.64v-2.34h1.63v3.21h2.14v-3.61h1.69V122H47.92v-5H45.78v2.64Zm4.3-3.54H41.51v2h2.64Zm5.7,9.36H41.62V121.2h1.67v2.72h6.56Z"/><path class="cls-4" d="M61.4,118.83a2,2,0,0,1-.18.84,2.2,2.2,0,0,1-.53.74,3,3,0,0,1-.87.56,4.27,4.27,0,0,1-1.22.32v1.1h5v1.54H51.92v-1.54h5v-1.1a4.25,4.25,0,0,1-1.23-.32,2.83,2.83,0,0,1-.88-.56,2.32,2.32,0,0,1-.52-.74,2.21,2.21,0,0,1-.17-.84,2.12,2.12,0,0,1,.23-1,2.24,2.24,0,0,1,.67-.81,3.39,3.39,0,0,1,1.13-.54,5.61,5.61,0,0,1,1.63-.21,5.47,5.47,0,0,1,1.59.21,3.39,3.39,0,0,1,1.13.54,2.41,2.41,0,0,1,.69.81A2.12,2.12,0,0,1,61.4,118.83Zm1-4.47v1.52H53.1v-1.52Zm-2.13-2.29v1.56H55.22v-1.56Zm-.57,6.76a1,1,0,0,0-.09-.41,1,1,0,0,0-.32-.35,1.87,1.87,0,0,0-.6-.24,4.19,4.19,0,0,0-.95-.09,4.1,4.1,0,0,0-.94.09,1.87,1.87,0,0,0-.6.24.85.85,0,0,0-.31.35,1,1,0,0,0-.09.41,1,1,0,0,0,.09.41.85.85,0,0,0,.31.35,1.86,1.86,0,0,0,.6.26,4.1,4.1,0,0,0,.94.09,4.19,4.19,0,0,0,.95-.09,1.86,1.86,0,0,0,.6-.26,1,1,0,0,0,.32-.35A1,1,0,0,0,59.7,118.83Z"/><path class="cls-4" d="M66.55,114.33a1.16,1.16,0,0,1,.85.36,1.26,1.26,0,0,1,0,1.72,1.13,1.13,0,0,1-.85.37,1,1,0,0,1-.82-.37,1.32,1.32,0,0,1,0-1.72A1.06,1.06,0,0,1,66.55,114.33Zm0,6a1.16,1.16,0,0,1,.85.36,1.26,1.26,0,0,1,0,1.72,1.13,1.13,0,0,1-.85.37,1,1,0,0,1-.82-.37,1.32,1.32,0,0,1,0-1.72A1.06,1.06,0,0,1,66.55,120.3Z"/><path class="cls-4" d="M78.35,115.58c-.11,0-.16,0-.16-.12v-1.1a4.82,4.82,0,0,0,1.06-.69,6.68,6.68,0,0,0,.88-1h1.68v11.61H80.13v-9.81h0a5.47,5.47,0,0,1-.87.62A7.55,7.55,0,0,1,78.35,115.58Z"/><path class="cls-4" d="M86.42,115.4s-.09,0-.12,0a.12.12,0,0,1-.06-.12v-1.47a4.68,4.68,0,0,1,1.36-1,3.85,3.85,0,0,1,1.64-.36,3.28,3.28,0,0,1,2.35.78,3,3,0,0,1,.83,2.36,3.93,3.93,0,0,1-.15,1.06,5.87,5.87,0,0,1-.44,1,9.52,9.52,0,0,1-.64,1c-.25.33-.51.66-.78,1l-2.55,3v0h4.71v1.5H85.93v-1.41l3.16-3.82A11.19,11.19,0,0,0,89.9,118a7.4,7.4,0,0,0,.49-.88,3.27,3.27,0,0,0,.25-.77,3.39,3.39,0,0,0,.07-.7,1.84,1.84,0,0,0-.38-1.19,1.43,1.43,0,0,0-1.18-.46,3,3,0,0,0-1.37.34A4.94,4.94,0,0,0,86.42,115.4Z"/><path class="cls-4" d="M94.77,121.53a5.4,5.4,0,0,0,1.47,1.1,3.55,3.55,0,0,0,1.52.33,1.87,1.87,0,0,0,.71-.14,1.66,1.66,0,0,0,.59-.38,1.6,1.6,0,0,0,.39-.59,1.94,1.94,0,0,0,.14-.78,2,2,0,0,0-.54-1.55A2.73,2.73,0,0,0,97.2,119h-.34v-1.49h.38a4.19,4.19,0,0,0,.83-.1,1.94,1.94,0,0,0,.67-.29,1.33,1.33,0,0,0,.44-.57,2.43,2.43,0,0,0,.16-.93,1.54,1.54,0,0,0-.48-1.25,1.83,1.83,0,0,0-1.2-.4,3.49,3.49,0,0,0-.65.06,2.59,2.59,0,0,0-.63.21,3.08,3.08,0,0,0-.64.38,6.86,6.86,0,0,0-.7.6.1.1,0,0,1-.13,0,.14.14,0,0,1-.06-.13v-1.47a4.18,4.18,0,0,1,1.19-.79,4.1,4.1,0,0,1,1.68-.36,3.58,3.58,0,0,1,2.45.78,2.78,2.78,0,0,1,.89,2.2,3,3,0,0,1-.15,1,3.13,3.13,0,0,1-.43.81,2.76,2.76,0,0,1-.64.59,2.34,2.34,0,0,1-.8.33v0a3,3,0,0,1,1.63.94,2.69,2.69,0,0,1,.64,1.86,3.52,3.52,0,0,1-.24,1.29,3.3,3.3,0,0,1-1.81,1.86,3.75,3.75,0,0,1-1.5.29,5,5,0,0,1-1.77-.32,3.76,3.76,0,0,1-1.41-.94v-1.56a.15.15,0,0,1,.06-.13A.11.11,0,0,1,94.77,121.53Z"/><path class="cls-4" d="M102.66,121.79v-1.56l4.46-7.52h1.78v7.58h1.48v1.5H108.9v2.53h-1.67v-2.53Zm1.38-1.5v0h3.24v-4.85l0-1-.46,1Z"/><path class="cls-4" d="M17.52,131.06l1.34,4.87.12.55.13-.55,1.21-4.87h.56L19.34,137h-.67l-1.36-4.94-.08-.35-.08.35L15.78,137h-.66l-1.55-5.95h.56l1.21,4.87.13.55.12-.55,1.35-4.87Z"/><path class="cls-4" d="M22.42,129.05a.53.53,0,0,1,.13-.38.42.42,0,0,1,.32-.14.45.45,0,0,1,.33.14.53.53,0,0,1,.13.38.48.48,0,0,1-.13.35.42.42,0,0,1-.33.14.39.39,0,0,1-.32-.14A.48.48,0,0,1,22.42,129.05Zm.72,2V137h-.57v-5.95Z"/><path class="cls-4" d="M28,128.68l-.26-.12a1,1,0,0,0-.32-.06,1.18,1.18,0,0,0-.43.07.84.84,0,0,0-.35.25,1.1,1.1,0,0,0-.23.46,2.58,2.58,0,0,0-.09.74v1h1.53v.51H26.3V137h-.58v-5.44h-.94v-.51h.94V130a3,3,0,0,1,.13-.91,1.88,1.88,0,0,1,.35-.61,1.36,1.36,0,0,1,.52-.33,2.21,2.21,0,0,1,.65-.1,1.17,1.17,0,0,1,.67.18v.44C28,128.7,28,128.71,28,128.68Z"/><path class="cls-4" d="M29.23,129.05a.53.53,0,0,1,.13-.38.45.45,0,0,1,.33-.14.45.45,0,0,1,.32.14.54.54,0,0,1,.14.38.48.48,0,0,1-.14.35.41.41,0,0,1-.32.14.42.42,0,0,1-.33-.14A.48.48,0,0,1,29.23,129.05Zm.73,2V137h-.58v-5.95Z"/><path class="cls-4" d="M32.94,130.05a.47.47,0,0,1,.37.16.64.64,0,0,1,0,.82.47.47,0,0,1-.37.16.48.48,0,0,1-.38-.16.64.64,0,0,1,0-.82A.48.48,0,0,1,32.94,130.05Zm0,4.53a.45.45,0,0,1,.37.17.57.57,0,0,1,.15.4.59.59,0,0,1-.15.41.47.47,0,0,1-.37.16.48.48,0,0,1-.38-.16.59.59,0,0,1-.15-.41.57.57,0,0,1,.15-.4A.46.46,0,0,1,32.94,134.58Z"/><path class="cls-4" d="M14.19,141.56H17l1.15,0a4.65,4.65,0,0,1-.38,1.43,7,7,0,0,1-.76,1.29,7.21,7.21,0,0,0,1,.92,7.52,7.52,0,0,0,1.24.8l-.41.51c-.19-.11-.39-.23-.59-.37s-.39-.29-.58-.45l-.53-.48a6.54,6.54,0,0,1-.45-.5,8.22,8.22,0,0,1-1.28,1.15,8.39,8.39,0,0,1-1.43.83l-.38-.52a7.87,7.87,0,0,0,1.49-.83,7.21,7.21,0,0,0,1.16-1,5.68,5.68,0,0,0,.8-1.1,4.48,4.48,0,0,0,.42-1.11l-1.09,0H14.19ZM21,147.49v3.43H15.49v-3.43Zm-.56,2.88V148h-4.4v2.33Zm0-6.23H18.53v-.57h1.93v-2.48H21v5.74h-.56Z"/><path class="cls-4" d="M23.51,141.56h2.88l1.19,0a5.63,5.63,0,0,1-.34,1.4,5.87,5.87,0,0,1-.65,1.24,6.43,6.43,0,0,0,.92,1,7.54,7.54,0,0,0,1.2.84l-.41.51a6.62,6.62,0,0,1-1.12-.85,6.8,6.8,0,0,1-.94-1,7.43,7.43,0,0,1-1.38,1.31,9,9,0,0,1-1.56.92l-.38-.51a8.08,8.08,0,0,0,1.51-.84,6.76,6.76,0,0,0,1.2-1,5.69,5.69,0,0,0,.84-1.16,3.91,3.91,0,0,0,.44-1.22l-1.14,0H23.51Zm3.65,9.59a4.62,4.62,0,0,1-1.23-.14,2.84,2.84,0,0,1-.91-.42,1.77,1.77,0,0,1-.57-.62,1.57,1.57,0,0,1-.2-.76,1.54,1.54,0,0,1,.2-.76,1.74,1.74,0,0,1,.57-.61,3.4,3.4,0,0,1,.92-.4,5,5,0,0,1,2.44,0,3.33,3.33,0,0,1,.91.4,1.87,1.87,0,0,1,.58.61,1.54,1.54,0,0,1,.2.76,1.57,1.57,0,0,1-.2.76,1.9,1.9,0,0,1-.58.62,2.84,2.84,0,0,1-.91.42A4.55,4.55,0,0,1,27.16,151.15Zm0-.52a3.83,3.83,0,0,0,1-.12,2.29,2.29,0,0,0,.74-.31,1.45,1.45,0,0,0,.44-.45,1,1,0,0,0,.15-.51,1,1,0,0,0-.15-.53,1.2,1.2,0,0,0-.43-.44,2.54,2.54,0,0,0-.74-.31,4.39,4.39,0,0,0-2,0,2.59,2.59,0,0,0-.73.31,1.29,1.29,0,0,0-.43.44,1,1,0,0,0-.14.53,1,1,0,0,0,.14.51,1.34,1.34,0,0,0,.44.45,2.33,2.33,0,0,0,.73.31A3.78,3.78,0,0,0,27.15,150.63Zm4.31-7v.57H30v3H29.4v-6.06H30v2.52Z"/><path class="cls-4" d="M38.53,150.1a3,3,0,0,1-1.38-.31,2.81,2.81,0,0,1-1-.88,4,4,0,0,1-.61-1.34,7.28,7.28,0,0,1,0-3.39,4,4,0,0,1,.61-1.34,2.81,2.81,0,0,1,1-.88,2.95,2.95,0,0,1,3.77.88,4,4,0,0,1,.62,1.35,6.95,6.95,0,0,1,0,3.39,3.89,3.89,0,0,1-.62,1.33,2.84,2.84,0,0,1-1,.88A3,3,0,0,1,38.53,150.1Zm0-.55a2.28,2.28,0,0,0,1.15-.28,2.32,2.32,0,0,0,.83-.76,3.6,3.6,0,0,0,.5-1.16,5.55,5.55,0,0,0,.17-1.45,5.73,5.73,0,0,0-.17-1.48,3.66,3.66,0,0,0-.5-1.17,2.47,2.47,0,0,0-.83-.78,2.28,2.28,0,0,0-1.15-.28,2.18,2.18,0,0,0-1.13.28,2.44,2.44,0,0,0-.82.78,3.9,3.9,0,0,0-.5,1.17,6.2,6.2,0,0,0-.17,1.48,6,6,0,0,0,.17,1.45,3.84,3.84,0,0,0,.5,1.16,2.29,2.29,0,0,0,.82.76A2.18,2.18,0,0,0,38.52,149.55Z"/><path class="cls-4" d="M46.52,150.1a3,3,0,0,1-1.38-.31,2.81,2.81,0,0,1-1-.88,3.84,3.84,0,0,1-.61-1.34,6.95,6.95,0,0,1,0-3.39,3.84,3.84,0,0,1,.61-1.34,2.81,2.81,0,0,1,1-.88,2.95,2.95,0,0,1,3.77.88,4,4,0,0,1,.62,1.35,6.95,6.95,0,0,1,0,3.39,3.89,3.89,0,0,1-.62,1.33,2.84,2.84,0,0,1-1,.88A3,3,0,0,1,46.52,150.1Zm0-.55a2.28,2.28,0,0,0,1.15-.28,2.32,2.32,0,0,0,.83-.76,3.6,3.6,0,0,0,.5-1.16,5.55,5.55,0,0,0,.17-1.45,5.73,5.73,0,0,0-.17-1.48,3.66,3.66,0,0,0-.5-1.17,2.47,2.47,0,0,0-.83-.78,2.28,2.28,0,0,0-1.15-.28,2.18,2.18,0,0,0-1.13.28,2.44,2.44,0,0,0-.82.78,3.66,3.66,0,0,0-.5,1.17,6.2,6.2,0,0,0-.17,1.48,6,6,0,0,0,.17,1.45,3.6,3.6,0,0,0,.5,1.16,2.29,2.29,0,0,0,.82.76A2.18,2.18,0,0,0,46.51,149.55Z"/><path class="cls-4" d="M54.51,150.1a3,3,0,0,1-1.38-.31,2.84,2.84,0,0,1-1-.88,4,4,0,0,1-.6-1.34,6.95,6.95,0,0,1,0-3.39,4,4,0,0,1,.6-1.34,2.84,2.84,0,0,1,1-.88,3.14,3.14,0,0,1,2.76,0,2.94,2.94,0,0,1,1,.88,4.19,4.19,0,0,1,.62,1.35,6.95,6.95,0,0,1,0,3.39,4.08,4.08,0,0,1-.62,1.33,2.84,2.84,0,0,1-1,.88A3,3,0,0,1,54.51,150.1Zm0-.55a2.32,2.32,0,0,0,2-1,3.6,3.6,0,0,0,.5-1.16,6,6,0,0,0,.17-1.45,6.2,6.2,0,0,0-.17-1.48,3.66,3.66,0,0,0-.5-1.17,2.47,2.47,0,0,0-.83-.78,2.3,2.3,0,0,0-1.15-.28,2.18,2.18,0,0,0-1.13.28,2.44,2.44,0,0,0-.82.78,3.66,3.66,0,0,0-.5,1.17,6.2,6.2,0,0,0-.17,1.48,6,6,0,0,0,.17,1.45,3.6,3.6,0,0,0,.5,1.16,2.29,2.29,0,0,0,.82.76A2.18,2.18,0,0,0,54.5,149.55Z"/><path class="cls-4" d="M15.32,155.26a.58.58,0,0,1,.39.16.57.57,0,0,1,.14.43.61.61,0,0,1-.14.42.53.53,0,0,1-.39.15.54.54,0,0,1-.42-.18.92.92,0,0,1-.16-.6,2.08,2.08,0,0,1,.26-1,1.69,1.69,0,0,1,.81-.7l.09.2a1.31,1.31,0,0,0-.51.42,1.21,1.21,0,0,0-.22.57A.15.15,0,0,0,15.32,155.26Zm1.5,0a.63.63,0,0,1,.39.16.62.62,0,0,1,.14.43.55.55,0,0,1-.15.42.49.49,0,0,1-.38.15.57.57,0,0,1-.43-.18,1,1,0,0,1-.16-.6,2,2,0,0,1,.27-1,1.69,1.69,0,0,1,.81-.7l.09.2a1.18,1.18,0,0,0-.51.42,1.15,1.15,0,0,0-.22.57C16.66,155.2,16.71,155.26,16.82,155.27Z"/><path class="cls-4" d="M20,158.77v-.56h2.9q.67,0,1.29,0l1.16-.1c0-.44.06-.87.08-1.29s0-.84.05-1.25H20.25V155h5.82c0,.54,0,1.11-.06,1.69s-.09,1.18-.15,1.76-.13,1.17-.21,1.74-.16,1.12-.26,1.64h2v.55H19v-.55h5.92c.09-.48.17-1,.25-1.54s.14-1.11.2-1.68c-.38.06-.79.1-1.22.14s-.88.05-1.36.05Z"/><path class="cls-4" d="M30,158.46v2.61h1.31a16.13,16.13,0,0,0,2.19-.13,12.51,12.51,0,0,0,1.75-.36v.54a13.74,13.74,0,0,1-1.83.38,18.59,18.59,0,0,1-2.25.13H29.38v-3.72H33v-2.47H29.36v-.55h4.16v3.57Zm5.78,5.63v-10h.58v10Z"/><path class="cls-4" d="M38.67,162h8.41v.56H38.67Zm.62-2.53a4.92,4.92,0,0,0,1.53-.79,4.66,4.66,0,0,0,1.09-1.13,4.4,4.4,0,0,0,.62-1.38,5.34,5.34,0,0,0,.16-1.55h.63a7.07,7.07,0,0,1-.15,1.48,4.84,4.84,0,0,0,.58,1.16,6.16,6.16,0,0,0,1.78,1.66,5.65,5.65,0,0,0,1,.46l-.32.56a5.14,5.14,0,0,1-1-.48,6.52,6.52,0,0,1-1.71-1.56,5.47,5.47,0,0,1-.62-1,5.22,5.22,0,0,1-1.27,1.87,6.48,6.48,0,0,1-2,1.26Z"/><path class="cls-4" d="M49.59,156h.58l.1,4.94h2.12l.1-4.94h.58L53,160.9c.33,0,.65-.06,1-.11a5.9,5.9,0,0,0,.92-.23v.53a6.1,6.1,0,0,1-1.38.3,13.17,13.17,0,0,1-1.55.09H48.54v-.55h1.15Zm4.33-.46H48.75V155h5.17Zm1.54,8.56v-10H56v10Z"/><path class="cls-4" d="M59.46,158.77v-.56h2.91c.45,0,.87,0,1.29,0l1.15-.1q0-.66.09-1.29c0-.43,0-.84,0-1.25H59.7V155h5.82c0,.54,0,1.11-.07,1.69s-.08,1.18-.14,1.76-.13,1.17-.21,1.74-.17,1.12-.26,1.64h2v.55H58.4v-.55h5.91c.1-.48.18-1,.26-1.54s.14-1.11.19-1.68c-.38.06-.78.1-1.21.14s-.89.05-1.36.05Z"/><path class="cls-4" d="M69.42,157.14v1.66h1.29a15.76,15.76,0,0,0,2.18-.14,12.51,12.51,0,0,0,1.75-.36v.53a11.81,11.81,0,0,1-1.9.38,17.2,17.2,0,0,1-2.17.14H68.86v-2.76H72.4v-1.52H68.83v-.55H73v2.62Zm6.33,3.41v3.39H70.22v-3.39Zm-.56,2.83V161.1h-4.4v2.28Zm0-3.49v-5.8h.57v5.8Z"/><path class="cls-4" d="M78.12,162h8.41v.55H78.12Zm7.19-4.73a2.78,2.78,0,0,1-.19,1,2.32,2.32,0,0,1-.57.85,2.72,2.72,0,0,1-.93.58,3.67,3.67,0,0,1-1.29.21,3.63,3.63,0,0,1-1.29-.21,2.63,2.63,0,0,1-.93-.58,2.45,2.45,0,0,1-.57-.85,2.94,2.94,0,0,1,0-2.08,2.36,2.36,0,0,1,.57-.85,2.58,2.58,0,0,1,.93-.58,3.63,3.63,0,0,1,1.29-.21,3.67,3.67,0,0,1,1.29.21,2.58,2.58,0,0,1,.93.58,2.24,2.24,0,0,1,.57.85A2.78,2.78,0,0,1,85.31,157.27Zm-.57,0a2.31,2.31,0,0,0-.13-.77,1.74,1.74,0,0,0-.41-.69,2.38,2.38,0,0,0-.75-.49,3.08,3.08,0,0,0-1.12-.19,3,3,0,0,0-1.11.19,2.17,2.17,0,0,0-.75.49,1.89,1.89,0,0,0-.42.69,2.35,2.35,0,0,0,0,1.54,1.89,1.89,0,0,0,.42.69,2.17,2.17,0,0,0,.75.49,3,3,0,0,0,1.11.18,3.09,3.09,0,0,0,1.12-.18,2.38,2.38,0,0,0,.75-.49,1.74,1.74,0,0,0,.41-.69A2.31,2.31,0,0,0,84.74,157.27Z"/><path class="cls-4" d="M95.25,160.17H92.47v2h3.92v.55H88v-.55h3.89v-2H89.38v-3h5v-1.79h-5v-.57h5.53v2.91H90v1.86h5.29Z"/><path class="cls-4" d="M101.51,158.49v-3.92h4.11v.55h-3.54v2.82h1.44a17,17,0,0,0,2-.11c.61-.07,1.11-.16,1.53-.25v.53c-.22,0-.47.11-.76.15l-.91.13-1,.07-1,0Zm6.79,4.94V164h-5.71v-2.44h4.94v-1.32h-4.94v-.55h5.5v2.4h-4.94v1.36Zm1.3-7.18v.57h-1.51v2.24h-.56v-5h.56v2.16Z"/><path class="cls-4" d="M114.24,157.4h.6v1.43h4.59v.55h-8.62v-.55h3.43Zm-1.95-3H118c0,.67,0,1.31-.11,1.94s-.13,1.23-.22,1.82h-.56l.12-.8c0-.28.06-.55.1-.83-.4.06-.81.11-1.26.14s-.91,0-1.4,0h-2.5v-.55h2.68c.46,0,.91,0,1.34,0s.82-.05,1.19-.09l0-.55c0-.18,0-.36,0-.53h-5.1Zm5.68,9.58h-5.7v-3.37H118Zm-.56-.56v-2.26h-4.58v2.26Z"/><path class="cls-4" d="M126.1,156.06h-5.34v-.55h5.34Zm-4.76,2.45a1.89,1.89,0,0,1,.13-.7,1.67,1.67,0,0,1,.4-.59,1.81,1.81,0,0,1,.64-.41,2.61,2.61,0,0,1,.92-.15,2.52,2.52,0,0,1,.91.15,1.81,1.81,0,0,1,.66.41,1.79,1.79,0,0,1,.39.59,1.89,1.89,0,0,1,.13.7,1.85,1.85,0,0,1-.13.7,1.69,1.69,0,0,1-1,1,2.52,2.52,0,0,1-.91.15,2.61,2.61,0,0,1-.92-.15,1.79,1.79,0,0,1-.64-.4,1.67,1.67,0,0,1-.4-.59A1.85,1.85,0,0,1,121.34,158.51Zm.52,0a1.36,1.36,0,0,0,.09.48,1.22,1.22,0,0,0,.29.42,1.57,1.57,0,0,0,.49.3,2.25,2.25,0,0,0,1.39,0,1.57,1.57,0,0,0,.49-.3,1.25,1.25,0,0,0,.3-.42,1.37,1.37,0,0,0,.1-.48,1.28,1.28,0,0,0-.1-.47,1.21,1.21,0,0,0-.3-.41,1.57,1.57,0,0,0-.49-.3,2.07,2.07,0,0,0-1.39,0,1.57,1.57,0,0,0-.49.3,1.18,1.18,0,0,0-.29.41A1.27,1.27,0,0,0,121.86,158.51Zm3-3.77H122v-.57h2.83Zm3.11,8.59v.55h-5.44v-2.45h.56v1.9Zm1.36-5.83v.58h-1.51v3.71h-.55v-7.7h.55v3.41Z"/><path class="cls-4" d="M133.48,161.44a6.74,6.74,0,0,0,1.14-1.07,6.21,6.21,0,0,0,.9-1.43,7.6,7.6,0,0,0,.56-1.87,10.37,10.37,0,0,0,.13-2.36h.6c0,.46,0,.9,0,1.32s-.09.82-.16,1.21a8,8,0,0,0,1.08,2.2,6.88,6.88,0,0,0,1.68,1.72l-.44.48a8.09,8.09,0,0,1-1.45-1.52,8.5,8.5,0,0,1-1.08-2,7.43,7.43,0,0,1-1,2.15,7.3,7.3,0,0,1-1.51,1.63Zm9-3.52v.58h-1.64v5.59h-.55v-10h.55v3.83Z"/><path class="cls-4" d="M144.69,157.26V159H146a16.59,16.59,0,0,0,2.13-.12,10.63,10.63,0,0,0,1.63-.33v.55a11.74,11.74,0,0,1-1.78.34,20,20,0,0,1-2.11.11h-1.72v-2.85h3.37v-1.64H144.1v-.55h4v2.74Zm3.28,6.89a4.62,4.62,0,0,1-1.23-.14,2.81,2.81,0,0,1-.91-.39,1.69,1.69,0,0,1-.57-.59,1.49,1.49,0,0,1,0-1.49,1.75,1.75,0,0,1,.57-.58,3,3,0,0,1,.92-.39,5,5,0,0,1,1.22-.13,5.13,5.13,0,0,1,1.22.13,3,3,0,0,1,.91.39,1.89,1.89,0,0,1,.58.58,1.47,1.47,0,0,1,.19.75,1.48,1.48,0,0,1-.19.74,1.81,1.81,0,0,1-.58.59,2.81,2.81,0,0,1-.91.39A4.6,4.6,0,0,1,148,164.15Zm0-.54a4.31,4.31,0,0,0,1-.11,2.4,2.4,0,0,0,.72-.28,1.19,1.19,0,0,0,.44-.42.91.91,0,0,0,.15-.5.94.94,0,0,0-.15-.5,1.24,1.24,0,0,0-.43-.42,2.4,2.4,0,0,0-.72-.29,5.2,5.2,0,0,0-2,0,2.64,2.64,0,0,0-.72.29,1.33,1.33,0,0,0-.43.42.93.93,0,0,0-.14.5.9.9,0,0,0,.14.5,1.27,1.27,0,0,0,.44.42,2.52,2.52,0,0,0,.72.28A4.34,4.34,0,0,0,148,163.61Zm4.28-7.07v.57h-1.51v3.08h-.55v-6.1h.55v2.45Z"/><path class="cls-4" d="M153.46,158.45h8.62V159h-8.62Zm7.32-2.57a1.4,1.4,0,0,1-.75,1.24,5.53,5.53,0,0,1-4.46,0,1.4,1.4,0,0,1-.75-1.24,1.38,1.38,0,0,1,.19-.71,1.66,1.66,0,0,1,.56-.56,3.34,3.34,0,0,1,.93-.37,6.21,6.21,0,0,1,1.3-.13,6.14,6.14,0,0,1,1.3.13,3.22,3.22,0,0,1,.93.37,1.66,1.66,0,0,1,.56.56A1.48,1.48,0,0,1,160.78,155.88Zm.11,8.17h-6v-2.27h5.17v-1.13h-5.17v-.55h5.73v2.2h-5.17v1.22h5.42Zm-.68-8.17a.88.88,0,0,0-.14-.45,1.32,1.32,0,0,0-.44-.39,2.9,2.9,0,0,0-.76-.27,5.41,5.41,0,0,0-2.17,0,2.82,2.82,0,0,0-.75.27,1.27,1.27,0,0,0-.43.39.86.86,0,0,0-.13.45,1,1,0,0,0,.56.83,3.84,3.84,0,0,0,1.84.33,3.89,3.89,0,0,0,1.84-.33A1,1,0,0,0,160.21,155.88Z"/><path class="cls-4" d="M168.94,161.23h-1.87v-6.37h.57v5.79h1.44a12.77,12.77,0,0,0,1.93-.14,8.62,8.62,0,0,0,1.47-.32v.57l-.74.18-.88.16-1,.1Zm6.32-3.47v.59h-1.69v5.74H173v-10h.56v3.67Z"/><path class="cls-4" d="M176.49,160.38v-.55h8.41v.55h-3.85V164h-.58v-3.65Zm7.33-2.2H178v-3.84h.58v3.27h5.2Z"/><path class="cls-4" d="M186.16,161.56a7.45,7.45,0,0,0,1-1.21,7.18,7.18,0,0,0,.76-1.49,8.09,8.09,0,0,0,.44-1.82,12,12,0,0,0,.07-2.2H189c0,.4,0,.79,0,1.18s0,.75-.1,1.12a8.87,8.87,0,0,0,.76,2.19,7.37,7.37,0,0,0,1.36,1.88l-.46.39a8.68,8.68,0,0,1-1.12-1.59,8.43,8.43,0,0,1-.74-1.83,8.91,8.91,0,0,1-.79,2,7.79,7.79,0,0,1-1.28,1.71Zm5.42-4.05V154.2h.53v9.64h-.53v-5.78H190v-.55Zm2.42-3.42v10h-.55v-10Z"/><path class="cls-4" d="M202,160.09h.56v2.08h2v.56h-8.4v-.56h2.09v-2.08h.57v2.08H202Zm1.36-2.86a2.66,2.66,0,0,1-.2,1,2.61,2.61,0,0,1-.59.84,2.83,2.83,0,0,1-.94.56,3.89,3.89,0,0,1-1.27.19,3.77,3.77,0,0,1-1.25-.19,2.69,2.69,0,0,1-.93-.56,2.44,2.44,0,0,1-.58-.84,2.5,2.5,0,0,1-.21-1,2.59,2.59,0,0,1,.21-1,2.47,2.47,0,0,1,.58-.85,2.54,2.54,0,0,1,.93-.56,3.52,3.52,0,0,1,1.25-.21,3.64,3.64,0,0,1,1.27.21,2.51,2.51,0,0,1,1.53,1.41A2.77,2.77,0,0,1,203.4,157.23Zm-.57,0a2.24,2.24,0,0,0-.15-.81,1.91,1.91,0,0,0-.46-.67,2.23,2.23,0,0,0-.76-.47,3.33,3.33,0,0,0-2.1,0,2.18,2.18,0,0,0-.75.47,1.89,1.89,0,0,0-.45.67,2.05,2.05,0,0,0-.16.81,2,2,0,0,0,.16.79,1.85,1.85,0,0,0,.45.66,2.14,2.14,0,0,0,.75.45,3.33,3.33,0,0,0,2.1,0,2.19,2.19,0,0,0,.76-.45,1.88,1.88,0,0,0,.46-.66A2.13,2.13,0,0,0,202.83,157.23Z"/><path class="cls-4" d="M206.81,155.28a.59.59,0,0,1-.39-.17.6.6,0,0,1-.14-.43.61.61,0,0,1,.14-.42.53.53,0,0,1,.39-.15.52.52,0,0,1,.42.19.87.87,0,0,1,.16.59,2.05,2.05,0,0,1-.27,1.05,1.56,1.56,0,0,1-.8.69l-.09-.2a1.38,1.38,0,0,0,.51-.41,1.25,1.25,0,0,0,.22-.58A.14.14,0,0,0,206.81,155.28Zm1.49,0a.59.59,0,0,1-.39-.17.58.58,0,0,1-.14-.43.57.57,0,0,1,.15-.42.49.49,0,0,1,.38-.15.55.55,0,0,1,.42.19.87.87,0,0,1,.17.59,2.05,2.05,0,0,1-.27,1,1.63,1.63,0,0,1-.81.69l-.09-.2a1.31,1.31,0,0,0,.51-.41,1.15,1.15,0,0,0,.22-.58C208.46,155.35,208.41,155.3,208.3,155.29Z"/><path class="cls-4" d="M100.57,167.05v.39H99.35v9.43h1.22v.4H98.73V167.05Z"/><path class="cls-4" d="M102.86,168.65h.57l.08,3.32h1.94l.06-3.32h.57l0,3.29.85-.11a6.23,6.23,0,0,0,.8-.2v.52a5.73,5.73,0,0,1-1.42.3c-.53.05-1.06.07-1.58.07h-2.94V172h1.2Zm4.1-.46h-5v-.55h5Zm2,8.13v.57h-5.43V174h.57v2.31Zm1.36-6.44v.58h-1.51v4.17h-.55v-7.54h.55v2.79Z"/><path class="cls-4" d="M117.71,168v6.23h-3.37V168Zm-2.82,5.68h2.27v-5.13h-2.27Zm6.59-6.6v10h-.54v-5.71h-1.5v5.46h-.54V167.2h.54v3.63h1.5v-3.74Z"/><path class="cls-4" d="M125.29,167.05v10.22h-1.83v-.4h1.21v-9.43h-1.21v-.39Z"/><path class="cls-4" d="M15.51,188l-.37-.42a7.35,7.35,0,0,0,1.51-1.08,7.26,7.26,0,0,0,1.1-1.34,6.21,6.21,0,0,0,.69-1.48,6.3,6.3,0,0,0,.29-1.5l-1.1,0H15.46v-.51H18.2l1.11,0a8.17,8.17,0,0,1-1.06,3.68A7.59,7.59,0,0,1,15.51,188Zm5.7-3H19.39v-.53h1.82v-3.56h.51V190h-.51Z"/><path class="cls-4" d="M24.66,187.6h-.77v-3.29h2.38v-2.17h-2.4v-.5h2.9v3.17H24.4v2.29h.39a11.52,11.52,0,0,0,2.83-.35v.47a6.15,6.15,0,0,1-.62.16l-.75.12c-.26,0-.52.06-.79.07Zm5.72-6.73V190h-.49v-5.29H28.44v5.06H28V181h.49v3.2h1.45v-3.3Z"/><path class="cls-4" d="M36.4,183.13a2.32,2.32,0,0,1-.16.84,2,2,0,0,1-.44.65,1.76,1.76,0,0,1-.65.41,2.18,2.18,0,0,1-.82.15,2.23,2.23,0,0,1-.83-.15,1.84,1.84,0,0,1-.65-.41,1.94,1.94,0,0,1-.43-.65,2.32,2.32,0,0,1-.15-.84,2.26,2.26,0,0,1,.15-.85,1.94,1.94,0,0,1,.43-.65,2,2,0,0,1,.65-.42,2.45,2.45,0,0,1,.83-.14,2.39,2.39,0,0,1,.82.14,1.92,1.92,0,0,1,.65.42,2,2,0,0,1,.44.65A2.26,2.26,0,0,1,36.4,183.13Zm-.52,0a1.67,1.67,0,0,0-.12-.65,1.43,1.43,0,0,0-.32-.5,1.37,1.37,0,0,0-.49-.31,1.56,1.56,0,0,0-.62-.11,1.61,1.61,0,0,0-.63.11,1.46,1.46,0,0,0-.49.31,1.41,1.41,0,0,0-.31.5,1.67,1.67,0,0,0-.12.65,1.61,1.61,0,0,0,.12.63,1.46,1.46,0,0,0,.31.49,1.64,1.64,0,0,0,.49.31,1.81,1.81,0,0,0,.63.11,1.75,1.75,0,0,0,.62-.11,1.52,1.52,0,0,0,.49-.31,1.49,1.49,0,0,0,.32-.49A1.61,1.61,0,0,0,35.88,183.14ZM39,189.36v.5h-5.3v-2.2h4.6v-1.19h-4.6V186h5.11v2.17h-4.6v1.22Zm-.71-3.94v-4.55h.52v4.55Z"/><path class="cls-4" d="M41.69,182.65a.45.45,0,0,1,.35.15.52.52,0,0,1,.13.37.54.54,0,0,1-.13.37.45.45,0,0,1-.35.15.45.45,0,0,1-.34-.15.55.55,0,0,1-.14-.37.53.53,0,0,1,.14-.37A.45.45,0,0,1,41.69,182.65Zm0,4.12a.45.45,0,0,1,.35.15.52.52,0,0,1,.13.37.54.54,0,0,1-.13.37.45.45,0,0,1-.35.15.45.45,0,0,1-.34-.15.55.55,0,0,1-.14-.37.53.53,0,0,1,.14-.37A.45.45,0,0,1,41.69,186.77Z"/><path class="cls-4" d="M44.32,182.75a.05.05,0,0,1-.07,0,.05.05,0,0,1,0-.06v-.59a4.49,4.49,0,0,1,.8-.55,2.26,2.26,0,0,1,1.05-.24,2.12,2.12,0,0,1,1.45.46,1.83,1.83,0,0,1,.53,1.46,2.18,2.18,0,0,1-.09.63,3.66,3.66,0,0,1-.27.61,5.19,5.19,0,0,1-.43.65l-.56.75-2.06,2.57v0h3.51v.5H44v-.49l2.2-2.71c.24-.35.45-.64.62-.87a7.23,7.23,0,0,0,.41-.62,2.18,2.18,0,0,0,.22-.51,1.66,1.66,0,0,0,.07-.51,1.58,1.58,0,0,0-.35-1.08,1.36,1.36,0,0,0-1-.38,1.79,1.79,0,0,0-.91.24A4.34,4.34,0,0,0,44.32,182.75Z"/><path class="cls-4" d="M51.82,181.32a1.78,1.78,0,0,1,1.61.94,6,6,0,0,1,.57,3,9.52,9.52,0,0,1-.14,1.73,3.92,3.92,0,0,1-.42,1.19,1.9,1.9,0,0,1-.69.69,2.1,2.1,0,0,1-1.87,0,1.8,1.8,0,0,1-.68-.69,3.45,3.45,0,0,1-.42-1.19,8.7,8.7,0,0,1-.14-1.73,6.09,6.09,0,0,1,.56-3A1.79,1.79,0,0,1,51.82,181.32Zm0,.5c-1.1,0-1.65,1.14-1.65,3.41a5.72,5.72,0,0,0,.42,2.53,1.34,1.34,0,0,0,2.46,0,5.72,5.72,0,0,0,.42-2.53C53.47,183,52.92,181.82,51.82,181.82Z"/><path class="cls-4" d="M55.79,182.75a.07.07,0,0,1-.08,0,.06.06,0,0,1,0-.06v-.59a4.16,4.16,0,0,1,.8-.55,2.24,2.24,0,0,1,1-.24,2.15,2.15,0,0,1,1.46.46,1.86,1.86,0,0,1,.53,1.46,2.19,2.19,0,0,1-.1.63,2.53,2.53,0,0,1-.27.61,5,5,0,0,1-.42.65c-.17.22-.36.47-.56.75l-2.07,2.57v0h3.52v.5H55.43v-.49l2.2-2.71.63-.87a6.85,6.85,0,0,0,.4-.62,2.25,2.25,0,0,0,.23-.51,2,2,0,0,0,.06-.51,1.57,1.57,0,0,0-.34-1.08,1.4,1.4,0,0,0-1.06-.38,1.79,1.79,0,0,0-.91.24A4,4,0,0,0,55.79,182.75Z"/><path class="cls-4" d="M61.31,187.73a2.48,2.48,0,0,0,1.91.86,2,2,0,0,0,.64-.11,1.72,1.72,0,0,0,.54-.32,1.51,1.51,0,0,0,.36-.52,1.65,1.65,0,0,0,.13-.68,1.72,1.72,0,0,0-.14-.74,1.56,1.56,0,0,0-.38-.53,1.64,1.64,0,0,0-.58-.32,2.57,2.57,0,0,0-.75-.1h-.27v-.47h.14a2.27,2.27,0,0,0,.53-.07,1.77,1.77,0,0,0,.59-.23,1.57,1.57,0,0,0,.48-.48,1.42,1.42,0,0,0,.2-.8,1.39,1.39,0,0,0-.4-1.05,1.5,1.5,0,0,0-1.07-.39,2.13,2.13,0,0,0-.88.18,3.11,3.11,0,0,0-.86.63s0,0-.07,0a.05.05,0,0,1,0-.06V182a1.29,1.29,0,0,1,.33-.25,3,3,0,0,1,.44-.22,3.8,3.8,0,0,1,.51-.15,2.48,2.48,0,0,1,.54-.06,2.37,2.37,0,0,1,.87.14,1.8,1.8,0,0,1,.63.38,1.69,1.69,0,0,1,.39.59,2,2,0,0,1,.14.74,2.07,2.07,0,0,1-.35,1.18,1.57,1.57,0,0,1-1,.66v0a1.67,1.67,0,0,1,.58.2,1.72,1.72,0,0,1,.8,1,2.47,2.47,0,0,1,.11.75,2.35,2.35,0,0,1-.14.79,1.77,1.77,0,0,1-.42.68,2,2,0,0,1-.7.46,2.42,2.42,0,0,1-1,.18,2.88,2.88,0,0,1-.59-.06,3.29,3.29,0,0,1-.56-.15,3.07,3.07,0,0,1-.48-.24,1.93,1.93,0,0,1-.37-.3v-.55a.07.07,0,0,1,0-.07S61.28,187.7,61.31,187.73Z"/><path class="cls-4" d="M67.38,190.14h-.54l2.63-9.34H70Z"/><path class="cls-4" d="M73.51,181.32a1.78,1.78,0,0,1,1.61.94,6,6,0,0,1,.57,3,8.63,8.63,0,0,1-.15,1.73,3.45,3.45,0,0,1-.42,1.19,1.8,1.8,0,0,1-.68.69,2.1,2.1,0,0,1-1.87,0,1.8,1.8,0,0,1-.68-.69,3.66,3.66,0,0,1-.43-1.19,9.52,9.52,0,0,1-.14-1.73,6,6,0,0,1,.57-3A1.79,1.79,0,0,1,73.51,181.32Zm0,.5c-1.1,0-1.65,1.14-1.65,3.41a5.72,5.72,0,0,0,.42,2.53,1.33,1.33,0,0,0,2.45,0,5.7,5.7,0,0,0,.43-2.53C75.16,183,74.61,181.82,73.51,181.82Z"/><path class="cls-4" d="M77.26,187.73a2.5,2.5,0,0,0,1.92.86,2,2,0,0,0,.64-.11,1.67,1.67,0,0,0,.53-.32,1.66,1.66,0,0,0,.5-1.2,1.88,1.88,0,0,0-.14-.74,1.56,1.56,0,0,0-.38-.53,1.68,1.68,0,0,0-.59-.32,2.52,2.52,0,0,0-.75-.1h-.27v-.47h.15a2.34,2.34,0,0,0,.53-.07,1.86,1.86,0,0,0,.59-.23,1.57,1.57,0,0,0,.48-.48,1.51,1.51,0,0,0,.2-.8,1.39,1.39,0,0,0-.41-1.05,1.48,1.48,0,0,0-1.07-.39,2.12,2.12,0,0,0-.87.18,3.14,3.14,0,0,0-.87.63.06.06,0,0,1-.07,0,.06.06,0,0,1,0-.06V182a1.42,1.42,0,0,1,.32-.25,3.61,3.61,0,0,1,.44-.22,3.8,3.8,0,0,1,.51-.15,2.57,2.57,0,0,1,.55-.06,2.32,2.32,0,0,1,.86.14,1.8,1.8,0,0,1,.63.38,1.59,1.59,0,0,1,.4.59,2,2,0,0,1,.13.74,2.07,2.07,0,0,1-.34,1.18,1.56,1.56,0,0,1-1,.66v0a1.72,1.72,0,0,1,.59.2,2,2,0,0,1,.48.4,1.84,1.84,0,0,1,.31.59,2.19,2.19,0,0,1,.12.75,2.35,2.35,0,0,1-.14.79,1.92,1.92,0,0,1-.43.68,2,2,0,0,1-.69.46,2.42,2.42,0,0,1-1,.18,3.05,3.05,0,0,1-.6-.06,3,3,0,0,1-1-.39,1.59,1.59,0,0,1-.36-.3v-.55a.08.08,0,0,1,0-.07S77.24,187.7,77.26,187.73Z"/><path class="cls-4" d="M83.34,190.14H82.8l2.62-9.34h.49Z"/><path class="cls-4" d="M89.46,181.32a1.8,1.8,0,0,1,1.62.94,6.07,6.07,0,0,1,.57,3A8.63,8.63,0,0,1,91.5,187a3.92,3.92,0,0,1-.42,1.19,1.8,1.8,0,0,1-.68.69,2.07,2.07,0,0,1-.94.22,2,2,0,0,1-.93-.22,1.9,1.9,0,0,1-.69-.69,3.45,3.45,0,0,1-.42-1.19,9.52,9.52,0,0,1-.14-1.73,6,6,0,0,1,.57-3A1.76,1.76,0,0,1,89.46,181.32Zm0,.5c-1.1,0-1.65,1.14-1.65,3.41a5.56,5.56,0,0,0,.43,2.53,1.33,1.33,0,0,0,2.45,0,5.72,5.72,0,0,0,.42-2.53C91.11,183,90.56,181.82,89.46,181.82Z"/><path class="cls-4" d="M95.19,189.08a2.66,2.66,0,0,1-.93-.16,2.13,2.13,0,0,1-.71-.44,1.73,1.73,0,0,1-.45-.65,2,2,0,0,1-.16-.8,2.23,2.23,0,0,1,.34-1.25,1.84,1.84,0,0,1,1.14-.75v0a2.09,2.09,0,0,1-1-.68,1.76,1.76,0,0,1-.35-1.07,2.27,2.27,0,0,1,.13-.75,1.46,1.46,0,0,1,.39-.61,1.78,1.78,0,0,1,.65-.42,2.93,2.93,0,0,1,1.85,0,1.92,1.92,0,0,1,.66.42,1.54,1.54,0,0,1,.38.61,2,2,0,0,1,.13.75,1.76,1.76,0,0,1-.35,1.07,2.09,2.09,0,0,1-1,.68v0a1.84,1.84,0,0,1,1.14.75,2.23,2.23,0,0,1,.34,1.25,2.15,2.15,0,0,1-.15.8,1.71,1.71,0,0,1-.44.65,2.09,2.09,0,0,1-.7.44A2.82,2.82,0,0,1,95.19,189.08Zm0-.43a1.88,1.88,0,0,0,.66-.12,1.47,1.47,0,0,0,.55-.33,1.62,1.62,0,0,0,.39-.53,1.82,1.82,0,0,0,0-1.4,1.87,1.87,0,0,0-.39-.56,1.74,1.74,0,0,0-1.21-.49,1.74,1.74,0,0,0-.67.13,1.69,1.69,0,0,0-.55.36,1.87,1.87,0,0,0-.39.56,1.82,1.82,0,0,0,0,1.4,1.62,1.62,0,0,0,.39.53,1.47,1.47,0,0,0,.55.33A1.93,1.93,0,0,0,95.19,188.65Zm0-3.91a1.62,1.62,0,0,0,.56-.1,1.41,1.41,0,0,0,.51-.28,1.49,1.49,0,0,0,.39-1.74,1.52,1.52,0,0,0-.87-.78,1.82,1.82,0,0,0-1.19,0,1.52,1.52,0,0,0-.87.78,1.54,1.54,0,0,0-.13.63,1.41,1.41,0,0,0,.52,1.11,1.41,1.41,0,0,0,.51.28A1.63,1.63,0,0,0,95.19,184.74Z"/><path class="cls-4" d="M99.85,184.19a8.62,8.62,0,0,1,.38-1.25,7.54,7.54,0,0,1,.56-1.14,6.64,6.64,0,0,1,.68-1h.32a8.3,8.3,0,0,0-.62,1.09,8.42,8.42,0,0,0-.76,2.36,7,7,0,0,0-.11,1.2,7.14,7.14,0,0,0,.11,1.2,8.42,8.42,0,0,0,.3,1.2,9.85,9.85,0,0,0,.47,1.17,8.18,8.18,0,0,0,.62,1.08h-.33a7.23,7.23,0,0,1-.68-1,7.54,7.54,0,0,1-.56-1.14,8.62,8.62,0,0,1-.38-1.25,6,6,0,0,1,0-2.58Z"/><path class="cls-4" d="M103,186.62v-.5h7.65v.5h-3.51v3.29h-.52v-3.29Zm.6-2.2a4.87,4.87,0,0,0,1.34-.53,4.38,4.38,0,0,0,1-.8,3.13,3.13,0,0,0,.58-1,2.44,2.44,0,0,0,.17-1h.57a2.71,2.71,0,0,1-.15,1,3.51,3.51,0,0,0,.55.79,4.54,4.54,0,0,0,.74.64,5.23,5.23,0,0,0,.87.48,6.22,6.22,0,0,0,.92.31l-.28.5a5.14,5.14,0,0,1-.9-.33,4.59,4.59,0,0,1-.83-.48,4.79,4.79,0,0,1-.73-.62,5.1,5.1,0,0,1-.59-.73,4.36,4.36,0,0,1-1.18,1.34,5.54,5.54,0,0,1-1.77.88Z"/><path class="cls-4" d="M114,185.48a6.29,6.29,0,0,1-.14,1.29,8.62,8.62,0,0,1-.38,1.25,7.54,7.54,0,0,1-.56,1.14,7.23,7.23,0,0,1-.68,1h-.33a9.48,9.48,0,0,0,.62-1.08,9.85,9.85,0,0,0,.47-1.17,8.42,8.42,0,0,0,.3-1.2,7.14,7.14,0,0,0,.11-1.2,7,7,0,0,0-.11-1.2,8.72,8.72,0,0,0-.29-1.2,8.87,8.87,0,0,0-.48-1.16,8.24,8.24,0,0,0-.61-1.09h.32a6.64,6.64,0,0,1,.68,1,7.54,7.54,0,0,1,.56,1.14,8.62,8.62,0,0,1,.38,1.25A6.29,6.29,0,0,1,114,185.48Z"/><path class="cls-4" d="M119.44,182.94v-.4a3.36,3.36,0,0,0,.7-.46,4.11,4.11,0,0,0,.63-.62h.62V189h-.51v-6.89h0a5,5,0,0,1-.7.55,5.54,5.54,0,0,1-.65.36C119.46,183,119.44,183,119.44,182.94Z"/><path class="cls-4" d="M127.41,181.46H128v5.29h1.09v.45H128V189h-.48V187.2h-3.34v-.43Zm.19.44-.3.64-2.56,4.21v0h2.85V181.9Z"/><path class="cls-4" d="M131.14,182.65a.45.45,0,0,1,.34.15.53.53,0,0,1,.14.37.55.55,0,0,1-.14.37.45.45,0,0,1-.34.15.45.45,0,0,1-.35-.15.54.54,0,0,1-.13-.37.52.52,0,0,1,.13-.37A.45.45,0,0,1,131.14,182.65Zm0,4.12a.45.45,0,0,1,.34.15.53.53,0,0,1,.14.37.55.55,0,0,1-.14.37.45.45,0,0,1-.34.15.45.45,0,0,1-.35-.15.54.54,0,0,1-.13-.37.52.52,0,0,1,.13-.37A.45.45,0,0,1,131.14,186.77Z"/><path class="cls-4" d="M135.53,181.32a1.78,1.78,0,0,1,1.61.94,6,6,0,0,1,.57,3,9.52,9.52,0,0,1-.14,1.73,3.66,3.66,0,0,1-.43,1.19,1.8,1.8,0,0,1-.68.69,2.1,2.1,0,0,1-1.87,0,1.8,1.8,0,0,1-.68-.69,3.45,3.45,0,0,1-.42-1.19,8.7,8.7,0,0,1-.14-1.73,6,6,0,0,1,.56-3A1.79,1.79,0,0,1,135.53,181.32Zm0,.5c-1.1,0-1.65,1.14-1.65,3.41a5.72,5.72,0,0,0,.42,2.53,1.33,1.33,0,0,0,1.23.81,1.31,1.31,0,0,0,1.22-.81,5.56,5.56,0,0,0,.43-2.53C137.18,183,136.63,181.82,135.53,181.82Z"/><path class="cls-4" d="M141.26,181.32a1.78,1.78,0,0,1,1.61.94,6,6,0,0,1,.57,3,9.52,9.52,0,0,1-.14,1.73,3.92,3.92,0,0,1-.42,1.19,1.9,1.9,0,0,1-.69.69,2.1,2.1,0,0,1-1.87,0,1.88,1.88,0,0,1-.68-.69,3.45,3.45,0,0,1-.42-1.19,8.7,8.7,0,0,1-.14-1.73,6.09,6.09,0,0,1,.56-3A1.79,1.79,0,0,1,141.26,181.32Zm0,.5c-1.1,0-1.65,1.14-1.65,3.41a5.72,5.72,0,0,0,.42,2.53,1.34,1.34,0,0,0,2.46,0,5.72,5.72,0,0,0,.42-2.53C142.91,183,142.36,181.82,141.26,181.82Z"/><path class="cls-4" d="M145.74,182.65a.45.45,0,0,1,.35.15.52.52,0,0,1,.13.37.54.54,0,0,1-.13.37.45.45,0,0,1-.35.15.43.43,0,0,1-.34-.15.55.55,0,0,1-.14-.37.53.53,0,0,1,.14-.37A.43.43,0,0,1,145.74,182.65Zm0,4.12a.45.45,0,0,1,.35.15.52.52,0,0,1,.13.37.54.54,0,0,1-.13.37.45.45,0,0,1-.35.15.43.43,0,0,1-.34-.15.55.55,0,0,1-.14-.37.53.53,0,0,1,.14-.37A.43.43,0,0,1,145.74,186.77Z"/><path class="cls-4" d="M150.13,181.32a1.79,1.79,0,0,1,1.62.94,6,6,0,0,1,.57,3,8.63,8.63,0,0,1-.15,1.73,3.67,3.67,0,0,1-.42,1.19,1.8,1.8,0,0,1-.68.69,2.07,2.07,0,0,1-.94.22,2,2,0,0,1-.93-.22,1.9,1.9,0,0,1-.69-.69,3.92,3.92,0,0,1-.42-1.19,9.52,9.52,0,0,1-.14-1.73,6,6,0,0,1,.57-3A1.77,1.77,0,0,1,150.13,181.32Zm0,.5c-1.09,0-1.64,1.14-1.64,3.41a5.72,5.72,0,0,0,.42,2.53,1.33,1.33,0,0,0,2.45,0,5.72,5.72,0,0,0,.42-2.53C151.78,183,151.23,181.82,150.13,181.82Z"/><path class="cls-4" d="M155.87,181.32a1.78,1.78,0,0,1,1.61.94,6,6,0,0,1,.57,3,8.63,8.63,0,0,1-.15,1.73,3.45,3.45,0,0,1-.42,1.19,1.8,1.8,0,0,1-.68.69,2.1,2.1,0,0,1-1.87,0,1.8,1.8,0,0,1-.68-.69,3.66,3.66,0,0,1-.43-1.19,9.52,9.52,0,0,1-.14-1.73,6,6,0,0,1,.57-3A1.79,1.79,0,0,1,155.87,181.32Zm0,.5c-1.1,0-1.65,1.14-1.65,3.41a5.72,5.72,0,0,0,.42,2.53,1.33,1.33,0,0,0,2.45,0,5.72,5.72,0,0,0,.42-2.53C157.51,183,157,181.82,155.87,181.82Z"/><path class="cls-4" d="M181.37,183.7a2.79,2.79,0,0,1-.19,1,2,2,0,0,1-.53.77,2.4,2.4,0,0,1-.83.47,3.6,3.6,0,0,1-1.08.16h-.85V189h-.8v-7.57h1.69a3.75,3.75,0,0,1,1,.13,2.24,2.24,0,0,1,.82.4,2,2,0,0,1,.56.71A2.41,2.41,0,0,1,181.37,183.7Zm-.84,0a1.7,1.7,0,0,0-.15-.77,1.24,1.24,0,0,0-.4-.47,1.58,1.58,0,0,0-.58-.24,3.74,3.74,0,0,0-.68-.06h-.84v3.24h.71a3.69,3.69,0,0,0,.76-.08,1.68,1.68,0,0,0,.62-.28,1.25,1.25,0,0,0,.41-.52A2,2,0,0,0,180.53,183.72Z"/><path class="cls-4" d="M185.47,189.11a2.73,2.73,0,0,1-1.27-.29,3,3,0,0,1-.95-.81,3.89,3.89,0,0,1-.58-1.23,5.41,5.41,0,0,1-.21-1.54,5.48,5.48,0,0,1,.21-1.55,3.89,3.89,0,0,1,.58-1.23,2.9,2.9,0,0,1,.95-.83,2.93,2.93,0,0,1,2.54,0,2.77,2.77,0,0,1,.94.83,3.7,3.7,0,0,1,.59,1.23,5.48,5.48,0,0,1,.21,1.55,5.41,5.41,0,0,1-.21,1.54,3.7,3.7,0,0,1-.59,1.23,2.82,2.82,0,0,1-.94.81A2.73,2.73,0,0,1,185.47,189.11Zm0-.77a1.8,1.8,0,0,0,.94-.24,2,2,0,0,0,.67-.65,3,3,0,0,0,.41-1,5.42,5.42,0,0,0,.13-1.24,5.36,5.36,0,0,0-.13-1.24,3.17,3.17,0,0,0-.41-1,2.11,2.11,0,0,0-.67-.66,2,2,0,0,0-1.88,0,2,2,0,0,0-.67.66,3.17,3.17,0,0,0-.41,1,5.35,5.35,0,0,0-.14,1.24,5.41,5.41,0,0,0,.14,1.24,3,3,0,0,0,.41,1,1.89,1.89,0,0,0,.67.65A1.8,1.8,0,0,0,185.47,188.34Z"/><path class="cls-4" d="M189.87,188.44v-1s0-.07,0-.08,0,0,.07,0a2.7,2.7,0,0,0,.85.68,2.4,2.4,0,0,0,1,.2,1.75,1.75,0,0,0,1.11-.31,1.23,1.23,0,0,0,.37-1,1.34,1.34,0,0,0-.08-.46,1.27,1.27,0,0,0-.25-.37,1.74,1.74,0,0,0-.38-.32,4.53,4.53,0,0,0-.49-.29l-.64-.31a4.69,4.69,0,0,1-.63-.35,2.23,2.23,0,0,1-.48-.43,2,2,0,0,1-.31-.56,2.27,2.27,0,0,1-.11-.72,1.74,1.74,0,0,1,.18-.82,1.56,1.56,0,0,1,.46-.58,2,2,0,0,1,.69-.35,3.3,3.3,0,0,1,.85-.11,3.46,3.46,0,0,1,.89.12,2.37,2.37,0,0,1,.84.42v.74s0,.08,0,.09-.05,0-.08,0a2.58,2.58,0,0,0-.74-.43,2.23,2.23,0,0,0-.85-.14,1.7,1.7,0,0,0-1,.25.92.92,0,0,0-.36.81,1.12,1.12,0,0,0,.08.45,1.15,1.15,0,0,0,.22.35,1.6,1.6,0,0,0,.35.28,2.74,2.74,0,0,0,.42.21l.66.32a3.85,3.85,0,0,1,1.25.91,1.92,1.92,0,0,1,.42,1.26,2.53,2.53,0,0,1-.17,1,1.77,1.77,0,0,1-.49.67,1.92,1.92,0,0,1-.75.4,3.61,3.61,0,0,1-1,.13,3.5,3.5,0,0,1-1.07-.15A2.13,2.13,0,0,1,189.87,188.44Z"/><path class="cls-4" d="M196.55,182.53a.58.58,0,0,1,.45.19.7.7,0,0,1,.17.48.72.72,0,0,1-.17.48.62.62,0,0,1-.45.19.58.58,0,0,1-.44-.19.67.67,0,0,1-.17-.48.66.66,0,0,1,.17-.48A.55.55,0,0,1,196.55,182.53Zm0,4.06a.58.58,0,0,1,.45.19.69.69,0,0,1,.17.48.72.72,0,0,1-.17.48.62.62,0,0,1-.45.19.58.58,0,0,1-.44-.19.67.67,0,0,1-.17-.48.64.64,0,0,1,.17-.48A.55.55,0,0,1,196.55,186.59Z"/><path class="cls-4" d="M200.94,181.3a1.83,1.83,0,0,1,1.66,1,6.18,6.18,0,0,1,.57,3,5.64,5.64,0,0,1-.58,2.92,1.83,1.83,0,0,1-1.65.92,2,2,0,0,1-.95-.23,1.92,1.92,0,0,1-.7-.69,3.82,3.82,0,0,1-.43-1.2,9.48,9.48,0,0,1-.14-1.72,6.18,6.18,0,0,1,.57-3A1.83,1.83,0,0,1,200.94,181.3Zm0,.7c-.95,0-1.43,1.1-1.43,3.31a5.85,5.85,0,0,0,.36,2.39,1.14,1.14,0,0,0,1.07.74,1.16,1.16,0,0,0,1.08-.74,5.85,5.85,0,0,0,.36-2.39C202.38,183.1,201.9,182,200.94,182Z"/><path class="cls-4" d="M205.14,183.11v-.62a3.78,3.78,0,0,0,.7-.45,3.91,3.91,0,0,0,.61-.61h.82V189h-.78v-6.64h0a5,5,0,0,1-.62.46,4.76,4.76,0,0,1-.63.33C205.17,183.18,205.14,183.17,205.14,183.11Z"/><path class="cls-4" d="M112.08,20.48c-17.25-2-25.31-2.89-37.72-4.35-.44,0-.81,0-.73.61,2.69,9.15,3.05,10.7,6.55,22.62.73,2.15,1.95,2.72,3.13,2.72h57.37c1.18,0,2.4-.57,3.13-2.72,3.5-11.92,3.9-13.39,6.59-22.62,0-.65-.33-.61-.77-.61-12.41,1.46-20.26,2.32-37.55,4.35Z"/><path class="cls-5" d="M112,21.78c15.59-1.75,24.86-2.93,36-4.19.41,0,.77-.28.57.37-1.55,5.45-2,7.12-4.8,16.76-.53,1.71-1.34,1.54-2.61,1.54H82.83c-1.27,0-2,.17-2.61-1.54C77.46,25.08,77,23.41,75.42,18c-.16-.65.2-.41.57-.41,11.19,1.3,20.42,2.48,36,4.23Z"/><path class="cls-5" d="M141.9,37.69a.94.94,0,1,0,.93.93.92.92,0,0,0-.93-.93Zm0,.16h0a.78.78,0,1,1-.74.77.77.77,0,0,1,.74-.77Zm-.33.25v1h.16v-.44h.17l.28.44h.2l-.32-.44c.2-.05.28-.13.28-.33s-.12-.28-.36-.28Zm.16.44v-.32h.21c.16,0,.24.08.24.16s-.08.16-.2.16Z"/><path class="cls-5" d="M92,37.44A1.56,1.56,0,0,0,90.39,39,1.66,1.66,0,1,0,92,37.44Zm0,.74a.83.83,0,1,1,0,1.66.83.83,0,1,1,0-1.66Z"/><path class="cls-5" d="M99.59,37.49V39c0,.37,0,.81-.53.81s-.53-.44-.53-.81V37.49h-.77v1.62a1.34,1.34,0,0,0,.32,1.1,1.61,1.61,0,0,0,1,.33,1.67,1.67,0,0,0,1-.33,1.45,1.45,0,0,0,.33-1.1V37.49Z"/><path class="cls-5" d="M106.06,38.83v.57h.56A.58.58,0,0,1,106,40a.87.87,0,0,1-.77-.94c0-.45.29-1,.77-1a.74.74,0,0,1,.65.53l.74-.36a1.45,1.45,0,0,0-1.35-.78,1.59,1.59,0,1,0,0,3.18,1.61,1.61,0,0,0,1.26-.57,2.17,2.17,0,0,0,.29-1.18l-1.46,0Z"/><polygon class="cls-5" points="112.36 38.66 112.36 37.48 111.59 37.48 111.59 40.5 112.36 40.5 112.36 39.32 113.46 39.32 113.46 40.5 114.23 40.5 114.23 37.48 113.46 37.48 113.46 38.66 112.36 38.66 112.36 38.66"/><polygon class="cls-5" points="118.46 40.5 119.24 40.5 119.24 38.66 119.24 38.66 120.66 40.5 121.43 40.5 121.43 37.48 120.66 37.48 120.66 39.36 120.66 39.36 119.24 37.48 118.46 37.48 118.46 40.5 118.46 40.5"/><path class="cls-5" d="M127.45,37.49v1.58c0,.41,0,.77-.52.77s-.53-.36-.53-.77V37.49h-.78v1.7a1.36,1.36,0,0,0,.33,1.06,1.43,1.43,0,0,0,1,.37,1.45,1.45,0,0,0,1-.37,1.34,1.34,0,0,0,.29-1.06v-1.7Z"/><polygon class="cls-5" points="133.64 38.18 134.49 38.18 134.49 37.48 131.97 37.48 131.97 38.18 132.82 38.18 132.82 40.5 133.64 40.5 133.64 38.18 133.64 38.18"/><path class="cls-5" d="M140.19,37.65a3.25,3.25,0,0,0-.94-.21,1,1,0,0,0-1,1c0,.57.32.65.81.86.16,0,.45.08.45.32a.34.34,0,0,1-.37.29,1.24,1.24,0,0,1-.69-.33l-.33.65a2.59,2.59,0,0,0,1.06.37,1.61,1.61,0,0,0,.86-.29,1.28,1.28,0,0,0,.28-.85c0-.45-.33-.69-.73-.82l-.21,0c-.12,0-.32-.12-.32-.28a.32.32,0,0,1,.32-.29.91.91,0,0,1,.53.25l.29-.65Z"/><path class="cls-6" d="M139.21,30.2a2.62,2.62,0,0,0,2.08-.85c.2-.41.12-1.14-.45-1.14s-1.43.41-1.63,2Zm3.3,1.43c-1.63,2.19-4,1.91-4.56-.13a2.73,2.73,0,0,1-2,1.71c-1.26.08-1.39-1.14-1.26-1.83a19.82,19.82,0,0,1,.89-2.44c.33-1-.73-.49-1.3.49l-1.43,3.78a11.29,11.29,0,0,0-1.62-.08c.12-.65,1.05-2.68,1.58-4.19.37-1-.73-.45-1.34.57l0,.08-1.46,3.62h-1.71l.53-1.38a2.8,2.8,0,0,1-.57.57c-2.2,1.55-3.26.41-3.58-.69-.61.77-1.39,1.5-2,1.42-1.26,0-1-1.91-.73-2.52.57-1.67,1.18-2.28,0-2.32-.2,0-1.59,5.29-4.11,5.57-2.32.17-1.42-1.62-1-2.68.61-1.71,1.27-2.56.94-3.17s-1.67.48-2.07,1.58c-.57,1.39-1.71,4.27-1.71,4.27l-2.16.09s1.79-4.52,3.54-9.12c.57-1.46-.33-1.5-1-1.46s-.36-.45,0-.53c2.12-.16,2.85-.08,3.1.08a.8.8,0,0,1,.32.94c-.36,1-1.06,2.76-1.18,3.05-.28.93.33.08.53-.17a23.28,23.28,0,0,0,1.75-2.07c.28-.33,1.51-1.55,2.28-1.55s20.71,0,21.23,0a2.08,2.08,0,0,0,1.55-.61c.16-.12.37-.12.37.09,0,0-1.06,2.4-2.44,2.4H120.42a3.53,3.53,0,0,0-2.08,1.38c-.65.77.16.49.16.49,1.22-.13,2.32-.41.41,3.78-1.83,4,.9,2.16,2.48-2.73.08-.16-.4-.36-.4-.73s-.17-.89.61-.89.48.73,1.09.89c1.27.41,2,0,1.31,1.67-.65,1.51-1.35,3.42-.53,3.21s.89-.85,1-1.13v-.17a4.14,4.14,0,0,1,1.88-3.33c1.91-.86,2.64.24,2.56,1.26-.08,1.22-1.47,2.07-3,2.11,0,0,0,0,0,.25.24,1.79,2.28.77,3.37-.41l1.39-3.5,1.75,0L132,28.17c1.3-1.55,2.69-1.14,2.56.24l0-.08c1.51-1.95,3.22-1.22,2.61.57-.08.25-.94,2.65-.94,2.65s-.24.81.29.81,1-.81,1.3-1.55v0a3.75,3.75,0,0,1,1.67-3.33c1.91-.82,2.72.28,2.72,1.26,0,1.22-1.38,2.07-3,2.11,0,0,0,0,0,.25.41,2.15,2.57.73,2.85.32.81-.93.77-.28.41.25ZM125.87,30.2a2.59,2.59,0,0,0,2.07-.85c.25-.41.21-1.14-.36-1.14s-1.39.41-1.71,2ZM95.76,24.06a.89.89,0,0,1,.9-.94.88.88,0,0,1,.85.94.86.86,0,0,1-.85.89.88.88,0,0,1-.9-.89Zm10.7,10.82a3.19,3.19,0,0,0,1.22-1.34,4.9,4.9,0,0,0-1.42.77c-.49.45-.25.86.2.57Zm-2.68-2.36a5.56,5.56,0,0,0,2.76-2.85c.57-1.38,1-2.52,1-2.52h1.63S108,30,107.52,31.46s.89.21,1.42-1.3,1.1-3,1.1-3h1.75s-2,5-2.2,5.45c.61-.16,1.43.29,1.35.57-.29.82-.45-.44-1.63-.08-.65,1.55-2.08,2.93-3.21,2.77-1.51-.2-.61-2.24,1.87-2.93l.2-.61c-1.3,1.06-2.52.41-2.24-.86a3.49,3.49,0,0,1-3.09,1.43,1.29,1.29,0,0,1-1.38-.57c-.41,1.06-1,2.48-1,2.48H98.81l.86-2.16a3.65,3.65,0,0,1-2,.45,1.58,1.58,0,0,1-1.92-.93c-1.22,1.62-2.56,1-2.76,0-.53.49-1.06,1-1.59.89-1.26,0-.94-1.91-.73-2.52.57-1.67,1.18-2.28,0-2.32-.2,0-1.59,5.29-4.07,5.57-2.32.17-1.42-1.62-1.06-2.68.61-1.71,1.26-2.56.94-3.17s-1.67.48-2.08,1.58c-.57,1.39-1.71,4.27-1.71,4.27L80.63,34s1.79-4.52,3.54-9.12c.57-1.46-.33-1.5-1-1.46s-.36-.45.08-.53c2.08-.16,2.81-.08,3.09.08a.86.86,0,0,1,.33.94c-.41,1-1.1,2.76-1.18,3.05-.33.93.33.08.49-.17s1.5-1.66,1.79-2.07,1.46-1.55,2.28-1.55h5.41a1.43,1.43,0,0,0-.33.94,1.35,1.35,0,0,0,.37.94H89.29a3.54,3.54,0,0,0-2.07,1.38c-.61.77.16.49.16.49,1.22-.13,2.32-.41.41,3.78-1.83,4,.89,2.16,2.52-2.73,0-.16-.41-.36-.45-.73s-.12-.89.61-.89.49.73,1.1.89c1.3.41,2,0,1.3,1.67-.61,1.51-1.34,3.42-.48,3.21a1.29,1.29,0,0,0,.77-.69c.89-2.36,1.63-4.23,1.63-4.23h1.62l-1.79,4.52c-.4,1,.45.44,1.06-.21a.89.89,0,0,1,.57-.81L99,26.83s.12.08,0,.32a5,5,0,0,0,.32,2.08c.21.69.57,2.44-.4,3.25a2.33,2.33,0,0,1-.53.37,3.48,3.48,0,0,0,1.46-.65l1.95-5.05h1.63a3.16,3.16,0,0,0-.16.41,1.87,1.87,0,0,1,1.5-.45c.45.16,2,.29.29,3.7a4.36,4.36,0,0,1-1.3,1.71Zm-6.92-1.87a1,1,0,0,1-.08,1.71c-.24.16.85.73,1.34-.41a3.07,3.07,0,0,0-.24-2.48c-.16.16-.53.57-1,1.18Zm6.06-1.91c-.12.2-1,2.32-1,2.32-.25.61.12.89.36.93.53.12,1.06-.28,1.67-1.79.9-2.36-.77-2-1.06-1.46ZM97.8,23.08c5.94,0,13.14,0,13.46,0a2,2,0,0,0,1.55-.61c.16-.12.36-.12.36.09,0,0-1,2.4-2.44,2.4H97.8a1.57,1.57,0,0,0,.32-.94,1.69,1.69,0,0,0-.32-1Z"/><path class="cls-5" d="M85,38.48h.13a.67.67,0,0,1,.7.74.65.65,0,0,1-.7.71H85V38.48Zm-.63,2h.89a1.27,1.27,0,0,0,1.24-1.28,1.3,1.3,0,0,0-1.24-1.34h-.89V40.5Z"/><rect class="cls-4" x="14.75" y="198.02" width="194.13" height="7.84"/><rect class="cls-4" x="14.75" y="224.9" width="84.89" height="7.84"/><rect class="cls-4" x="137.48" y="224.9" width="14.7" height="7.84"/><rect class="cls-4" x="178.99" y="224.9" width="28.72" height="7.84"/><path class="cls-4" d="M18.83,217.47a6.59,6.59,0,0,1-.84-1,9.09,9.09,0,0,1-.66-1.19,8.36,8.36,0,0,1-.85,1.36,7.8,7.8,0,0,1-1.12,1.18l-.4-.36a7.18,7.18,0,0,0,1.22-1.25A8.21,8.21,0,0,0,17,214.8a7.62,7.62,0,0,0,.51-1.4,8.79,8.79,0,0,0,.23-1.36l-.8,0H15.41v-.5h1.95l.92,0a12.23,12.23,0,0,1-.22,1.61,8.33,8.33,0,0,1-.48,1.54A8.07,8.07,0,0,0,18.3,216a6.2,6.2,0,0,0,.94,1.09Zm.94-3.42v-3.19h.49v8.76h-.49v-5.07H18.51v-.5Zm2.13-3.29v9.09h-.5v-9.09Z"/><path class="cls-4" d="M32.38,219.71H27.2v-2.8h2.3v-1.23H25.87v-.5h7.84v.5H30v1.23h2.34Zm.32-6.19v.5H26.89v-.5H28l-.1-1.57h.52l.1,1.57H31l.11-1.57h.53l-.11,1.57Zm-.13-2H27V211h5.55Zm-.7,7.68v-1.82H27.71v1.82Z"/><path class="cls-4" d="M41.21,211.2v.89h2.07v-1.33h.51v5.41h-.51v-1.72H41.21v.88h-3.7V211.2ZM38,214.83h2.68V211.7H38Zm3.14,5.09a4.25,4.25,0,0,1-1.12-.13,2.82,2.82,0,0,1-.82-.36,1.76,1.76,0,0,1-.53-.56,1.52,1.52,0,0,1-.18-.73,1.44,1.44,0,0,1,.18-.71,1.63,1.63,0,0,1,.53-.55,2.53,2.53,0,0,1,.83-.35,4.8,4.8,0,0,1,2.22,0,2.63,2.63,0,0,1,.83.35,1.51,1.51,0,0,1,.52.55,1.44,1.44,0,0,1,.18.71,1.52,1.52,0,0,1-.18.73,1.62,1.62,0,0,1-.52.56,2.89,2.89,0,0,1-.83.36A4.18,4.18,0,0,1,41.17,219.92Zm0-.5a2.77,2.77,0,0,0,1.58-.37,1.05,1.05,0,0,0,.54-.89,1.07,1.07,0,0,0-.53-.9,2.83,2.83,0,0,0-1.59-.36,2.87,2.87,0,0,0-1.6.36,1,1,0,0,0,0,1.79A2.79,2.79,0,0,0,41.17,219.42Zm2.11-6.85H41.21V214h2.07Z"/><path class="cls-4" d="M137.31,216.51V216H145v.5h-3.5v3.29h-.53v-3.29Zm.6-2.2a4.68,4.68,0,0,0,1.33-.53,3.93,3.93,0,0,0,1-.8,3,3,0,0,0,.59-1,2.44,2.44,0,0,0,.17-1h.57a2.68,2.68,0,0,1-.15,1,3,3,0,0,0,.55.79,4.54,4.54,0,0,0,.74.64,4.59,4.59,0,0,0,.87.48,5.43,5.43,0,0,0,.91.31l-.28.5a5,5,0,0,1-.89-.33,4.59,4.59,0,0,1-.83-.48,4.79,4.79,0,0,1-.73-.62,5.1,5.1,0,0,1-.59-.73,4.28,4.28,0,0,1-1.19,1.34,5.29,5.29,0,0,1-1.76.88Z"/><path class="cls-4" d="M146.74,213.64v1.59h1.17a15.61,15.61,0,0,0,1.93-.11,9,9,0,0,0,1.48-.3v.5a9.72,9.72,0,0,1-1.62.31,16.46,16.46,0,0,1-1.91.1h-1.57v-2.59h3.06v-1.49H146.2v-.5h3.6v2.49Zm3,6.27a4.25,4.25,0,0,1-1.12-.13,2.82,2.82,0,0,1-.82-.36,1.57,1.57,0,0,1-.52-.54,1.29,1.29,0,0,1,0-1.35,1.64,1.64,0,0,1,.52-.53,2.77,2.77,0,0,1,.83-.35,5.19,5.19,0,0,1,2.22,0,2.88,2.88,0,0,1,.83.35,1.64,1.64,0,0,1,.52.53,1.36,1.36,0,0,1,0,1.35,1.57,1.57,0,0,1-.52.54,2.89,2.89,0,0,1-.83.36A4.18,4.18,0,0,1,149.72,219.91Zm0-.5a4.12,4.12,0,0,0,.91-.09,2.52,2.52,0,0,0,.66-.26,1.22,1.22,0,0,0,.4-.38.87.87,0,0,0,.13-.46.84.84,0,0,0-.13-.45,1.15,1.15,0,0,0-.4-.39,2.32,2.32,0,0,0-.65-.26,4.22,4.22,0,0,0-.92-.09,4.15,4.15,0,0,0-.92.09,2.52,2.52,0,0,0-.66.26,1.21,1.21,0,0,0-.39.39.84.84,0,0,0-.13.45.87.87,0,0,0,.13.46,1.22,1.22,0,0,0,.4.38,2.52,2.52,0,0,0,.66.26A4.06,4.06,0,0,0,149.72,219.41Zm2.52-8.65v1.39h1.34v.5h-1.34v1.47h1.34v.5h-1.34v1.78h-.5v-5.64Z"/><path class="cls-4" d="M184.06,214.36h5.77c.06-.47.12-.94.16-1.41s.06-.94.06-1.41h-4.76V211h5.3c0,.61,0,1.18-.09,1.71s-.09,1.08-.16,1.63h1.55v.5h-7.83Zm6.51,5.34h-5.19v-3.27h5.19Zm-.52-.5v-2.27H185.9v2.27Z"/><path class="cls-4" d="M200.41,211.23a1.8,1.8,0,0,1,.61.44,2.12,2.12,0,0,1,.4.69,2.83,2.83,0,0,1,.14.9,2.77,2.77,0,0,1-.14.89,2.12,2.12,0,0,1-.4.69,1.68,1.68,0,0,1-.61.44,1.76,1.76,0,0,1-.76.16,1.71,1.71,0,0,1-.75-.16,1.79,1.79,0,0,1-.59-.44,1.94,1.94,0,0,1-.39-.69,2.52,2.52,0,0,1-.14-.89,2.58,2.58,0,0,1,.14-.9,1.85,1.85,0,0,1,1-1.13,1.71,1.71,0,0,1,.75-.16A1.76,1.76,0,0,1,200.41,211.23Zm-1.31.46a1.27,1.27,0,0,0-.43.34,1.67,1.67,0,0,0-.28.53,2.57,2.57,0,0,0-.1.7,2.5,2.5,0,0,0,.1.69,1.67,1.67,0,0,0,.28.53,1.3,1.3,0,0,0,1.54.34,1.22,1.22,0,0,0,.44-.34,1.51,1.51,0,0,0,.29-.53,2.17,2.17,0,0,0,.11-.69,2.23,2.23,0,0,0-.11-.7,1.51,1.51,0,0,0-.29-.53,1.22,1.22,0,0,0-.44-.34,1.28,1.28,0,0,0-.56-.12A1.26,1.26,0,0,0,199.1,211.69Zm5.56,8.18h-.51v-2.68h-4.84v-.5h5.35Zm0-9.11v5.32h-.5v-2.56h-1.35v2.56h-.49v-5.22h.49V213h1.35v-2.26Z"/><rect class="cls-7" x="13.31" y="110.92" width="98.7" height="15.06"/><rect class="cls-7" x="41.82" y="178.33" width="57.83" height="11.81"/><rect class="cls-7" x="117.39" y="178.33" width="43.41" height="11.81"/><circle class="cls-8" cx="6.95" cy="115.52" r="4.89"/><path class="cls-9" d="M7.71,113.05V118h-1v-3.31H5.8v-.79a1.1,1.1,0,0,0,.69-.22.79.79,0,0,0,.29-.6Z"/><circle class="cls-8" cx="35.55" cy="183.22" r="4.89"/><path class="cls-9" d="M36.73,181.09a1.45,1.45,0,0,1,.39,1.07,1.5,1.5,0,0,1-.28.86,3.57,3.57,0,0,1-.86.8,2.37,2.37,0,0,0-.54.5,1.33,1.33,0,0,0-.25.56h1.93v.79H34.76a.56.56,0,0,1-.41-.16.52.52,0,0,1-.18-.42,2.06,2.06,0,0,1,.28-.9,2.31,2.31,0,0,1,.89-1,1.72,1.72,0,0,0,.55-.56,1.19,1.19,0,0,0,.19-.59.78.78,0,0,0-.11-.45.4.4,0,0,0-.31-.14.38.38,0,0,0-.34.18.81.81,0,0,0-.11.43H34.14a1.55,1.55,0,0,1,.46-1,1.46,1.46,0,0,1,1-.36A1.5,1.5,0,0,1,36.73,181.09Z"/><circle class="cls-8" cx="111.19" cy="183.22" r="4.89"/><path class="cls-9" d="M112.28,181a1.12,1.12,0,0,1,.39.92,1.37,1.37,0,0,1-.22.75.87.87,0,0,1-.58.41.92.92,0,0,1,.7.39,1.27,1.27,0,0,1,.27.8,1.39,1.39,0,0,1-1.49,1.45,1.87,1.87,0,0,1-1.07-.32,1.35,1.35,0,0,1-.54-1h1a.62.62,0,0,0,.16.43.49.49,0,0,0,.39.14.44.44,0,0,0,.35-.18.74.74,0,0,0,.14-.46.7.7,0,0,0-.23-.56.88.88,0,0,0-.68-.18v-.8a.68.68,0,0,0,.53-.18.58.58,0,0,0,.2-.46.62.62,0,0,0-.1-.37.36.36,0,0,0-.29-.14.37.37,0,0,0-.31.14.49.49,0,0,0-.11.31h-1a1.39,1.39,0,0,1,.44-1,1.74,1.74,0,0,1,2,0Z"/></g></g></g></svg>