<svg xmlns="http://www.w3.org/2000/svg" xmlns:xlink="http://www.w3.org/1999/xlink" viewBox="0 0 642.5 641.5"><defs><style>.cls-1,.cls-4{fill:none;}.cls-2{fill:#fff;}.cls-3,.cls-4{stroke-miterlimit:10;}.cls-3{opacity:0.5;fill:url(#New_Pattern_Swatch_1);stroke:url(#New_Pattern_Swatch_1-3);}.cls-4{stroke:#fff;stroke-linecap:round;stroke-width:3px;fill-rule:evenodd;}</style><pattern id="New_Pattern_Swatch_1" data-name="New Pattern Swatch 1" width="100" height="100" patternTransform="translate(-3.49 978.95)" patternUnits="userSpaceOnUse" viewBox="0 0 100 100"><rect class="cls-1" width="100" height="100"/><circle class="cls-2" cx="100" cy="75" r="4"/><circle class="cls-2" cx="50" cy="100" r="4"/><circle class="cls-2" cy="75" r="4"/><circle class="cls-2" cx="100" cy="25" r="4"/><circle class="cls-2" cx="50" cy="50" r="4"/><circle class="cls-2" cy="25" r="4"/><circle class="cls-2" cx="50" r="4"/></pattern><pattern id="New_Pattern_Swatch_1-3" data-name="New Pattern Swatch 1" width="100" height="100" patternTransform="translate(58.51 997.95)" patternUnits="userSpaceOnUse" viewBox="0 0 100 100"><rect class="cls-1" width="100" height="100"/><circle class="cls-2" cx="100" cy="75" r="4"/><circle class="cls-2" cx="50" cy="100" r="4"/><circle class="cls-2" cy="75" r="4"/><circle class="cls-2" cx="100" cy="25" r="4"/><circle class="cls-2" cx="50" cy="50" r="4"/><circle class="cls-2" cy="25" r="4"/><circle class="cls-2" cx="50" r="4"/></pattern></defs><g id="Layer_2" data-name="Layer 2"><g id="Layer_1-2" data-name="Layer 1"><circle class="cls-3" cx="350.5" cy="349.5" r="291.5"/><path class="cls-4" d="M349,250.27A84,84,0,0,0,241,330.7M306,1.5C137.83,1.5,1.5,137.83,1.5,306S137.83,610.5,306,610.5,610.5,474.17,610.5,306,474.17,1.5,306,1.5Zm0,200.22A104.28,104.28,0,1,0,410.28,306,104.28,104.28,0,0,0,306,201.72Zm-74.57-146a260.29,260.29,0,0,0-78.16,38.5m-51.56,49.17A260,260,0,0,0,49.49,256.92"/></g></g></svg>