<?xml version="1.0" encoding="UTF-8"?><svg id="_레이어_2" xmlns="http://www.w3.org/2000/svg" viewBox="0 0 818.55 454.9"><defs><style>.cls-1{fill:#fff;}.cls-2{fill:#00a5b9;}</style></defs><g id="_레이어_1-2"><g><path class="cls-2" d="M436.94,411.63c-2.58-5.38-4.97-5.55-8.34-10.13-6.62-8.99-5.99-20.02-4.6-40,.86-12.29,2.14-12.7,2.44-22.63,.2-6.5,.46-17.23-2.11-30.44,0,0-3.49-17.94-11.79-33.31-13.28-24.59-52-53.7-97.4-53.7-61.46-.04-111.29,50.77-110.72,112.93-1.83,73.06,70.52,127.27,137.49,108.02,10.53-3.13,20.63-6.13,30.91-14.28,4.84-3.85,8.05-7.51,11.04-6.42,3.86,1.41,1.94,8.76,8.04,16.95,.81,1.08,3.92,5.1,9.47,8,8.36,4.73,19.85,4.55,28.54-2.61,12.65-10.42,10.48-25.74,7.03-32.37Z"/><path class="cls-2" d="M275.52,0c-39.28,0-62.79,24.27-62.79,54.24s23.52,54.18,62.79,54.18,62.86-24.22,62.86-54.18S314.79,0,275.52,0Zm0,96.81c-18.82,0-33.15-19.11-33.15-42.57s14.33-42.56,33.15-42.56,33.15,19.04,33.15,42.56-14.3,42.57-33.15,42.57Z"/><polygon class="cls-2" points="343.7 15.99 385.07 15.99 385.07 103.96 416.25 103.96 416.25 15.99 451.13 15.99 451.13 4 343.7 4 343.7 15.99"/><polygon class="cls-2" points="462.51 15.99 497.38 15.99 497.38 103.96 528.52 103.96 528.52 15.99 569.92 15.99 569.92 4 462.51 4 462.51 15.99"/><path class="cls-2" d="M150.68,86.05V4h-29.89V92.04c0,6.59,5.32,11.91,11.9,11.91h76.45v-11.97h-52.48c-3.29,0-5.99-2.65-5.99-5.94Z"/><path class="cls-2" d="M622.77,15.82h57.53V4h-81.53c-6.57,0-11.92,5.29-11.92,11.88V92.04c0,6.59,5.34,11.9,11.92,11.9h81.53v-11.82h-57.53c-3.33,0-5.94-2.69-5.94-5.93v-29.46h62.54v-11.73h-62.54V21.74c0-3.26,2.61-5.92,5.94-5.92Z"/><path class="cls-2" d="M790.66,391.03h-80.95c-4.16,0-6.5-4.79-3.94-8.07l95.81-122.93c1.67-1.98,7.78-9.7,7.66-21.16-.03-2.39-.42-13.73-9.7-22.6-10.07-9.62-19.65-8.57-24.63-8.57h-125.19c-15.41,0-27.89,13.03-27.89,29.11h0c0,16.08,12.49,29.11,27.89,29.11h65.14c4.16,0,6.5,4.79,3.94,8.07l-93.69,120.2c-.98,1.18-2.3,2.86-3.66,5.02-1.26,1.99-6.36,10.09-6.89,19.15-.78,13.09,7.97,28.22,18.43,30.63,1.52,.35,5.52,.37,13.52,.4,4.51,.02,8.25-.06,10.81-.13h133.34c15.41,0,27.89-13.03,27.89-29.11h0c0-16.08-12.49-29.11-27.89-29.11Z"/><path class="cls-2" d="M180.72,210.49c15.72-.07,28.43-12.84,28.43-28.56v-.71c0-15.53-12.43-28.03-27.82-28.12-49.48-.28-147.63-.28-147.63-.28h-4.6c-16.08,0-29.11,13.03-29.11,29.11H0v238.21c0,16.08,13.03,29.11,29.11,29.11H179.47c15.34,0,28.49-11.64,29.6-26.93,1.24-17.06-12.23-31.28-29.03-31.28H78.81c-8.84,0-16-7.16-16-16v-32.81c0-8.8,7.11-15.95,15.91-16l79.02-.43c15.26-.08,27.59-12.48,27.59-27.74v-.71c0-16.03-12.82-28.93-28.71-29.03-24.26-.15-58.12-.19-77.83-.21-8.83,0-15.98-7.17-15.98-16v-25.15c0-8.81,7.12-15.96,15.93-16l101.98-.47Z"/><path class="cls-2" d="M549.63,393.94c-5.85-2.04-8.58-3.32-11.29-4.95-3.34-2.01-9.79-6-13.92-13.23-1.24-2.17-2.81-5.57-4.08-16.65-.74-6.49-1.36-15.4-.86-26.16v-54.83c0-5.45,4.32-9.88,9.65-9.88h35.45c15.52,0,28.1-12.87,28.1-28.75h0c0-15.88-12.58-28.75-28.1-28.75h-35.45c-5.33,0-9.65-4.42-9.65-9.88v-14.15c0-16.66-13.2-30.17-29.49-30.17h0c-16.29,0-29.49,13.51-29.49,30.17v146.22c-1.26,15.12-.32,27.55,.82,36.18,2.35,17.87,5.23,37.98,20.46,55.48,10.79,12.4,23.28,18.25,30.29,21.53,7.26,3.4,17.59,8.12,31.77,8.62,7.88,.28,19.59,.7,30.81-6.64,3.94-2.58,15.76-10.32,16.17-22.98,.32-9.77-6.29-18.39-12.77-22.64-6.47-4.25-9.52-1.99-28.41-8.58Z"/><path class="cls-1" d="M319.15,289.24c-2.29-15.75-8.97-27.15-16.85-27.15-7.28,0-13.53,9.72-16.25,23.61,1.7-3.45,3.96-5.57,6.44-5.57,5.27,0,9.54,9.45,9.54,21.11s-4.27,21.11-9.54,21.11c-2.49,0-4.74-2.12-6.44-5.57,2.72,13.89,8.97,23.61,16.25,23.61,7.88,0,14.56-11.4,16.85-27.15-.55-3.78-.85-7.81-.85-12s.3-8.22,.85-12Z"/><path class="cls-2" d="M286.05,285.7c-1.9,3.86-3.1,9.38-3.1,15.54s1.2,11.68,3.1,15.54c-.93-4.76-1.45-10.02-1.45-15.54s.52-10.77,1.45-15.54Z"/><path class="cls-2" d="M292.49,322.35c5.27,0,9.54-9.45,9.54-21.11s-4.27-21.11-9.54-21.11c-2.49,0-4.74,2.12-6.44,5.57-.93,4.76-1.45,10.02-1.45,15.54s.52,10.77,1.45,15.54c1.7,3.45,3.96,5.57,6.44,5.57Z"/><path class="cls-1" d="M336,262.09c-7.88,0-14.56,11.4-16.85,27.15,.11,.74,.21,1.48,.3,2.24,1.59-6.74,4.78-11.35,8.46-11.35,5.27,0,9.54,9.45,9.54,21.11s-4.27,21.11-9.54,21.11c-3.68,0-6.86-4.61-8.46-11.35-.09,.76-.19,1.5-.3,2.24,2.29,15.75,8.97,27.15,16.85,27.15,9.78,0,17.7-17.53,17.7-39.15s-7.93-39.15-17.7-39.15Z"/><path class="cls-1" d="M318.36,301.24c0-3.52,.4-6.84,1.09-9.76-.09-.76-.19-1.5-.3-2.24-.55,3.78-.85,7.81-.85,12s.3,8.22,.85,12c.11-.74,.21-1.48,.3-2.24-.69-2.92-1.09-6.24-1.09-9.76Z"/><path class="cls-2" d="M319.45,311c1.59,6.74,4.78,11.35,8.46,11.35,5.27,0,9.54-9.45,9.54-21.11s-4.27-21.11-9.54-21.11c-3.68,0-6.86,4.61-8.46,11.35,.36,3.12,.55,6.39,.55,9.76s-.19,6.64-.55,9.76Z"/><path class="cls-2" d="M319.45,311c.36-3.12,.55-6.39,.55-9.76s-.19-6.64-.55-9.76c-.69,2.92-1.09,6.24-1.09,9.76s.4,6.84,1.09,9.76Z"/></g></g></svg>