<svg xmlns="http://www.w3.org/2000/svg" viewBox="0 0 729.99 503.67"><defs><style>.cls-1{fill:#006937;}.cls-2,.cls-7{fill:#fff;}.cls-2{fill-rule:evenodd;}.cls-3{fill:#fece85;}.cls-4{fill:#d1b58a;}.cls-5{fill:#765642;}.cls-6{fill:#f5de81;}.cls-8{fill:#9ed2c3;}</style></defs><g id="Layer_2" data-name="Layer 2"><g id="Layer_1-2" data-name="Layer 1"><path class="cls-1" d="M712.87,408.37H676.76V176.05h19.39a33.84,33.84,0,1,0,0-67.68H645.34V5.62A5.61,5.61,0,0,0,639.73,0H240.92a5.61,5.61,0,0,0-5.62,5.62V108.26a.45.45,0,0,0,0,.11H184.49a33.84,33.84,0,1,0,0,67.68h19.4V408.37H167.77a17.14,17.14,0,0,0-17.12,17.12v8.17a17.14,17.14,0,0,0,17.12,17.12h545.1A17.14,17.14,0,0,0,730,433.66v-8.17A17.14,17.14,0,0,0,712.87,408.37ZM184.49,165.05a22.84,22.84,0,1,1,0-45.68H696.15a22.89,22.89,0,0,1,22.17,17.34H605.77a5.5,5.5,0,0,0,0,11H718.32a22.88,22.88,0,0,1-22.17,17.34H184.49ZM324,206.24V408.37H214.89V176.05H665.76V408.37H557.65V206.24Zm222.64,11v187.3H446.59V217.24Zm-111.06,0v187.3H335V217.24ZM719,433.66a6.13,6.13,0,0,1-6.12,6.12H167.77a6.13,6.13,0,0,1-6.12-6.12v-8.17a6.13,6.13,0,0,1,6.12-6.12h545.1a6.13,6.13,0,0,1,6.12,6.12Z"/><path class="cls-1" d="M584.2,142.21a5.5,5.5,0,0,0-5.5-5.5H176.83a5.5,5.5,0,0,0,0,11H578.7A5.5,5.5,0,0,0,584.2,142.21Z"/><path class="cls-1" d="M413.9,325.93a5.51,5.51,0,0,0,5.5-5.5V290.36a5.5,5.5,0,0,0-11,0v30.07A5.5,5.5,0,0,0,413.9,325.93Z"/><path class="cls-1" d="M468.28,325.93a5.5,5.5,0,0,0,5.5-5.5V290.36a5.5,5.5,0,0,0-11,0v30.07A5.5,5.5,0,0,0,468.28,325.93Z"/><path class="cls-1" d="M588.53,207.2h12.64a5.5,5.5,0,0,0,0-11H588.53a5.5,5.5,0,0,0,0,11Z"/><path class="cls-1" d="M616.49,207.2h30.26a5.5,5.5,0,0,0,0-11H616.49a5.5,5.5,0,0,0,0,11Z"/><path class="cls-1" d="M305.13,278.16H292.49a5.5,5.5,0,0,0,0,11h12.64a5.5,5.5,0,0,0,0-11Z"/><path class="cls-1" d="M277.17,278.16H246.92a5.5,5.5,0,0,0,0,11h30.25a5.5,5.5,0,0,0,0-11Z"/><path class="cls-2" d="M591.17,72.93c4.82.23,10.56-2.53,11.7-4.82s.69-6.43-2.52-6.43c-2.75,0-8,2.3-9.18,11.25Zm18.59,8c-9.18,12.39-22.49,10.78-25.7-.69-2.29,4.36-5.51,9-11.47,9.63-7.11.46-7.8-6.42-7.11-10.32.91-4.13,2.06-5.74,5-13.77,1.84-5.73-4.13-2.75-7.34,2.76-2.52,6.65-8,21.33-8,21.33a65,65,0,0,0-9.18-.45c.69-3.68,6-15.15,8.95-23.64,2.07-5.73-4.13-2.52-7.57,3.22l-.23.46L538.86,89.9h-9.63l3-7.8A14.42,14.42,0,0,1,529,85.32c-12.39,8.71-18.36,2.29-20.19-3.9-3.44,4.35-7.8,8.48-11.47,8-7.12-.23-5.51-10.79-4.13-14.23,3.21-9.41,6.65-12.85.22-13.08-1.14,0-8.94,29.83-23.17,31.44-13.08.91-8-9.18-5.73-15.15C468,68.8,471.64,64,469.8,60.54c-1.37-3-9.4,2.75-11.7,8.95-3.21,7.8-9.63,24.09-9.63,24.09L436.31,94s10.09-25.46,20-51.39c3.21-8.26-1.84-8.49-5.51-8.26-3.21.23-2.06-2.52.23-3,11.93-.92,16.06-.46,17.44.46,2.52,1.6,2.29,4.82,1.83,5.28-2.06,5.73-6,15.6-6.65,17.2-1.61,5.28,1.83.46,3-.92,1.15-1.14,8.49-9.4,9.87-11.7C478.06,39.89,485,33,489.3,33c4.13,0,116.79-.23,119.77,0a11.89,11.89,0,0,0,8.72-3.45c.92-.68,2.06-.68,2.06.46-.23.23-6,13.54-13.76,13.54H485.18c-2.53,0-7.81,3-11.71,7.8-3.67,4.36.92,2.75.92,2.75,6.88-.69,13.08-2.29,2.3,21.34-10.33,22.71,5,12.16,14-15.37.46-.92-2.29-2.07-2.29-4.13-.23-2.53-.92-5.05,3.44-5.05C496,50.9,494.58,55,498,56c7.12,2.29,11,0,7.35,9.41-3.68,8.48-7.58,19.27-3,18.12,3.9-.92,5.05-4.82,5.74-6.42v-.92c.69-9,6-17,10.55-18.81,10.79-4.82,14.92,1.37,14.46,7.11-.46,6.88-8.26,11.7-17.21,11.93-.23-.23-.23,0,0,1.37,1.38,10.1,12.85,4.36,19-2.29l7.8-19.73,9.87-.23-2.3,6c7.35-8.72,15.15-6.43,14.46,1.37l.23-.46c8.49-11,18.12-6.88,14.68,3.21-.46,1.38-5.27,14.92-5.27,14.92s-1.38,4.59,1.6,4.59c2.3,0,5.74-4.59,7.34-8.72v-.23c-.46-9,5-16.52,9.41-18.81,10.78-4.59,15.37,1.6,15.37,7.11,0,6.88-7.8,11.7-16.75,11.93-.23-.23-.23,0,0,1.37,2.3,12.16,14.46,4.13,16.06,1.84,4.59-5.28,4.36-1.61,2.3,1.38Zm-93.84-8c4.82.23,10.55-2.53,11.7-4.82,1.38-2.3,1.15-6.43-2.06-6.43-2.53-.22-7.81,2.3-9.64,11.25ZM346.14,38.28a4.94,4.94,0,1,1,9.86,0,4.89,4.89,0,0,1-4.81,5,4.94,4.94,0,0,1-5.05-5Zm60.34,61a18.38,18.38,0,0,0,6.88-7.57,27.39,27.39,0,0,0-8,4.36c-2.75,2.52-1.37,4.82,1.15,3.21ZM391.34,86c7.8-2.29,14.45-12.84,15.6-16.06,3.21-7.8,5.73-14.22,5.73-14.22h9.18S415.2,71.55,412.44,80c-2.75,7.57,5.05,1.15,8-7.34,2.76-7.8,6.2-16.75,6.2-16.75h9.87s-11.25,28.22-12.39,30.74c3.44-.92,8,1.61,7.57,3.21-1.61,4.59-2.53-2.52-9.18-.45-3.67,8.71-11.7,16.52-18.13,15.6C395.93,103.9,401,92.43,415,88.53l1.15-3.44c-7.35,6-14.23,2.29-12.62-4.82-6,7.34-13.08,8.49-17.44,8-3.44.46-6.42-.69-7.8-3.21-2.3,6-5.51,14-5.51,14h-9.4l4.81-12.16a20.65,20.65,0,0,1-11,2.53,8.84,8.84,0,0,1-10.78-5.28c-6.89,9.18-14.46,5.73-15.6.23-3,2.75-6,5.5-8.95,5-7.11-.23-5.28-10.79-4.13-14.23,3.21-9.41,6.65-12.85.23-13.08C316.77,62.14,309,92,295,93.58c-13.07.91-8-9.18-6-15.15,3.44-9.63,7.11-14.45,5.28-17.89-1.38-3-9.41,2.75-11.7,8.95-3.22,7.8-9.64,24.09-9.64,24.09L260.79,94s10.09-25.46,20-51.39c3.21-8.26-1.84-8.49-5.51-8.26-3.21.23-2.06-2.52.46-3,11.7-.92,15.83-.46,17.44.46,2.29,1.6,2.29,4.82,1.83,5.28-2.29,5.73-6.19,15.6-6.65,17.2-1.83,5.28,1.84.46,2.75-.92,1.15-1.14,8.49-9.4,10.1-11.7C302.55,39.89,309.43,33,314,33h30.51a8.14,8.14,0,0,0-1.83,5.27,7.64,7.64,0,0,0,2.06,5.28h-35.1c-2.53,0-7.8,3-11.7,7.8-3.44,4.36.91,2.75.91,2.75,6.89-.69,13.08-2.29,2.3,21.34-10.33,22.71,5.05,12.16,14.22-15.37.23-.92-2.29-2.07-2.52-4.13,0-2.53-.69-5.05,3.44-5.05s2.75,4.13,6.2,5.05c7.34,2.29,11.24,0,7.34,9.41-3.44,8.48-7.57,19.27-2.75,18.12a7.37,7.37,0,0,0,4.35-3.9c5.05-13.31,9.18-23.86,9.18-23.86h9.18s-3.44,8.72-10.1,25.47c-2.29,5.73,2.53,2.52,6-1.15a5,5,0,0,1,3.21-4.59c3.67-5,15.6-21.57,15.6-21.57s.69.46,0,1.84c-.91,1.38.92,9.18,1.84,11.7,1.15,3.9,3.21,13.77-2.3,18.35a11.48,11.48,0,0,1-3,2.07,19.49,19.49,0,0,0,8.26-3.67l11-28.45h9.18a19.57,19.57,0,0,0-.92,2.29c2.76-2.06,6-3.21,8.49-2.52,2.53.92,11,1.61,1.61,20.88-2.3,4.82-4.82,7.8-7.34,9.63Zm-39-10.55c4.59,2.29,2.76,8.72-.46,9.64-1.37.91,4.82,4.13,7.58-2.3s-.92-12.85-1.38-14c-.92.91-3,3.21-5.74,6.65Zm34.19-10.78c-.69,1.14-5.51,13.07-5.51,13.07-1.37,3.45.69,5.05,2.07,5.28,3,.69,6-1.6,9.4-10.09,5-13.31-4.36-11.47-6-8.26ZM357.61,32.78c33.5,0,74.11,0,75.94.23a11.41,11.41,0,0,0,8.72-3.45c.92-.68,2.07-.68,2.07.46,0,.23-5.74,13.54-13.77,13.54h-73a8.65,8.65,0,0,0,1.84-5.28,9.3,9.3,0,0,0-1.84-5.5Z"/><path class="cls-3" d="M138.59,226.49A138.59,138.59,0,1,0,277.17,365.07,138.58,138.58,0,0,0,138.59,226.49ZM199.5,365.07a60.92,60.92,0,1,1-60.91-60.91A60.93,60.93,0,0,1,199.5,365.07Z"/><path class="cls-4" d="M138.59,299.29a65.79,65.79,0,1,0,65.78,65.78A65.79,65.79,0,0,0,138.59,299.29Zm0,119.59a53.8,53.8,0,1,1,53.78-53.81A53.79,53.79,0,0,1,138.59,418.88Z"/><path class="cls-5" d="M265.36,358.75a23.59,23.59,0,0,0-5.26-29.85l-17-14.24a23.5,23.5,0,0,1-8.05-14l-3.85-21.82A23.58,23.58,0,0,0,208,259.4H185.85a23.63,23.63,0,0,1-15.15-5.5l-17-14.25a23.57,23.57,0,0,0-30.3,0l-17,14.25a23.57,23.57,0,0,1-15.15,5.5H69.16a23.58,23.58,0,0,0-23.22,19.49L42.1,300.71a23.58,23.58,0,0,1-8.07,14l-17,14.24a23.59,23.59,0,0,0-5.27,29.85l11.08,19.17a23.63,23.63,0,0,1,2.8,15.89l-3.85,21.82A23.55,23.55,0,0,0,37,441.86l20.82,7.58A23.57,23.57,0,0,1,70.15,459.8L81.23,479a23.57,23.57,0,0,0,28.47,10.36l20.82-7.57a23.51,23.51,0,0,1,16.12,0l20.82,7.57A23.56,23.56,0,0,0,195.93,479L207,459.8a23.57,23.57,0,0,1,12.35-10.36l20.81-7.58a23.53,23.53,0,0,0,15.15-26.23l-3.83-21.82a23.57,23.57,0,0,1,2.79-15.89ZM138.59,426a60.92,60.92,0,1,1,60.91-60.93A60.93,60.93,0,0,1,138.59,426Z"/><path class="cls-6" d="M128.75,268.5,113,259.41a2.73,2.73,0,0,1-1-3.7h0a2.72,2.72,0,0,1,3.7-1l15.76,9.1a2.72,2.72,0,0,1,1,3.69h0A2.71,2.71,0,0,1,128.75,268.5Z"/><path class="cls-7" d="M123.31,285.07l-17.89,3.34a2.72,2.72,0,0,1-3.16-2.16h0a2.71,2.71,0,0,1,2.17-3.16l17.88-3.34a2.72,2.72,0,0,1,3.16,2.16h0A2.72,2.72,0,0,1,123.31,285.07Z"/><path class="cls-8" d="M82.24,282l-17.88,3.34a2.72,2.72,0,0,1-3.16-2.16h0a2.71,2.71,0,0,1,2.16-3.15l17.89-3.35a2.72,2.72,0,0,1,3.16,2.17h0A2.71,2.71,0,0,1,82.24,282Z"/><path class="cls-8" d="M42.44,376l13-12.72a2.72,2.72,0,0,1,3.83,0h0a2.7,2.7,0,0,1-.05,3.82l-13,12.73a2.7,2.7,0,0,1-3.82-.05h0A2.71,2.71,0,0,1,42.44,376Z"/><path class="cls-7" d="M18.76,384.13,20.36,366a2.71,2.71,0,0,1,2.93-2.45h0a2.72,2.72,0,0,1,2.46,2.93l-1.6,18.12a2.73,2.73,0,0,1-2.94,2.46h0A2.71,2.71,0,0,1,18.76,384.13Z"/><path class="cls-7" d="M78.07,330.24l-14-11.64a2.71,2.71,0,0,1-.35-3.8h0a2.71,2.71,0,0,1,3.81-.35l14,11.64a2.72,2.72,0,0,1,.35,3.81h0A2.71,2.71,0,0,1,78.07,330.24Z"/><path class="cls-6" d="M32.76,334.56l1.6-18.13A2.71,2.71,0,0,1,37.29,314h0a2.72,2.72,0,0,1,2.46,2.93L38.14,335a2.72,2.72,0,0,1-2.93,2.46h0A2.71,2.71,0,0,1,32.76,334.56Z"/><path class="cls-6" d="M82.17,460.48l13-12.72a2.71,2.71,0,0,1,3.82,0h0a2.71,2.71,0,0,1,0,3.82L86,464.35a2.7,2.7,0,0,1-3.82-.05h0A2.71,2.71,0,0,1,82.17,460.48Z"/><path class="cls-7" d="M118.19,485.35l2.72-18a2.72,2.72,0,0,1,3.08-2.27h0a2.72,2.72,0,0,1,2.27,3.08l-2.72,18a2.72,2.72,0,0,1-3.08,2.27h0A2.72,2.72,0,0,1,118.19,485.35Z"/><path class="cls-7" d="M53.07,453.89l18.16-1.08a2.72,2.72,0,0,1,2.87,2.54h0a2.72,2.72,0,0,1-2.54,2.86l-18.17,1.08a2.71,2.71,0,0,1-2.86-2.54h0A2.72,2.72,0,0,1,53.07,453.89Z"/><path class="cls-6" d="M51.21,426.68,37.22,415a2.71,2.71,0,0,1-.35-3.8h0a2.7,2.7,0,0,1,3.81-.35l14,11.64a2.71,2.71,0,0,1,.35,3.8h0A2.7,2.7,0,0,1,51.21,426.68Z"/><path class="cls-8" d="M127.49,444.88l-14-11.64a2.72,2.72,0,0,1-.35-3.81h0a2.72,2.72,0,0,1,3.81-.35l14,11.64a2.72,2.72,0,0,1,.35,3.81h0A2.72,2.72,0,0,1,127.49,444.88Z"/><path class="cls-7" d="M72.48,419.09,74.09,401A2.71,2.71,0,0,1,77,398.51h0a2.71,2.71,0,0,1,2.45,2.93l-1.6,18.12A2.71,2.71,0,0,1,74.94,422h0A2.72,2.72,0,0,1,72.48,419.09Z"/><path class="cls-8" d="M207.19,304.54l-18.18.8a2.7,2.7,0,0,0-2.58,2.82h0a2.71,2.71,0,0,0,2.82,2.58l18.18-.8a2.7,2.7,0,0,0,2.58-2.82h0A2.71,2.71,0,0,0,207.19,304.54Z"/><path class="cls-7" d="M229.35,292.85,215,281.62a2.72,2.72,0,0,0-3.8.46h0a2.72,2.72,0,0,0,.46,3.8L226,297.1a2.7,2.7,0,0,0,3.79-.46h0A2.7,2.7,0,0,0,229.35,292.85Z"/><path class="cls-7" d="M149.48,299.29l1.07-18.16a2.71,2.71,0,0,0-2.54-2.86h0a2.71,2.71,0,0,0-2.86,2.54L144.08,299a2.71,2.71,0,0,0,2.54,2.86h0A2.71,2.71,0,0,0,149.48,299.29Z"/><path class="cls-7" d="M183.61,269.17,169.28,258a2.7,2.7,0,0,0-3.79.46h0a2.71,2.71,0,0,0,.46,3.8l14.32,11.22a2.71,2.71,0,0,0,3.8-.46h0A2.72,2.72,0,0,0,183.61,269.17Z"/><path class="cls-8" d="M241.72,391.33l-18.18.79a2.7,2.7,0,0,0-2.58,2.82h0a2.7,2.7,0,0,0,2.82,2.58l18.17-.79a2.72,2.72,0,0,0,2.59-2.82h0A2.71,2.71,0,0,0,241.72,391.33Z"/><path class="cls-7" d="M235.24,434.61l-15-10.31a2.71,2.71,0,0,0-3.76.7h0a2.72,2.72,0,0,0,.69,3.76l15,10.31a2.73,2.73,0,0,0,3.77-.69h0A2.72,2.72,0,0,0,235.24,434.61Z"/><path class="cls-7" d="M256.8,365.59,243.6,378.1a2.71,2.71,0,0,0-.1,3.83h0a2.71,2.71,0,0,0,3.82.1l13.21-12.52a2.71,2.71,0,0,0,.1-3.82h0A2.71,2.71,0,0,0,256.8,365.59Z"/><path class="cls-6" d="M238.22,345.62l1.07-18.16a2.72,2.72,0,0,0-2.54-2.86h0a2.71,2.71,0,0,0-2.86,2.54l-1.07,18.17a2.73,2.73,0,0,0,2.54,2.86h0A2.71,2.71,0,0,0,238.22,345.62Z"/><path class="cls-6" d="M199.35,413.73l1.07-18.16a2.72,2.72,0,0,0-2.54-2.86h0a2.71,2.71,0,0,0-2.86,2.54L194,413.41a2.71,2.71,0,0,0,2.54,2.86h0A2.71,2.71,0,0,0,199.35,413.73Z"/><path class="cls-7" d="M218.13,356l-14.32-11.22a2.71,2.71,0,0,0-3.8.46h0a2.7,2.7,0,0,0,.47,3.79l14.32,11.23a2.7,2.7,0,0,0,3.79-.47h0A2.7,2.7,0,0,0,218.13,356Z"/><path class="cls-6" d="M173.82,480.45l-15.73-9.14a2.71,2.71,0,0,0-3.7,1h0a2.72,2.72,0,0,0,1,3.69l15.74,9.15a2.72,2.72,0,0,0,3.69-1h0A2.71,2.71,0,0,0,173.82,480.45Z"/><path class="cls-7" d="M187.74,457l17.73-4.09a2.71,2.71,0,0,0,2-3.24h0a2.7,2.7,0,0,0-3.24-2l-17.73,4.09a2.71,2.71,0,0,0-2,3.25h0A2.7,2.7,0,0,0,187.74,457Z"/><path class="cls-7" d="M172.16,440.63l6.73-16.9a2.73,2.73,0,0,0-1.51-3.52h0a2.71,2.71,0,0,0-3.51,1.52l-6.73,16.9a2.71,2.71,0,0,0,1.51,3.51h0A2.71,2.71,0,0,0,172.16,440.63Z"/></g></g></svg>