<svg width="104" height="40" viewBox="0 0 104 40" fill="none" xmlns="http://www.w3.org/2000/svg">
<path d="M38.8264 25L35.0664 14.984H35.0024C35.0237 15.1973 35.0397 15.4693 35.0504 15.8C35.0717 16.1307 35.0877 16.4933 35.0984 16.888C35.109 17.272 35.1144 17.6667 35.1144 18.072V25H33.7864V13.576H35.9144L39.4344 22.936H39.4984L43.0824 13.576H45.1944V25H43.7704V17.976C43.7704 17.6027 43.7757 17.2347 43.7864 16.872C43.797 16.4987 43.813 16.152 43.8344 15.832C43.8557 15.5013 43.8717 15.224 43.8824 15H43.8184L40.0104 25H38.8264ZM55.566 20.696C55.566 21.4107 55.47 22.0453 55.278 22.6C55.0967 23.144 54.83 23.608 54.478 23.992C54.1367 24.376 53.7153 24.6693 53.214 24.872C52.7233 25.064 52.174 25.16 51.566 25.16C51.0007 25.16 50.478 25.064 49.998 24.872C49.518 24.6693 49.102 24.376 48.75 23.992C48.398 23.608 48.1207 23.144 47.918 22.6C47.726 22.0453 47.63 21.4107 47.63 20.696C47.63 19.7467 47.79 18.9467 48.11 18.296C48.43 17.6347 48.8887 17.1333 49.486 16.792C50.0833 16.44 50.7927 16.264 51.614 16.264C52.3927 16.264 53.0753 16.44 53.662 16.792C54.2593 17.1333 54.7233 17.6347 55.054 18.296C55.3953 18.9467 55.566 19.7467 55.566 20.696ZM49.086 20.696C49.086 21.368 49.1713 21.9547 49.342 22.456C49.5233 22.9467 49.8007 23.3253 50.174 23.592C50.5473 23.8587 51.022 23.992 51.598 23.992C52.174 23.992 52.6487 23.8587 53.022 23.592C53.3953 23.3253 53.6673 22.9467 53.838 22.456C54.0193 21.9547 54.11 21.368 54.11 20.696C54.11 20.0133 54.0193 19.432 53.838 18.952C53.6567 18.472 53.3793 18.104 53.006 17.848C52.6433 17.5813 52.1687 17.448 51.582 17.448C50.7073 17.448 50.0727 17.736 49.678 18.312C49.2833 18.888 49.086 19.6827 49.086 20.696ZM61.7975 16.264C61.9575 16.264 62.1282 16.2747 62.3095 16.296C62.5015 16.3067 62.6668 16.328 62.8055 16.36L62.6295 17.656C62.4908 17.624 62.3362 17.5973 62.1655 17.576C62.0055 17.5547 61.8508 17.544 61.7015 17.544C61.3708 17.544 61.0562 17.6133 60.7575 17.752C60.4588 17.8907 60.1922 18.088 59.9575 18.344C59.7228 18.5893 59.5362 18.888 59.3975 19.24C59.2695 19.592 59.2055 19.9867 59.2055 20.424V25H57.7975V16.424H58.9495L59.1095 17.992H59.1735C59.3548 17.672 59.5735 17.384 59.8295 17.128C60.0855 16.8613 60.3788 16.6533 60.7095 16.504C61.0402 16.344 61.4028 16.264 61.7975 16.264ZM67.4064 16.264C68.1424 16.264 68.7717 16.424 69.2944 16.744C69.8277 17.064 70.233 17.5173 70.5104 18.104C70.7984 18.68 70.9424 19.3573 70.9424 20.136V20.984H65.0704C65.0917 21.9547 65.337 22.696 65.8064 23.208C66.2864 23.7093 66.953 23.96 67.8064 23.96C68.3504 23.96 68.8304 23.912 69.2464 23.816C69.673 23.7093 70.1104 23.56 70.5584 23.368V24.6C70.121 24.792 69.689 24.9307 69.2624 25.016C68.8357 25.112 68.329 25.16 67.7424 25.16C66.9317 25.16 66.2117 24.9947 65.5824 24.664C64.9637 24.3333 64.4784 23.8427 64.1264 23.192C63.785 22.5307 63.6144 21.7253 63.6144 20.776C63.6144 19.8373 63.769 19.032 64.0784 18.36C64.3984 17.688 64.841 17.1707 65.4064 16.808C65.9824 16.4453 66.649 16.264 67.4064 16.264ZM67.3904 17.416C66.7184 17.416 66.185 17.6347 65.7904 18.072C65.4064 18.4987 65.177 19.096 65.1024 19.864H69.4704C69.4704 19.3733 69.3957 18.9467 69.2464 18.584C69.097 18.2213 68.8677 17.9387 68.5584 17.736C68.2597 17.5227 67.8704 17.416 67.3904 17.416Z" fill="white"/>
<rect x="0.5" y="0.5" width="103" height="39" rx="19.5" stroke="white"/>
</svg>
